font2.ufo
<glyph name="exclamdown" format="1">
  <advance width="249"/>
  <unicode hex="00A1"/>
  <outline>
    <contour>
      <point x="125" y="497" type="curve" smooth="yes"/>
      <point x="106" y="497"/>
      <point x="94" y="482"/>
      <point x="94" y="467" type="curve" smooth="yes"/>
      <point x="94" y="450"/>
      <point x="106" y="437"/>
      <point x="125" y="437" type="curve" smooth="yes"/>
      <point x="144" y="437"/>
      <point x="156" y="450"/>
      <point x="156" y="467" type="curve" smooth="yes"/>
      <point x="156" y="482"/>
      <point x="144" y="497"/>
    </contour>
    <contour>
      <point x="125" y="-210" type="curve" smooth="yes"/>
      <point x="137" y="-210"/>
      <point x="144" y="-201"/>
      <point x="144" y="-183" type="curve" smooth="yes"/>
      <point x="144" y="-125"/>
      <point x="139" y="-51"/>
      <point x="137" y="75" type="curve" smooth="yes"/>
      <point x="133" y="314" type="line"/>
      <point x="117" y="314" type="line"/>
      <point x="113" y="75" type="line" smooth="yes"/>
      <point x="111" y="-51"/>
      <point x="106" y="-125"/>
      <point x="106" y="-183" type="curve" smooth="yes"/>
      <point x="106" y="-201"/>
      <point x="113" y="-210"/>
    </contour>
  </outline>
</glyph>
<glyph name="acute" format="1">
  <advance width="400"/>
  <unicode hex="00B4"/>
  <outline>
    <contour>
      <point x="155" y="572" type="curve"/>
      <point x="166" y="563" type="line"/>
      <point x="208" y="606"/>
      <point x="249" y="650"/>
      <point x="278" y="681" type="curve" smooth="yes"/>
      <point x="298" y="702"/>
      <point x="307" y="711"/>
      <point x="307" y="721" type="curve" smooth="yes"/>
      <point x="307" y="732"/>
      <point x="299" y="738"/>
      <point x="290" y="738" type="curve" smooth="yes"/>
      <point x="280" y="738"/>
      <point x="274" y="730"/>
      <point x="257" y="707" type="curve" smooth="yes"/>
      <point x="229" y="671"/>
      <point x="192" y="621"/>
    </contour>
    <contour>
      <point x="200" y="500" type="move" name="_aboveLC"/>
    </contour>
  </outline>
</glyph>
<glyph name="periodcentered" format="1">
  <advance width="300"/>
  <unicode hex="00B7"/>
  <outline>
    <contour>
      <point x="150" y="284" type="curve" smooth="yes"/>
      <point x="171" y="284"/>
      <point x="184" y="301"/>
      <point x="184" y="317" type="curve" smooth="yes"/>
      <point x="184" y="336"/>
      <point x="171" y="350"/>
      <point x="150" y="350" type="curve" smooth="yes"/>
      <point x="129" y="350"/>
      <point x="116" y="336"/>
      <point x="116" y="317" type="curve" smooth="yes"/>
      <point x="116" y="301"/>
      <point x="129" y="284"/>
    </contour>
  </outline>
</glyph>
<glyph name="ordmasculine" format="1">
  <advance width="354"/>
  <unicode hex="00BA"/>
  <outline>
    <contour>
      <point x="177" y="740" type="curve" smooth="yes"/>
      <point x="246" y="740"/>
      <point x="290" y="683"/>
      <point x="290" y="591" type="curve" smooth="yes"/>
      <point x="290" y="500"/>
      <point x="246" y="445"/>
      <point x="177" y="445" type="curve" smooth="yes"/>
      <point x="109" y="445"/>
      <point x="65" y="500"/>
      <point x="65" y="591" type="curve" smooth="yes"/>
      <point x="65" y="683"/>
      <point x="109" y="740"/>
    </contour>
    <contour>
      <point x="177" y="758" type="curve" smooth="yes"/>
      <point x="107" y="758"/>
      <point x="35" y="703"/>
      <point x="35" y="591" type="curve" smooth="yes"/>
      <point x="35" y="480"/>
      <point x="107" y="427"/>
      <point x="177" y="427" type="curve" smooth="yes"/>
      <point x="248" y="427"/>
      <point x="319" y="480"/>
      <point x="319" y="591" type="curve" smooth="yes"/>
      <point x="319" y="703"/>
      <point x="248" y="758"/>
    </contour>
  </outline>
</glyph>
<glyph name="onequarter" format="1">
  <advance width="860"/>
  <unicode hex="00BC"/>
  <outline>
    <contour>
      <point x="224" y="-22" type="line"/>
      <point x="701" y="664" type="line"/>
      <point x="684" y="675" type="line"/>
      <point x="207" y="-11" type="line"/>
    </contour>
    <contour>
      <point x="86" y="636" type="line"/>
      <point x="86" y="618" type="line"/>
      <point x="181" y="633" type="line"/>
      <point x="181" y="265" type="line"/>
      <point x="209" y="265" type="line"/>
      <point x="209" y="660" type="line"/>
      <point x="200" y="667" type="line"/>
    </contour>
    <contour>
      <point x="206" y="289" type="line"/>
      <point x="184" y="289" type="line"/>
      <point x="80" y="281" type="line"/>
      <point x="80" y="265" type="line"/>
      <point x="305" y="265" type="line"/>
      <point x="305" y="281" type="line"/>
    </contour>
    <contour>
      <point x="487" y="127" type="line"/>
      <point x="773" y="127" type="line"/>
      <point x="773" y="151" type="line"/>
      <point x="504" y="151" type="line"/>
      <point x="503" y="142" type="line"/>
      <point x="679" y="370" type="line"/>
      <point x="670" y="370" type="line"/>
      <point x="670" y="0" type="line"/>
      <point x="698" y="0" type="line"/>
      <point x="698" y="399" type="line"/>
      <point x="680" y="399" type="line"/>
      <point x="487" y="147" type="line"/>
    </contour>
  </outline>
</glyph>
<glyph name="onehalf" format="1">
  <advance width="860"/>
  <unicode hex="00BD"/>
  <outline>
    <contour>
      <point x="191" y="-22" type="line"/>
      <point x="668" y="664" type="line"/>
      <point x="651" y="675" type="line"/>
      <point x="174" y="-11" type="line"/>
    </contour>
    <contour>
      <point x="78" y="636" type="line"/>
      <point x="78" y="618" type="line"/>
      <point x="173" y="633" type="line"/>
      <point x="173" y="265" type="line"/>
      <point x="201" y="265" type="line"/>
      <point x="201" y="660" type="line"/>
      <point x="192" y="667" type="line"/>
    </contour>
    <contour>
      <point x="198" y="289" type="line"/>
      <point x="176" y="289" type="line"/>
      <point x="72" y="281" type="line"/>
      <point x="72" y="265" type="line"/>
      <point x="297" y="265" type="line"/>
      <point x="297" y="281" type="line"/>
    </contour>
    <contour>
      <point x="521" y="0" type="line"/>
      <point x="776" y="0" type="line"/>
      <point x="776" y="30" type="line"/>
      <point x="536" y="30" type="line"/>
      <point x="540" y="22" type="line"/>
      <point x="670" y="147" type="line" smooth="yes"/>
      <point x="728" y="210"/>
      <point x="754" y="250"/>
      <point x="754" y="298" type="curve" smooth="yes"/>
      <point x="754" y="361"/>
      <point x="714" y="402"/>
      <point x="640" y="402" type="curve" smooth="yes"/>
      <point x="585" y="402"/>
      <point x="537" y="373"/>
      <point x="520" y="321" type="curve"/>
      <point x="524" y="313"/>
      <point x="530" y="308"/>
      <point x="539" y="308" type="curve" smooth="yes"/>
      <point x="549" y="308"/>
      <point x="555" y="316"/>
      <point x="561" y="333" type="curve" smooth="yes"/>
      <point x="583" y="383" type="line"/>
      <point x="558" y="363" type="line"/>
      <point x="586" y="378"/>
      <point x="609" y="383"/>
      <point x="633" y="383" type="curve" smooth="yes"/>
      <point x="692" y="383"/>
      <point x="723" y="346"/>
      <point x="723" y="296" type="curve" smooth="yes"/>
      <point x="723" y="251"/>
      <point x="701" y="210"/>
      <point x="648" y="153" type="curve" smooth="yes"/>
      <point x="521" y="25" type="line"/>
    </contour>
  </outline>
</glyph>
<glyph name="threequarters" format="1">
  <advance width="860"/>
  <unicode hex="00BE"/>
  <outline>
    <contour>
      <point x="233" y="-22" type="line"/>
      <point x="710" y="664" type="line"/>
      <point x="693" y="675" type="line"/>
      <point x="216" y="-11" type="line"/>
    </contour>
    <contour>
      <point x="169" y="482" type="line"/>
      <point x="169" y="462" type="line"/>
      <point x="197" y="462" type="line" smooth="yes"/>
      <point x="275" y="462"/>
      <point x="313" y="428"/>
      <point x="313" y="369" type="curve" smooth="yes"/>
      <point x="313" y="313"/>
      <point x="275" y="275"/>
      <point x="205" y="275" type="curve" smooth="yes"/>
      <point x="175" y="275"/>
      <point x="154" y="280"/>
      <point x="133" y="291" type="curve"/>
      <point x="153" y="271" type="line"/>
      <point x="133" y="321" type="line" smooth="yes"/>
      <point x="128" y="338"/>
      <point x="123" y="345"/>
      <point x="112" y="345" type="curve" smooth="yes"/>
      <point x="103" y="345"/>
      <point x="96" y="340"/>
      <point x="94" y="330" type="curve"/>
      <point x="109" y="280"/>
      <point x="152" y="256"/>
      <point x="211" y="256" type="curve" smooth="yes"/>
      <point x="287" y="256"/>
      <point x="343" y="302"/>
      <point x="343" y="370" type="curve" smooth="yes"/>
      <point x="343" y="430"/>
      <point x="300" y="470"/>
      <point x="221" y="474" type="curve"/>
      <point x="221" y="468" type="line"/>
      <point x="289" y="478"/>
      <point x="330" y="520"/>
      <point x="330" y="570" type="curve" smooth="yes"/>
      <point x="330" y="627"/>
      <point x="286" y="667"/>
      <point x="218" y="667" type="curve" smooth="yes"/>
      <point x="168" y="667"/>
      <point x="119" y="645"/>
      <point x="105" y="594" type="curve"/>
      <point x="107" y="584"/>
      <point x="114" y="579"/>
      <point x="122" y="579" type="curve" smooth="yes"/>
      <point x="134" y="579"/>
      <point x="139" y="586"/>
      <point x="144" y="603" type="curve" smooth="yes"/>
      <point x="162" y="650" type="line"/>
      <point x="142" y="632" type="line"/>
      <point x="167" y="644"/>
      <point x="188" y="648"/>
      <point x="214" y="648" type="curve" smooth="yes"/>
      <point x="269" y="648"/>
      <point x="300" y="618"/>
      <point x="300" y="569" type="curve" smooth="yes"/>
      <point x="300" y="514"/>
      <point x="255" y="482"/>
      <point x="195" y="482" type="curve" smooth="yes"/>
    </contour>
    <contour>
      <point x="496" y="127" type="line"/>
      <point x="782" y="127" type="line"/>
      <point x="782" y="151" type="line"/>
      <point x="513" y="151" type="line"/>
      <point x="512" y="142" type="line"/>
      <point x="688" y="370" type="line"/>
      <point x="679" y="370" type="line"/>
      <point x="679" y="0" type="line"/>
      <point x="707" y="0" type="line"/>
      <point x="707" y="399" type="line"/>
      <point x="689" y="399" type="line"/>
      <point x="496" y="147" type="line"/>
    </contour>
  </outline>
</glyph>
<glyph name="Agrave" format="1">
  <advance width="653"/>
  <unicode hex="00C0"/>
  <outline>
    <contour>
      <point x="12" y="0" type="line"/>
      <point x="210" y="0" type="line"/>
      <point x="210" y="20" type="line"/>
      <point x="113" y="26" type="line"/>
      <point x="99" y="26" type="line"/>
      <point x="12" y="20" type="line"/>
    </contour>
    <contour>
      <point x="173" y="247" type="line"/>
      <point x="468" y="247" type="line"/>
      <point x="460" y="267" type="line"/>
      <point x="182" y="267" type="line"/>
    </contour>
    <contour>
      <point x="403" y="0" type="line"/>
      <point x="651" y="0" type="line"/>
      <point x="651" y="20" type="line"/>
      <point x="537" y="26" type="line"/>
      <point x="523" y="26" type="line"/>
      <point x="403" y="20" type="line"/>
    </contour>
    <contour>
      <point x="85" y="0" type="line"/>
      <point x="114" y="0" type="line"/>
      <point x="315" y="636" type="line"/>
      <point x="524" y="0" type="line"/>
      <point x="556" y="0" type="line"/>
      <point x="327" y="684" type="line"/>
      <point x="307" y="684" type="line"/>
    </contour>
    <contour>
      <point x="356" y="741" type="line"/>
      <point x="320" y="771"/>
      <point x="284" y="802"/>
      <point x="253" y="828" type="curve" smooth="yes"/>
      <point x="225" y="852"/>
      <point x="216" y="859"/>
      <point x="206" y="859" type="curve" smooth="yes"/>
      <point x="196" y="859"/>
      <point x="188" y="852"/>
      <point x="188" y="842" type="curve" smooth="yes"/>
      <point x="188" y="830"/>
      <point x="201" y="823"/>
      <point x="234" y="801" type="curve" smooth="yes"/>
      <point x="270" y="778"/>
      <point x="309" y="753"/>
      <point x="348" y="730" type="curve"/>
    </contour>
  </outline>
</glyph>
<glyph name="Acircumflex" format="1">
  <advance width="653"/>
  <unicode hex="00C2"/>
  <outline>
    <contour>
      <point x="12" y="0" type="line"/>
      <point x="210" y="0" type="line"/>
      <point x="210" y="20" type="line"/>
      <point x="113" y="26" type="line"/>
      <point x="99" y="26" type="line"/>
      <point x="12" y="20" type="line"/>
    </contour>
    <contour>
      <point x="173" y="247" type="line"/>
      <point x="468" y="247" type="line"/>
      <point x="460" y="267" type="line"/>
      <point x="182" y="267" type="line"/>
    </contour>
    <contour>
      <point x="403" y="0" type="line"/>
      <point x="651" y="0" type="line"/>
      <point x="651" y="20" type="line"/>
      <point x="537" y="26" type="line"/>
      <point x="523" y="26" type="line"/>
      <point x="403" y="20" type="line"/>
    </contour>
    <contour>
      <point x="85" y="0" type="line"/>
      <point x="114" y="0" type="line"/>
      <point x="315" y="636" type="line"/>
      <point x="524" y="0" type="line"/>
      <point x="556" y="0" type="line"/>
      <point x="327" y="684" type="line"/>
      <point x="307" y="684" type="line"/>
    </contour>
    <contour>
      <point x="324" y="842" type="line"/>
      <point x="310" y="842" type="line"/>
      <point x="180" y="730" type="line"/>
      <point x="188" y="720" type="line"/>
      <point x="326" y="811" type="line"/>
      <point x="308" y="811" type="line"/>
      <point x="446" y="720" type="line"/>
      <point x="454" y="730" type="line"/>
    </contour>
  </outline>
</glyph>
<glyph name="Atilde" format="1">
  <advance width="653"/>
  <unicode hex="00C3"/>
  <outline>
    <contour>
      <point x="12" y="0" type="line"/>
      <point x="210" y="0" type="line"/>
      <point x="210" y="20" type="line"/>
      <point x="113" y="26" type="line"/>
      <point x="99" y="26" type="line"/>
      <point x="12" y="20" type="line"/>
    </contour>
    <contour>
      <point x="173" y="247" type="line"/>
      <point x="468" y="247" type="line"/>
      <point x="460" y="267" type="line"/>
      <point x="182" y="267" type="line"/>
    </contour>
    <contour>
      <point x="403" y="0" type="line"/>
      <point x="651" y="0" type="line"/>
      <point x="651" y="20" type="line"/>
      <point x="537" y="26" type="line"/>
      <point x="523" y="26" type="line"/>
      <point x="403" y="20" type="line"/>
    </contour>
    <contour>
      <point x="85" y="0" type="line"/>
      <point x="114" y="0" type="line"/>
      <point x="315" y="636" type="line"/>
      <point x="524" y="0" type="line"/>
      <point x="556" y="0" type="line"/>
      <point x="327" y="684" type="line"/>
      <point x="307" y="684" type="line"/>
    </contour>
    <contour>
      <point x="152" y="753" type="curve"/>
      <point x="168" y="748" type="line"/>
      <point x="182" y="796"/>
      <point x="204" y="822"/>
      <point x="240" y="822" type="curve" smooth="yes"/>
      <point x="270" y="822"/>
      <point x="286" y="806"/>
      <point x="307" y="783" type="curve" smooth="yes"/>
      <point x="325" y="762"/>
      <point x="349" y="741"/>
      <point x="388" y="741" type="curve" smooth="yes"/>
      <point x="438" y="741"/>
      <point x="471" y="779"/>
      <point x="480" y="832" type="curve"/>
      <point x="464" y="837" type="line"/>
      <point x="450" y="789"/>
      <point x="428" y="764"/>
      <point x="392" y="764" type="curve" smooth="yes"/>
      <point x="362" y="764"/>
      <point x="346" y="779"/>
      <point x="325" y="802" type="curve" smooth="yes"/>
      <point x="306" y="824"/>
      <point x="281" y="845"/>
      <point x="243" y="845" type="curve" smooth="yes"/>
      <point x="194" y="845"/>
      <point x="161" y="807"/>
    </contour>
  </outline>
</glyph>
<glyph name="Egrave" format="1">
  <advance width="601"/>
  <unicode hex="00C8"/>
  <outline>
    <contour>
      <point x="175" y="650" type="line"/>
      <point x="182" y="650" type="line"/>
      <point x="182" y="677" type="line"/>
      <point x="58" y="677" type="line"/>
      <point x="58" y="657" type="line"/>
    </contour>
    <contour>
      <point x="175" y="27" type="line"/>
      <point x="58" y="20" type="line"/>
      <point x="58" y="0" type="line"/>
      <point x="182" y="0" type="line"/>
      <point x="182" y="27" type="line"/>
    </contour>
    <contour>
      <point x="167" y="310" type="line" smooth="yes"/>
      <point x="167" y="206"/>
      <point x="167" y="102"/>
      <point x="165" y="0" type="curve"/>
      <point x="199" y="0" type="line"/>
      <point x="197" y="102"/>
      <point x="197" y="206"/>
      <point x="197" y="340" type="curve" smooth="yes"/>
      <point x="197" y="347" type="line" smooth="yes"/>
      <point x="197" y="471"/>
      <point x="197" y="575"/>
      <point x="199" y="677" type="curve"/>
      <point x="165" y="677" type="line"/>
      <point x="167" y="575"/>
      <point x="167" y="471"/>
      <point x="167" y="367" type="curve" smooth="yes"/>
    </contour>
    <contour>
      <point x="394" y="332" type="line"/>
      <point x="404" y="234" type="line"/>
      <point x="423" y="234" type="line"/>
      <point x="423" y="450" type="line"/>
      <point x="404" y="450" type="line"/>
      <point x="394" y="352" type="line"/>
    </contour>
    <contour>
      <point x="403" y="353" type="line"/>
      <point x="182" y="353" type="line"/>
      <point x="182" y="331" type="line"/>
      <point x="403" y="331" type="line"/>
    </contour>
    <contour>
      <point x="518" y="524" type="line"/>
      <point x="542" y="524" type="line"/>
      <point x="532" y="677" type="line"/>
      <point x="182" y="677" type="line"/>
      <point x="182" y="655" type="line"/>
      <point x="502" y="655" type="line"/>
    </contour>
    <contour>
      <point x="532" y="153" type="line"/>
      <point x="516" y="22" type="line"/>
      <point x="182" y="22" type="line"/>
      <point x="182" y="0" type="line"/>
      <point x="546" y="0" type="line"/>
      <point x="556" y="153" type="line"/>
    </contour>
    <contour>
      <point x="354" y="741" type="line"/>
      <point x="318" y="771"/>
      <point x="282" y="802"/>
      <point x="251" y="828" type="curve" smooth="yes"/>
      <point x="223" y="852"/>
      <point x="214" y="859"/>
      <point x="204" y="859" type="curve" smooth="yes"/>
      <point x="194" y="859"/>
      <point x="186" y="852"/>
      <point x="186" y="842" type="curve" smooth="yes"/>
      <point x="186" y="830"/>
      <point x="199" y="823"/>
      <point x="232" y="801" type="curve" smooth="yes"/>
      <point x="268" y="778"/>
      <point x="307" y="753"/>
      <point x="346" y="730" type="curve"/>
    </contour>
  </outline>
</glyph>
<glyph name="Edieresis" format="1">
  <advance width="601"/>
  <unicode hex="00CB"/>
  <outline>
    <contour>
      <point x="175" y="650" type="line"/>
      <point x="182" y="650" type="line"/>
      <point x="182" y="677" type="line"/>
      <point x="58" y="677" type="line"/>
      <point x="58" y="657" type="line"/>
    </contour>
    <contour>
      <point x="175" y="27" type="line"/>
      <point x="58" y="20" type="line"/>
      <point x="58" y="0" type="line"/>
      <point x="182" y="0" type="line"/>
      <point x="182" y="27" type="line"/>
    </contour>
    <contour>
      <point x="167" y="310" type="line" smooth="yes"/>
      <point x="167" y="206"/>
      <point x="167" y="102"/>
      <point x="165" y="0" type="curve"/>
      <point x="199" y="0" type="line"/>
      <point x="197" y="102"/>
      <point x="197" y="206"/>
      <point x="197" y="340" type="curve" smooth="yes"/>
      <point x="197" y="347" type="line" smooth="yes"/>
      <point x="197" y="471"/>
      <point x="197" y="575"/>
      <point x="199" y="677" type="curve"/>
      <point x="165" y="677" type="line"/>
      <point x="167" y="575"/>
      <point x="167" y="471"/>
      <point x="167" y="367" type="curve" smooth="yes"/>
    </contour>
    <contour>
      <point x="394" y="332" type="line"/>
      <point x="404" y="234" type="line"/>
      <point x="423" y="234" type="line"/>
      <point x="423" y="450" type="line"/>
      <point x="404" y="450" type="line"/>
      <point x="394" y="352" type="line"/>
    </contour>
    <contour>
      <point x="403" y="353" type="line"/>
      <point x="182" y="353" type="line"/>
      <point x="182" y="331" type="line"/>
      <point x="403" y="331" type="line"/>
    </contour>
    <contour>
      <point x="518" y="524" type="line"/>
      <point x="542" y="524" type="line"/>
      <point x="532" y="677" type="line"/>
      <point x="182" y="677" type="line"/>
      <point x="182" y="655" type="line"/>
      <point x="502" y="655" type="line"/>
    </contour>
    <contour>
      <point x="532" y="153" type="line"/>
      <point x="516" y="22" type="line"/>
      <point x="182" y="22" type="line"/>
      <point x="182" y="0" type="line"/>
      <point x="546" y="0" type="line"/>
      <point x="556" y="153" type="line"/>
    </contour>
    <contour>
      <point x="229" y="756" type="curve" smooth="yes"/>
      <point x="246" y="756"/>
      <point x="261" y="768"/>
      <point x="261" y="788" type="curve" smooth="yes"/>
      <point x="261" y="808"/>
      <point x="246" y="820"/>
      <point x="229" y="820" type="curve" smooth="yes"/>
      <point x="213" y="820"/>
      <point x="197" y="808"/>
      <point x="197" y="788" type="curve" smooth="yes"/>
      <point x="197" y="768"/>
      <point x="213" y="756"/>
    </contour>
    <contour>
      <point x="435" y="756" type="curve" smooth="yes"/>
      <point x="451" y="756"/>
      <point x="467" y="768"/>
      <point x="467" y="788" type="curve" smooth="yes"/>
      <point x="467" y="808"/>
      <point x="451" y="820"/>
      <point x="435" y="820" type="curve" smooth="yes"/>
      <point x="418" y="820"/>
      <point x="403" y="808"/>
      <point x="403" y="788" type="curve" smooth="yes"/>
      <point x="403" y="768"/>
      <point x="418" y="756"/>
    </contour>
  </outline>
</glyph>
<glyph name="Iacute" format="1">
  <advance width="364"/>
  <unicode hex="00CD"/>
  <outline>
    <contour>
      <point x="175" y="27" type="line"/>
      <point x="58" y="20" type="line"/>
      <point x="58" y="0" type="line"/>
      <point x="306" y="0" type="line"/>
      <point x="306" y="20" type="line"/>
      <point x="189" y="27" type="line"/>
    </contour>
    <contour>
      <point x="175" y="650" type="line"/>
      <point x="189" y="650" type="line"/>
      <point x="306" y="657" type="line"/>
      <point x="306" y="677" type="line"/>
      <point x="58" y="677" type="line"/>
      <point x="58" y="657" type="line"/>
    </contour>
    <contour>
      <point x="167" y="310" type="line" smooth="yes"/>
      <point x="167" y="206"/>
      <point x="167" y="102"/>
      <point x="165" y="0" type="curve"/>
      <point x="199" y="0" type="line"/>
      <point x="197" y="102"/>
      <point x="197" y="206"/>
      <point x="197" y="310" type="curve" smooth="yes"/>
      <point x="197" y="367" type="line" smooth="yes"/>
      <point x="197" y="471"/>
      <point x="197" y="575"/>
      <point x="199" y="677" type="curve"/>
      <point x="165" y="677" type="line"/>
      <point x="167" y="575"/>
      <point x="167" y="471"/>
      <point x="167" y="367" type="curve" smooth="yes"/>
    </contour>
    <contour>
      <point x="138" y="741" type="curve"/>
      <point x="146" y="730" type="line"/>
      <point x="185" y="754"/>
      <point x="224" y="779"/>
      <point x="261" y="802" type="curve" smooth="yes"/>
      <point x="294" y="822"/>
      <point x="306" y="830"/>
      <point x="306" y="842" type="curve" smooth="yes"/>
      <point x="306" y="852"/>
      <point x="298" y="859"/>
      <point x="288" y="859" type="curve" smooth="yes"/>
      <point x="278" y="859"/>
      <point x="269" y="852"/>
      <point x="241" y="829" type="curve" smooth="yes"/>
      <point x="210" y="803"/>
      <point x="174" y="772"/>
    </contour>
  </outline>
</glyph>
<glyph name="Icircumflex" format="1">
  <advance width="364"/>
  <unicode hex="00CE"/>
  <outline>
    <contour>
      <point x="175" y="27" type="line"/>
      <point x="58" y="20" type="line"/>
      <point x="58" y="0" type="line"/>
      <point x="306" y="0" type="line"/>
      <point x="306" y="20" type="line"/>
      <point x="189" y="27" type="line"/>
    </contour>
    <contour>
      <point x="175" y="650" type="line"/>
      <point x="189" y="650" type="line"/>
      <point x="306" y="657" type="line"/>
      <point x="306" y="677" type="line"/>
      <point x="58" y="677" type="line"/>
      <point x="58" y="657" type="line"/>
    </contour>
    <contour>
      <point x="167" y="310" type="line" smooth="yes"/>
      <point x="167" y="206"/>
      <point x="167" y="102"/>
      <point x="165" y="0" type="curve"/>
      <point x="199" y="0" type="line"/>
      <point x="197" y="102"/>
      <point x="197" y="206"/>
      <point x="197" y="310" type="curve" smooth="yes"/>
      <point x="197" y="367" type="line" smooth="yes"/>
      <point x="197" y="471"/>
      <point x="197" y="575"/>
      <point x="199" y="677" type="curve"/>
      <point x="165" y="677" type="line"/>
      <point x="167" y="575"/>
      <point x="167" y="471"/>
      <point x="167" y="367" type="curve" smooth="yes"/>
    </contour>
    <contour>
      <point x="189" y="842" type="line"/>
      <point x="175" y="842" type="line"/>
      <point x="45" y="730" type="line"/>
      <point x="53" y="720" type="line"/>
      <point x="191" y="811" type="line"/>
      <point x="173" y="811" type="line"/>
      <point x="311" y="720" type="line"/>
      <point x="319" y="730" type="line"/>
    </contour>
  </outline>
</glyph>
<glyph name="Odieresis" format="1">
  <advance width="706"/>
  <unicode hex="00D6"/>
  <outline>
    <contour>
      <point x="95" y="338" type="curve" smooth="yes"/>
      <point x="95" y="518"/>
      <point x="193" y="668"/>
      <point x="353" y="668" type="curve" smooth="yes"/>
      <point x="513" y="668"/>
      <point x="611" y="518"/>
      <point x="611" y="338" type="curve" smooth="yes"/>
      <point x="611" y="158"/>
      <point x="513" y="9"/>
      <point x="353" y="9" type="curve" smooth="yes"/>
      <point x="193" y="9"/>
      <point x="95" y="158"/>
    </contour>
    <contour>
      <point x="353" y="690" type="curve" smooth="yes"/>
      <point x="188" y="690"/>
      <point x="63" y="550"/>
      <point x="63" y="338" type="curve" smooth="yes"/>
      <point x="63" y="126"/>
      <point x="188" y="-13"/>
      <point x="353" y="-13" type="curve" smooth="yes"/>
      <point x="518" y="-13"/>
      <point x="643" y="126"/>
      <point x="643" y="338" type="curve" smooth="yes"/>
      <point x="643" y="550"/>
      <point x="518" y="690"/>
    </contour>
    <contour>
      <point x="251" y="756" type="curve" smooth="yes"/>
      <point x="268" y="756"/>
      <point x="283" y="768"/>
      <point x="283" y="788" type="curve" smooth="yes"/>
      <point x="283" y="808"/>
      <point x="268" y="820"/>
      <point x="251" y="820" type="curve" smooth="yes"/>
      <point x="235" y="820"/>
      <point x="219" y="808"/>
      <point x="219" y="788" type="curve" smooth="yes"/>
      <point x="219" y="768"/>
      <point x="235" y="756"/>
    </contour>
    <contour>
      <point x="457" y="756" type="curve" smooth="yes"/>
      <point x="473" y="756"/>
      <point x="489" y="768"/>
      <point x="489" y="788" type="curve" smooth="yes"/>
      <point x="489" y="808"/>
      <point x="473" y="820"/>
      <point x="457" y="820" type="curve" smooth="yes"/>
      <point x="440" y="820"/>
      <point x="425" y="808"/>
      <point x="425" y="788" type="curve" smooth="yes"/>
      <point x="425" y="768"/>
      <point x="440" y="756"/>
    </contour>
  </outline>
</glyph>
<glyph name="Ugrave" format="1">
  <advance width="737"/>
  <unicode hex="00D9"/>
  <outline>
    <contour>
      <point x="594" y="650" type="line"/>
      <point x="689" y="657" type="line"/>
      <point x="689" y="677" type="line"/>
      <point x="453" y="677" type="line"/>
      <point x="453" y="657" type="line"/>
      <point x="580" y="650" type="line"/>
    </contour>
    <contour>
      <point x="157" y="650" type="line"/>
      <point x="171" y="650" type="line"/>
      <point x="288" y="657" type="line"/>
      <point x="288" y="677" type="line"/>
      <point x="50" y="677" type="line"/>
      <point x="50" y="657" type="line"/>
    </contour>
    <contour>
      <point x="178" y="256" type="curve" smooth="yes"/>
      <point x="178" y="361" type="line" smooth="yes"/>
      <point x="178" y="469"/>
      <point x="178" y="573"/>
      <point x="180" y="677" type="curve"/>
      <point x="146" y="677" type="line"/>
      <point x="148" y="573"/>
      <point x="148" y="467"/>
      <point x="148" y="361" type="curve" smooth="yes"/>
      <point x="148" y="249" type="line" smooth="yes"/>
      <point x="148" y="61"/>
      <point x="234" y="-13"/>
      <point x="370" y="-13" type="curve" smooth="yes"/>
      <point x="528" y="-13"/>
      <point x="599" y="82"/>
      <point x="599" y="248" type="curve" smooth="yes"/>
      <point x="599" y="677" type="line"/>
      <point x="575" y="677" type="line"/>
      <point x="575" y="274" type="line" smooth="yes"/>
      <point x="575" y="87"/>
      <point x="515" y="13"/>
      <point x="370" y="13" type="curve" smooth="yes"/>
      <point x="254" y="13"/>
      <point x="178" y="80"/>
    </contour>
    <contour>
      <point x="404" y="741" type="line"/>
      <point x="368" y="771"/>
      <point x="332" y="802"/>
      <point x="301" y="828" type="curve" smooth="yes"/>
      <point x="273" y="852"/>
      <point x="264" y="859"/>
      <point x="254" y="859" type="curve" smooth="yes"/>
      <point x="244" y="859"/>
      <point x="236" y="852"/>
      <point x="236" y="842" type="curve" smooth="yes"/>
      <point x="236" y="830"/>
      <point x="249" y="823"/>
      <point x="282" y="801" type="curve" smooth="yes"/>
      <point x="318" y="778"/>
      <point x="357" y="753"/>
      <point x="396" y="730" type="curve"/>
    </contour>
  </outline>
</glyph>
<glyph name="Uacute" format="1">
  <advance width="737"/>
  <unicode hex="00DA"/>
  <outline>
    <contour>
      <point x="594" y="650" type="line"/>
      <point x="689" y="657" type="line"/>
      <point x="689" y="677" type="line"/>
      <point x="453" y="677" type="line"/>
      <point x="453" y="657" type="line"/>
      <point x="580" y="650" type="line"/>
    </contour>
    <contour>
      <point x="157" y="650" type="line"/>
      <point x="171" y="650" type="line"/>
      <point x="288" y="657" type="line"/>
      <point x="288" y="677" type="line"/>
      <point x="50" y="677" type="line"/>
      <point x="50" y="657" type="line"/>
    </contour>
    <contour>
      <point x="178" y="256" type="curve" smooth="yes"/>
      <point x="178" y="361" type="line" smooth="yes"/>
      <point x="178" y="469"/>
      <point x="178" y="573"/>
      <point x="180" y="677" type="curve"/>
      <point x="146" y="677" type="line"/>
      <point x="148" y="573"/>
      <point x="148" y="467"/>
      <point x="148" y="361" type="curve" smooth="yes"/>
      <point x="148" y="249" type="line" smooth="yes"/>
      <point x="148" y="61"/>
      <point x="234" y="-13"/>
      <point x="370" y="-13" type="curve" smooth="yes"/>
      <point x="528" y="-13"/>
      <point x="599" y="82"/>
      <point x="599" y="248" type="curve" smooth="yes"/>
      <point x="599" y="677" type="line"/>
      <point x="575" y="677" type="line"/>
      <point x="575" y="274" type="line" smooth="yes"/>
      <point x="575" y="87"/>
      <point x="515" y="13"/>
      <point x="370" y="13" type="curve" smooth="yes"/>
      <point x="254" y="13"/>
      <point x="178" y="80"/>
    </contour>
    <contour>
      <point x="336" y="741" type="curve"/>
      <point x="344" y="730" type="line"/>
      <point x="383" y="754"/>
      <point x="422" y="779"/>
      <point x="459" y="802" type="curve" smooth="yes"/>
      <point x="492" y="822"/>
      <point x="504" y="830"/>
      <point x="504" y="842" type="curve" smooth="yes"/>
      <point x="504" y="852"/>
      <point x="496" y="859"/>
      <point x="486" y="859" type="curve" smooth="yes"/>
      <point x="476" y="859"/>
      <point x="467" y="852"/>
      <point x="439" y="829" type="curve" smooth="yes"/>
      <point x="408" y="803"/>
      <point x="372" y="772"/>
    </contour>
  </outline>
</glyph>
<glyph name="atilde" format="1">
  <advance width="505"/>
  <unicode hex="00E3"/>
  <outline>
    <contour>
      <point x="57" y="104" type="curve" smooth="yes"/>
      <point x="57" y="29"/>
      <point x="109" y="-13"/>
      <point x="180" y="-13" type="curve" smooth="yes"/>
      <point x="249" y="-13"/>
      <point x="296" y="21"/>
      <point x="358" y="90" type="curve" smooth="yes"/>
      <point x="367" y="100" type="line"/>
      <point x="367" y="125" type="line"/>
      <point x="356" y="113" type="line" smooth="yes"/>
      <point x="293" y="44"/>
      <point x="245" y="13"/>
      <point x="188" y="13" type="curve" smooth="yes"/>
      <point x="126" y="13"/>
      <point x="87" y="49"/>
      <point x="87" y="110" type="curve" smooth="yes"/>
      <point x="87" y="162"/>
      <point x="126" y="201"/>
      <point x="207" y="231" type="curve" smooth="yes"/>
      <point x="258" y="250"/>
      <point x="318" y="265"/>
      <point x="369" y="277" type="curve"/>
      <point x="369" y="295" type="line"/>
      <point x="318" y="283"/>
      <point x="262" y="272"/>
      <point x="206" y="254" type="curve" smooth="yes"/>
      <point x="108" y="222"/>
      <point x="57" y="176"/>
    </contour>
    <contour>
      <point x="425" y="-13" type="curve" smooth="yes"/>
      <point x="448" y="-13"/>
      <point x="470" y="-2"/>
      <point x="486" y="14" type="curve"/>
      <point x="476" y="28" type="line"/>
      <point x="458" y="15"/>
      <point x="446" y="11"/>
      <point x="433" y="11" type="curve" smooth="yes"/>
      <point x="401" y="11"/>
      <point x="383" y="33"/>
      <point x="383" y="112" type="curve" smooth="yes"/>
      <point x="383" y="339" type="line" smooth="yes"/>
      <point x="383" y="440"/>
      <point x="333" y="483"/>
      <point x="236" y="483" type="curve" smooth="yes"/>
      <point x="152" y="483"/>
      <point x="90" y="444"/>
      <point x="69" y="370" type="curve"/>
      <point x="72" y="358"/>
      <point x="79" y="351"/>
      <point x="91" y="351" type="curve" smooth="yes"/>
      <point x="103" y="351"/>
      <point x="111" y="357"/>
      <point x="115" y="373" type="curve" smooth="yes"/>
      <point x="133" y="441" type="line"/>
      <point x="107" y="415" type="line"/>
      <point x="147" y="449"/>
      <point x="187" y="463"/>
      <point x="234" y="463" type="curve" smooth="yes"/>
      <point x="314" y="463"/>
      <point x="355" y="435"/>
      <point x="355" y="324" type="curve" smooth="yes"/>
      <point x="355" y="99" type="line"/>
      <point x="359" y="27"/>
      <point x="377" y="-13"/>
    </contour>
    <contour>
      <point x="95" y="600" type="curve"/>
      <point x="110" y="595" type="line"/>
      <point x="122" y="643"/>
      <point x="142" y="669"/>
      <point x="175" y="669" type="curve" smooth="yes"/>
      <point x="202" y="669"/>
      <point x="215" y="653"/>
      <point x="234" y="630" type="curve" smooth="yes"/>
      <point x="250" y="609"/>
      <point x="273" y="588"/>
      <point x="308" y="588" type="curve" smooth="yes"/>
      <point x="353" y="588"/>
      <point x="383" y="626"/>
      <point x="391" y="679" type="curve"/>
      <point x="376" y="684" type="line"/>
      <point x="364" y="636"/>
      <point x="344" y="611"/>
      <point x="311" y="611" type="curve" smooth="yes"/>
      <point x="284" y="611"/>
      <point x="271" y="626"/>
      <point x="252" y="649" type="curve" smooth="yes"/>
      <point x="235" y="671"/>
      <point x="211" y="692"/>
      <point x="178" y="692" type="curve" smooth="yes"/>
      <point x="133" y="692"/>
      <point x="103" y="654"/>
    </contour>
  </outline>
</glyph>
<glyph name="iacute" format="1">
  <advance width="303"/>
  <unicode hex="00ED"/>
  <outline>
    <contour>
      <point x="137" y="0" type="curve"/>
      <point x="171" y="0" type="line"/>
      <point x="169" y="45"/>
      <point x="168" y="148"/>
      <point x="168" y="210" type="curve" smooth="yes"/>
      <point x="168" y="356" type="line"/>
      <point x="170" y="472" type="line"/>
      <point x="160" y="478" type="line"/>
      <point x="44" y="466" type="line"/>
      <point x="44" y="446" type="line"/>
      <point x="137" y="446" type="line"/>
      <point x="139" y="395"/>
      <point x="140" y="329"/>
      <point x="140" y="259" type="curve" smooth="yes"/>
      <point x="140" y="210" type="line" smooth="yes"/>
      <point x="140" y="148"/>
      <point x="139" y="45"/>
    </contour>
    <contour>
      <point x="48" y="0" type="line"/>
      <point x="251" y="0" type="line"/>
      <point x="251" y="20" type="line"/>
      <point x="157" y="26" type="line"/>
      <point x="148" y="26" type="line"/>
      <point x="48" y="20" type="line"/>
    </contour>
    <contour>
      <point x="142" y="572" type="curve"/>
      <point x="153" y="563" type="line"/>
      <point x="195" y="606"/>
      <point x="236" y="650"/>
      <point x="265" y="681" type="curve" smooth="yes"/>
      <point x="285" y="702"/>
      <point x="294" y="711"/>
      <point x="294" y="721" type="curve" smooth="yes"/>
      <point x="294" y="732"/>
      <point x="286" y="738"/>
      <point x="277" y="738" type="curve" smooth="yes"/>
      <point x="267" y="738"/>
      <point x="261" y="730"/>
      <point x="244" y="707" type="curve" smooth="yes"/>
      <point x="216" y="671"/>
      <point x="179" y="621"/>
    </contour>
  </outline>
</glyph>
<glyph name="icircumflex" format="1">
  <advance width="303"/>
  <unicode hex="00EE"/>
  <outline>
    <contour>
      <point x="137" y="0" type="curve"/>
      <point x="171" y="0" type="line"/>
      <point x="169" y="45"/>
      <point x="168" y="148"/>
      <point x="168" y="210" type="curve" smooth="yes"/>
      <point x="168" y="356" type="line"/>
      <point x="170" y="472" type="line"/>
      <point x="160" y="478" type="line"/>
      <point x="44" y="466" type="line"/>
      <point x="44" y="446" type="line"/>
      <point x="137" y="446" type="line"/>
      <point x="139" y="395"/>
      <point x="140" y="329"/>
      <point x="140" y="259" type="curve" smooth="yes"/>
      <point x="140" y="210" type="line" smooth="yes"/>
      <point x="140" y="148"/>
      <point x="139" y="45"/>
    </contour>
    <contour>
      <point x="48" y="0" type="line"/>
      <point x="251" y="0" type="line"/>
      <point x="251" y="20" type="line"/>
      <point x="157" y="26" type="line"/>
      <point x="148" y="26" type="line"/>
      <point x="48" y="20" type="line"/>
    </contour>
    <contour>
      <point x="247" y="553" type="line"/>
      <point x="258" y="562" type="line"/>
      <point x="145" y="719" type="line"/>
      <point x="131" y="719" type="line"/>
      <point x="18" y="562" type="line"/>
      <point x="29" y="553" type="line"/>
      <point x="145" y="688" type="line"/>
      <point x="131" y="688" type="line"/>
    </contour>
  </outline>
</glyph>
<glyph name="ograve" format="1">
  <advance width="538"/>
  <unicode hex="00F2"/>
  <outline>
    <contour>
      <point x="269" y="-13" type="curve" smooth="yes"/>
      <point x="376" y="-13"/>
      <point x="486" y="62"/>
      <point x="486" y="233" type="curve" smooth="yes"/>
      <point x="486" y="404"/>
      <point x="376" y="483"/>
      <point x="269" y="483" type="curve" smooth="yes"/>
      <point x="162" y="483"/>
      <point x="52" y="404"/>
      <point x="52" y="233" type="curve" smooth="yes"/>
      <point x="52" y="62"/>
      <point x="162" y="-13"/>
    </contour>
    <contour>
      <point x="269" y="7" type="curve" smooth="yes"/>
      <point x="158" y="7"/>
      <point x="84" y="92"/>
      <point x="84" y="233" type="curve" smooth="yes"/>
      <point x="84" y="374"/>
      <point x="158" y="463"/>
      <point x="269" y="463" type="curve" smooth="yes"/>
      <point x="380" y="463"/>
      <point x="454" y="374"/>
      <point x="454" y="233" type="curve" smooth="yes"/>
      <point x="454" y="92"/>
      <point x="380" y="7"/>
    </contour>
    <contour>
      <point x="316" y="572" type="line"/>
      <point x="280" y="621"/>
      <point x="243" y="671"/>
      <point x="215" y="707" type="curve" smooth="yes"/>
      <point x="197" y="730"/>
      <point x="191" y="738"/>
      <point x="181" y="738" type="curve" smooth="yes"/>
      <point x="172" y="738"/>
      <point x="164" y="732"/>
      <point x="164" y="721" type="curve" smooth="yes"/>
      <point x="164" y="711"/>
      <point x="173" y="702"/>
      <point x="193" y="681" type="curve" smooth="yes"/>
      <point x="222" y="651"/>
      <point x="263" y="607"/>
      <point x="305" y="563" type="curve"/>
    </contour>
  </outline>
</glyph>
<glyph name="oacute" format="1">
  <advance width="538"/>
  <unicode hex="00F3"/>
  <outline>
    <contour>
      <point x="269" y="-13" type="curve" smooth="yes"/>
      <point x="376" y="-13"/>
      <point x="486" y="62"/>
      <point x="486" y="233" type="curve" smooth="yes"/>
      <point x="486" y="404"/>
      <point x="376" y="483"/>
      <point x="269" y="483" type="curve" smooth="yes"/>
      <point x="162" y="483"/>
      <point x="52" y="404"/>
      <point x="52" y="233" type="curve" smooth="yes"/>
      <point x="52" y="62"/>
      <point x="162" y="-13"/>
    </contour>
    <contour>
      <point x="269" y="7" type="curve" smooth="yes"/>
      <point x="158" y="7"/>
      <point x="84" y="92"/>
      <point x="84" y="233" type="curve" smooth="yes"/>
      <point x="84" y="374"/>
      <point x="158" y="463"/>
      <point x="269" y="463" type="curve" smooth="yes"/>
      <point x="380" y="463"/>
      <point x="454" y="374"/>
      <point x="454" y="233" type="curve" smooth="yes"/>
      <point x="454" y="92"/>
      <point x="380" y="7"/>
    </contour>
    <contour>
      <point x="224" y="572" type="curve"/>
      <point x="235" y="563" type="line"/>
      <point x="277" y="606"/>
      <point x="318" y="650"/>
      <point x="347" y="681" type="curve" smooth="yes"/>
      <point x="367" y="702"/>
      <point x="376" y="711"/>
      <point x="376" y="721" type="curve" smooth="yes"/>
      <point x="376" y="732"/>
      <point x="368" y="738"/>
      <point x="359" y="738" type="curve" smooth="yes"/>
      <point x="349" y="738"/>
      <point x="343" y="730"/>
      <point x="326" y="707" type="curve" smooth="yes"/>
      <point x="298" y="671"/>
      <point x="261" y="621"/>
    </contour>
  </outline>
</glyph>
<glyph name="otilde" format="1">
  <advance width="538"/>
  <unicode hex="00F5"/>
  <outline>
    <contour>
      <point x="269" y="-13" type="curve" smooth="yes"/>
      <point x="376" y="-13"/>
      <point x="486" y="62"/>
      <point x="486" y="233" type="curve" smooth="yes"/>
      <point x="486" y="404"/>
      <point x="376" y="483"/>
      <point x="269" y="483" type="curve" smooth="yes"/>
      <point x="162" y="483"/>
      <point x="52" y="404"/>
      <point x="52" y="233" type="curve" smooth="yes"/>
      <point x="52" y="62"/>
      <point x="162" y="-13"/>
    </contour>
    <contour>
      <point x="269" y="7" type="curve" smooth="yes"/>
      <point x="158" y="7"/>
      <point x="84" y="92"/>
      <point x="84" y="233" type="curve" smooth="yes"/>
      <point x="84" y="374"/>
      <point x="158" y="463"/>
      <point x="269" y="463" type="curve" smooth="yes"/>
      <point x="380" y="463"/>
      <point x="454" y="374"/>
      <point x="454" y="233" type="curve" smooth="yes"/>
      <point x="454" y="92"/>
      <point x="380" y="7"/>
    </contour>
    <contour>
      <point x="121" y="600" type="curve"/>
      <point x="136" y="595" type="line"/>
      <point x="148" y="643"/>
      <point x="168" y="669"/>
      <point x="201" y="669" type="curve" smooth="yes"/>
      <point x="228" y="669"/>
      <point x="241" y="653"/>
      <point x="260" y="630" type="curve" smooth="yes"/>
      <point x="276" y="609"/>
      <point x="299" y="588"/>
      <point x="334" y="588" type="curve" smooth="yes"/>
      <point x="379" y="588"/>
      <point x="409" y="626"/>
      <point x="417" y="679" type="curve"/>
      <point x="402" y="684" type="line"/>
      <point x="390" y="636"/>
      <point x="370" y="611"/>
      <point x="337" y="611" type="curve" smooth="yes"/>
      <point x="310" y="611"/>
      <point x="297" y="626"/>
      <point x="278" y="649" type="curve" smooth="yes"/>
      <point x="261" y="671"/>
      <point x="237" y="692"/>
      <point x="204" y="692" type="curve" smooth="yes"/>
      <point x="159" y="692"/>
      <point x="129" y="654"/>
    </contour>
  </outline>
</glyph>
<glyph name="odieresis" format="1">
  <advance width="538"/>
  <unicode hex="00F6"/>
  <outline>
    <contour>
      <point x="269" y="-13" type="curve" smooth="yes"/>
      <point x="376" y="-13"/>
      <point x="486" y="62"/>
      <point x="486" y="233" type="curve" smooth="yes"/>
      <point x="486" y="404"/>
      <point x="376" y="483"/>
      <point x="269" y="483" type="curve" smooth="yes"/>
      <point x="162" y="483"/>
      <point x="52" y="404"/>
      <point x="52" y="233" type="curve" smooth="yes"/>
      <point x="52" y="62"/>
      <point x="162" y="-13"/>
    </contour>
    <contour>
      <point x="269" y="7" type="curve" smooth="yes"/>
      <point x="158" y="7"/>
      <point x="84" y="92"/>
      <point x="84" y="233" type="curve" smooth="yes"/>
      <point x="84" y="374"/>
      <point x="158" y="463"/>
      <point x="269" y="463" type="curve" smooth="yes"/>
      <point x="380" y="463"/>
      <point x="454" y="374"/>
      <point x="454" y="233" type="curve" smooth="yes"/>
      <point x="454" y="92"/>
      <point x="380" y="7"/>
    </contour>
    <contour>
      <point x="363" y="644" type="curve" smooth="yes"/>
      <point x="378" y="644"/>
      <point x="392" y="655"/>
      <point x="392" y="674" type="curve" smooth="yes"/>
      <point x="392" y="692"/>
      <point x="378" y="703"/>
      <point x="363" y="703" type="curve" smooth="yes"/>
      <point x="348" y="703"/>
      <point x="334" y="692"/>
      <point x="334" y="674" type="curve" smooth="yes"/>
      <point x="334" y="655"/>
      <point x="348" y="644"/>
    </contour>
    <contour>
      <point x="175" y="644" type="curve" smooth="yes"/>
      <point x="190" y="644"/>
      <point x="204" y="655"/>
      <point x="204" y="674" type="curve" smooth="yes"/>
      <point x="204" y="692"/>
      <point x="190" y="703"/>
      <point x="175" y="703" type="curve" smooth="yes"/>
      <point x="160" y="703"/>
      <point x="146" y="692"/>
      <point x="146" y="674" type="curve" smooth="yes"/>
      <point x="146" y="655"/>
      <point x="160" y="644"/>
    </contour>
  </outline>
</glyph>
<glyph name="uacute" format="1">
  <advance width="604"/>
  <unicode hex="00FA"/>
  <outline>
    <contour>
      <point x="153" y="324" type="line"/>
      <point x="157" y="462" type="line"/>
      <point x="148" y="474" type="line"/>
      <point x="39" y="468" type="line"/>
      <point x="39" y="448" type="line"/>
      <point x="140" y="441" type="line"/>
      <point x="127" y="452" type="line"/>
      <point x="125" y="175" type="line" smooth="yes"/>
      <point x="124" y="33"/>
      <point x="168" y="-13"/>
      <point x="261" y="-13" type="curve" smooth="yes"/>
      <point x="344" y="-13"/>
      <point x="404" y="39"/>
      <point x="452" y="103" type="curve"/>
      <point x="446" y="122" type="line"/>
      <point x="395" y="54"/>
      <point x="333" y="15"/>
      <point x="266" y="15" type="curve" smooth="yes"/>
      <point x="194" y="15"/>
      <point x="153" y="57"/>
      <point x="153" y="178" type="curve" smooth="yes"/>
    </contour>
    <contour>
      <point x="553" y="0" type="line"/>
      <point x="553" y="20" type="line"/>
      <point x="474" y="25" type="line"/>
      <point x="474" y="324" type="line"/>
      <point x="478" y="462" type="line"/>
      <point x="469" y="474" type="line"/>
      <point x="360" y="468" type="line"/>
      <point x="360" y="447" type="line"/>
      <point x="446" y="442" type="line"/>
      <point x="446" y="110" type="line"/>
      <point x="443" y="-6" type="line"/>
    </contour>
    <contour>
      <point x="257" y="572" type="curve"/>
      <point x="268" y="563" type="line"/>
      <point x="310" y="606"/>
      <point x="351" y="650"/>
      <point x="380" y="681" type="curve" smooth="yes"/>
      <point x="400" y="702"/>
      <point x="409" y="711"/>
      <point x="409" y="721" type="curve" smooth="yes"/>
      <point x="409" y="732"/>
      <point x="401" y="738"/>
      <point x="392" y="738" type="curve" smooth="yes"/>
      <point x="382" y="738"/>
      <point x="376" y="730"/>
      <point x="359" y="707" type="curve" smooth="yes"/>
      <point x="331" y="671"/>
      <point x="294" y="621"/>
    </contour>
  </outline>
</glyph>
<glyph name="ucircumflex" format="1">
  <advance width="604"/>
  <unicode hex="00FB"/>
  <outline>
    <contour>
      <point x="153" y="324" type="line"/>
      <point x="157" y="462" type="line"/>
      <point x="148" y="474" type="line"/>
      <point x="39" y="468" type="line"/>
      <point x="39" y="448" type="line"/>
      <point x="140" y="441" type="line"/>
      <point x="127" y="452" type="line"/>
      <point x="125" y="175" type="line" smooth="yes"/>
      <point x="124" y="33"/>
      <point x="168" y="-13"/>
      <point x="261" y="-13" type="curve" smooth="yes"/>
      <point x="344" y="-13"/>
      <point x="404" y="39"/>
      <point x="452" y="103" type="curve"/>
      <point x="446" y="122" type="line"/>
      <point x="395" y="54"/>
      <point x="333" y="15"/>
      <point x="266" y="15" type="curve" smooth="yes"/>
      <point x="194" y="15"/>
      <point x="153" y="57"/>
      <point x="153" y="178" type="curve" smooth="yes"/>
    </contour>
    <contour>
      <point x="553" y="0" type="line"/>
      <point x="553" y="20" type="line"/>
      <point x="474" y="25" type="line"/>
      <point x="474" y="324" type="line"/>
      <point x="478" y="462" type="line"/>
      <point x="469" y="474" type="line"/>
      <point x="360" y="468" type="line"/>
      <point x="360" y="447" type="line"/>
      <point x="446" y="442" type="line"/>
      <point x="446" y="110" type="line"/>
      <point x="443" y="-6" type="line"/>
    </contour>
    <contour>
      <point x="406" y="553" type="line"/>
      <point x="417" y="562" type="line"/>
      <point x="304" y="719" type="line"/>
      <point x="290" y="719" type="line"/>
      <point x="177" y="562" type="line"/>
      <point x="188" y="553" type="line"/>
      <point x="304" y="688" type="line"/>
      <point x="290" y="688" type="line"/>
    </contour>
  </outline>
</glyph>
<glyph name="Abreve" format="1">
  <advance width="653"/>
  <unicode hex="0102"/>
  <outline>
    <contour>
      <point x="12" y="0" type="line"/>
      <point x="210" y="0" type="line"/>
      <point x="210" y="20" type="line"/>
      <point x="113" y="26" type="line"/>
      <point x="99" y="26" type="line"/>
      <point x="12" y="20" type="line"/>
    </contour>
    <contour>
      <point x="173" y="247" type="line"/>
      <point x="468" y="247" type="line"/>
      <point x="460" y="267" type="line"/>
      <point x="182" y="267" type="line"/>
    </contour>
    <contour>
      <point x="403" y="0" type="line"/>
      <point x="651" y="0" type="line"/>
      <point x="651" y="20" type="line"/>
      <point x="537" y="26" type="line"/>
      <point x="523" y="26" type="line"/>
      <point x="403" y="20" type="line"/>
    </contour>
    <contour>
      <point x="85" y="0" type="line"/>
      <point x="114" y="0" type="line"/>
      <point x="315" y="636" type="line"/>
      <point x="524" y="0" type="line"/>
      <point x="556" y="0" type="line"/>
      <point x="327" y="684" type="line"/>
      <point x="307" y="684" type="line"/>
    </contour>
    <contour>
      <point x="181" y="854" type="line"/>
      <point x="193" y="799"/>
      <point x="234" y="737"/>
      <point x="315" y="737" type="curve" smooth="yes"/>
      <point x="396" y="737"/>
      <point x="437" y="799"/>
      <point x="449" y="854" type="curve"/>
      <point x="434" y="859" type="line"/>
      <point x="416" y="801"/>
      <point x="378" y="764"/>
      <point x="315" y="764" type="curve" smooth="yes"/>
      <point x="252" y="764"/>
      <point x="214" y="801"/>
      <point x="196" y="859" type="curve"/>
    </contour>
  </outline>
</glyph>
<glyph name="Aogonek" format="1">
  <advance width="653"/>
  <unicode hex="0104"/>
  <outline>
    <contour>
      <point x="12" y="0" type="line"/>
      <point x="210" y="0" type="line"/>
      <point x="210" y="20" type="line"/>
      <point x="113" y="26" type="line"/>
      <point x="99" y="26" type="line"/>
      <point x="12" y="20" type="line"/>
    </contour>
    <contour>
      <point x="173" y="247" type="line"/>
      <point x="468" y="247" type="line"/>
      <point x="460" y="267" type="line"/>
      <point x="182" y="267" type="line"/>
    </contour>
    <contour>
      <point x="403" y="0" type="line"/>
      <point x="651" y="0" type="line"/>
      <point x="651" y="20" type="line"/>
      <point x="537" y="26" type="line"/>
      <point x="523" y="26" type="line"/>
      <point x="403" y="20" type="line"/>
    </contour>
    <contour>
      <point x="85" y="0" type="line"/>
      <point x="114" y="0" type="line"/>
      <point x="315" y="636" type="line"/>
      <point x="524" y="0" type="line"/>
      <point x="556" y="0" type="line"/>
      <point x="327" y="684" type="line"/>
      <point x="307" y="684" type="line"/>
    </contour>
    <contour>
      <point x="475" y="-133" type="curve" smooth="yes"/>
      <point x="475" y="-192"/>
      <point x="514" y="-223"/>
      <point x="561" y="-223" type="curve" smooth="yes"/>
      <point x="599" y="-223"/>
      <point x="629" y="-207"/>
      <point x="646" y="-183" type="curve"/>
      <point x="636" y="-173" type="line"/>
      <point x="612" y="-193"/>
      <point x="594" y="-199"/>
      <point x="570" y="-199" type="curve" smooth="yes"/>
      <point x="531" y="-199"/>
      <point x="503" y="-173"/>
      <point x="503" y="-122" type="curve" smooth="yes"/>
      <point x="503" y="-81"/>
      <point x="530" y="-29"/>
      <point x="569" y="5" type="curve"/>
      <point x="550" y="5" type="line"/>
      <point x="514" y="-26"/>
      <point x="475" y="-77"/>
    </contour>
    <contour>
      <point x="316" y="682" type="move" name="aboveUC"/>
    </contour>
  </outline>
</glyph>
<glyph name="emacron" format="1">
  <advance width="491"/>
  <unicode hex="0113"/>
  <outline>
    <contour>
      <point x="265" y="483" type="curve" smooth="yes"/>
      <point x="154" y="483"/>
      <point x="52" y="389"/>
      <point x="52" y="237" type="curve" smooth="yes"/>
      <point x="52" y="62"/>
      <point x="163" y="-13"/>
      <point x="273" y="-13" type="curve" smooth="yes"/>
      <point x="338" y="-13"/>
      <point x="401" y="16"/>
      <point x="441" y="66" type="curve"/>
      <point x="430" y="77" type="line"/>
      <point x="390" y="35"/>
      <point x="337" y="13"/>
      <point x="273" y="13" type="curve" smooth="yes"/>
      <point x="178" y="13"/>
      <point x="84" y="80"/>
      <point x="84" y="248" type="curve" smooth="yes"/>
      <point x="84" y="360"/>
      <point x="158" y="463"/>
      <point x="265" y="463" type="curve" smooth="yes"/>
      <point x="363" y="463"/>
      <point x="415" y="385"/>
      <point x="415" y="302" type="curve" smooth="yes"/>
      <point x="415" y="273"/>
      <point x="409" y="263"/>
      <point x="395" y="263" type="curve" smooth="yes"/>
      <point x="70" y="264" type="line"/>
      <point x="70" y="243" type="line"/>
      <point x="439" y="242" type="line"/>
      <point x="443" y="257"/>
      <point x="445" y="275"/>
      <point x="445" y="299" type="curve" smooth="yes"/>
      <point x="445" y="397"/>
      <point x="381" y="483"/>
    </contour>
    <contour>
      <point x="145" y="631" type="line"/>
      <point x="385" y="631" type="line"/>
      <point x="385" y="657" type="line"/>
      <point x="145" y="657" type="line"/>
    </contour>
  </outline>
</glyph>
<glyph name="Ebreve" format="1">
  <advance width="601"/>
  <unicode hex="0114"/>
  <outline>
    <contour>
      <point x="175" y="650" type="line"/>
      <point x="182" y="650" type="line"/>
      <point x="182" y="677" type="line"/>
      <point x="58" y="677" type="line"/>
      <point x="58" y="657" type="line"/>
    </contour>
    <contour>
      <point x="175" y="27" type="line"/>
      <point x="58" y="20" type="line"/>
      <point x="58" y="0" type="line"/>
      <point x="182" y="0" type="line"/>
      <point x="182" y="27" type="line"/>
    </contour>
    <contour>
      <point x="167" y="310" type="line" smooth="yes"/>
      <point x="167" y="206"/>
      <point x="167" y="102"/>
      <point x="165" y="0" type="curve"/>
      <point x="199" y="0" type="line"/>
      <point x="197" y="102"/>
      <point x="197" y="206"/>
      <point x="197" y="340" type="curve" smooth="yes"/>
      <point x="197" y="347" type="line" smooth="yes"/>
      <point x="197" y="471"/>
      <point x="197" y="575"/>
      <point x="199" y="677" type="curve"/>
      <point x="165" y="677" type="line"/>
      <point x="167" y="575"/>
      <point x="167" y="471"/>
      <point x="167" y="367" type="curve" smooth="yes"/>
    </contour>
    <contour>
      <point x="394" y="332" type="line"/>
      <point x="404" y="234" type="line"/>
      <point x="423" y="234" type="line"/>
      <point x="423" y="450" type="line"/>
      <point x="404" y="450" type="line"/>
      <point x="394" y="352" type="line"/>
    </contour>
    <contour>
      <point x="403" y="353" type="line"/>
      <point x="182" y="353" type="line"/>
      <point x="182" y="331" type="line"/>
      <point x="403" y="331" type="line"/>
    </contour>
    <contour>
      <point x="518" y="524" type="line"/>
      <point x="542" y="524" type="line"/>
      <point x="532" y="677" type="line"/>
      <point x="182" y="677" type="line"/>
      <point x="182" y="655" type="line"/>
      <point x="502" y="655" type="line"/>
    </contour>
    <contour>
      <point x="532" y="153" type="line"/>
      <point x="516" y="22" type="line"/>
      <point x="182" y="22" type="line"/>
      <point x="182" y="0" type="line"/>
      <point x="546" y="0" type="line"/>
      <point x="556" y="153" type="line"/>
    </contour>
    <contour>
      <point x="192" y="854" type="line"/>
      <point x="204" y="799"/>
      <point x="245" y="737"/>
      <point x="326" y="737" type="curve" smooth="yes"/>
      <point x="407" y="737"/>
      <point x="448" y="799"/>
      <point x="460" y="854" type="curve"/>
      <point x="445" y="859" type="line"/>
      <point x="427" y="801"/>
      <point x="389" y="764"/>
      <point x="326" y="764" type="curve" smooth="yes"/>
      <point x="263" y="764"/>
      <point x="225" y="801"/>
      <point x="207" y="859" type="curve"/>
    </contour>
  </outline>
</glyph>
<glyph name="ecaron" format="1">
  <advance width="491"/>
  <unicode hex="011B"/>
  <outline>
    <contour>
      <point x="265" y="483" type="curve" smooth="yes"/>
      <point x="154" y="483"/>
      <point x="52" y="389"/>
      <point x="52" y="237" type="curve" smooth="yes"/>
      <point x="52" y="62"/>
      <point x="163" y="-13"/>
      <point x="273" y="-13" type="curve" smooth="yes"/>
      <point x="338" y="-13"/>
      <point x="401" y="16"/>
      <point x="441" y="66" type="curve"/>
      <point x="430" y="77" type="line"/>
      <point x="390" y="35"/>
      <point x="337" y="13"/>
      <point x="273" y="13" type="curve" smooth="yes"/>
      <point x="178" y="13"/>
      <point x="84" y="80"/>
      <point x="84" y="248" type="curve" smooth="yes"/>
      <point x="84" y="360"/>
      <point x="158" y="463"/>
      <point x="265" y="463" type="curve" smooth="yes"/>
      <point x="363" y="463"/>
      <point x="415" y="385"/>
      <point x="415" y="302" type="curve" smooth="yes"/>
      <point x="415" y="273"/>
      <point x="409" y="263"/>
      <point x="395" y="263" type="curve" smooth="yes"/>
      <point x="70" y="264" type="line"/>
      <point x="70" y="243" type="line"/>
      <point x="439" y="242" type="line"/>
      <point x="443" y="257"/>
      <point x="445" y="275"/>
      <point x="445" y="299" type="curve" smooth="yes"/>
      <point x="445" y="397"/>
      <point x="381" y="483"/>
    </contour>
    <contour>
      <point x="147" y="716" type="line"/>
      <point x="137" y="706" type="line"/>
      <point x="255" y="570" type="line"/>
      <point x="275" y="570" type="line"/>
      <point x="393" y="706" type="line"/>
      <point x="383" y="716" type="line"/>
      <point x="256" y="599" type="line"/>
      <point x="274" y="599" type="line"/>
    </contour>
  </outline>
</glyph>
<glyph name="Itilde" format="1">
  <advance width="364"/>
  <unicode hex="0128"/>
  <outline>
    <contour>
      <point x="175" y="27" type="line"/>
      <point x="58" y="20" type="line"/>
      <point x="58" y="0" type="line"/>
      <point x="306" y="0" type="line"/>
      <point x="306" y="20" type="line"/>
      <point x="189" y="27" type="line"/>
    </contour>
    <contour>
      <point x="175" y="650" type="line"/>
      <point x="189" y="650" type="line"/>
      <point x="306" y="657" type="line"/>
      <point x="306" y="677" type="line"/>
      <point x="58" y="677" type="line"/>
      <point x="58" y="657" type="line"/>
    </contour>
    <contour>
      <point x="167" y="310" type="line" smooth="yes"/>
      <point x="167" y="206"/>
      <point x="167" y="102"/>
      <point x="165" y="0" type="curve"/>
      <point x="199" y="0" type="line"/>
      <point x="197" y="102"/>
      <point x="197" y="206"/>
      <point x="197" y="310" type="curve" smooth="yes"/>
      <point x="197" y="367" type="line" smooth="yes"/>
      <point x="197" y="471"/>
      <point x="197" y="575"/>
      <point x="199" y="677" type="curve"/>
      <point x="165" y="677" type="line"/>
      <point x="167" y="575"/>
      <point x="167" y="471"/>
      <point x="167" y="367" type="curve" smooth="yes"/>
    </contour>
    <contour>
      <point x="18" y="753" type="curve"/>
      <point x="34" y="748" type="line"/>
      <point x="48" y="796"/>
      <point x="70" y="822"/>
      <point x="106" y="822" type="curve" smooth="yes"/>
      <point x="136" y="822"/>
      <point x="152" y="806"/>
      <point x="173" y="783" type="curve" smooth="yes"/>
      <point x="191" y="762"/>
      <point x="215" y="741"/>
      <point x="254" y="741" type="curve" smooth="yes"/>
      <point x="304" y="741"/>
      <point x="337" y="779"/>
      <point x="346" y="832" type="curve"/>
      <point x="330" y="837" type="line"/>
      <point x="316" y="789"/>
      <point x="294" y="764"/>
      <point x="258" y="764" type="curve" smooth="yes"/>
      <point x="228" y="764"/>
      <point x="212" y="779"/>
      <point x="191" y="802" type="curve" smooth="yes"/>
      <point x="172" y="824"/>
      <point x="147" y="845"/>
      <point x="109" y="845" type="curve" smooth="yes"/>
      <point x="60" y="845"/>
      <point x="27" y="807"/>
    </contour>
  </outline>
</glyph>
<glyph name="itilde" format="1">
  <advance width="303"/>
  <unicode hex="0129"/>
  <outline>
    <contour>
      <point x="137" y="0" type="curve"/>
      <point x="171" y="0" type="line"/>
      <point x="169" y="45"/>
      <point x="168" y="148"/>
      <point x="168" y="210" type="curve" smooth="yes"/>
      <point x="168" y="356" type="line"/>
      <point x="170" y="472" type="line"/>
      <point x="160" y="478" type="line"/>
      <point x="44" y="466" type="line"/>
      <point x="44" y="446" type="line"/>
      <point x="137" y="446" type="line"/>
      <point x="139" y="395"/>
      <point x="140" y="329"/>
      <point x="140" y="259" type="curve" smooth="yes"/>
      <point x="140" y="210" type="line" smooth="yes"/>
      <point x="140" y="148"/>
      <point x="139" y="45"/>
    </contour>
    <contour>
      <point x="48" y="0" type="line"/>
      <point x="251" y="0" type="line"/>
      <point x="251" y="20" type="line"/>
      <point x="157" y="26" type="line"/>
      <point x="148" y="26" type="line"/>
      <point x="48" y="20" type="line"/>
    </contour>
    <contour>
      <point x="4" y="600" type="curve"/>
      <point x="19" y="595" type="line"/>
      <point x="31" y="643"/>
      <point x="51" y="669"/>
      <point x="84" y="669" type="curve" smooth="yes"/>
      <point x="111" y="669"/>
      <point x="124" y="653"/>
      <point x="143" y="630" type="curve" smooth="yes"/>
      <point x="159" y="609"/>
      <point x="182" y="588"/>
      <point x="217" y="588" type="curve" smooth="yes"/>
      <point x="262" y="588"/>
      <point x="292" y="626"/>
      <point x="300" y="679" type="curve"/>
      <point x="285" y="684" type="line"/>
      <point x="273" y="636"/>
      <point x="253" y="611"/>
      <point x="220" y="611" type="curve" smooth="yes"/>
      <point x="193" y="611"/>
      <point x="180" y="626"/>
      <point x="161" y="649" type="curve" smooth="yes"/>
      <point x="144" y="671"/>
      <point x="120" y="692"/>
      <point x="87" y="692" type="curve" smooth="yes"/>
      <point x="42" y="692"/>
      <point x="12" y="654"/>
    </contour>
  </outline>
</glyph>
<glyph name="iogonek" format="1">
  <advance width="303"/>
  <unicode hex="012F"/>
  <outline>
    <contour>
      <point x="147" y="645" type="curve" smooth="yes"/>
      <point x="164" y="645"/>
      <point x="179" y="657"/>
      <point x="179" y="677" type="curve" smooth="yes"/>
      <point x="179" y="697"/>
      <point x="164" y="709"/>
      <point x="147" y="709" type="curve" smooth="yes"/>
      <point x="130" y="709"/>
      <point x="115" y="697"/>
      <point x="115" y="677" type="curve" smooth="yes"/>
      <point x="115" y="657"/>
      <point x="130" y="645"/>
    </contour>
    <contour>
      <point x="171" y="0" type="line"/>
      <point x="169" y="45"/>
      <point x="168" y="148"/>
      <point x="168" y="210" type="curve" smooth="yes"/>
      <point x="168" y="356" type="line"/>
      <point x="170" y="472" type="line"/>
      <point x="160" y="478" type="line"/>
      <point x="44" y="466" type="line"/>
      <point x="44" y="446" type="line"/>
      <point x="138" y="446" type="line"/>
      <point x="140" y="384"/>
      <point x="140" y="321"/>
      <point x="140" y="259" type="curve" smooth="yes"/>
      <point x="140" y="210" type="line" smooth="yes"/>
      <point x="140" y="148"/>
      <point x="139" y="45"/>
      <point x="137" y="0" type="curve"/>
    </contour>
    <contour>
      <point x="157" y="26" type="line"/>
      <point x="148" y="26" type="line"/>
      <point x="48" y="20" type="line"/>
      <point x="48" y="0" type="line"/>
      <point x="251" y="0" type="line"/>
      <point x="251" y="20" type="line"/>
    </contour>
    <contour>
      <point x="79" y="-133" type="curve" smooth="yes"/>
      <point x="79" y="-192"/>
      <point x="118" y="-223"/>
      <point x="165" y="-223" type="curve" smooth="yes"/>
      <point x="203" y="-223"/>
      <point x="233" y="-207"/>
      <point x="250" y="-183" type="curve"/>
      <point x="240" y="-173" type="line"/>
      <point x="216" y="-193"/>
      <point x="198" y="-199"/>
      <point x="174" y="-199" type="curve" smooth="yes"/>
      <point x="135" y="-199"/>
      <point x="107" y="-173"/>
      <point x="107" y="-122" type="curve" smooth="yes"/>
      <point x="107" y="-81"/>
      <point x="134" y="-29"/>
      <point x="173" y="5" type="curve"/>
      <point x="154" y="5" type="line"/>
      <point x="118" y="-26"/>
      <point x="79" y="-77"/>
    </contour>
  </outline>
</glyph>
<glyph name="Idotaccent" format="1">
  <advance width="364"/>
  <unicode hex="0130"/>
  <outline>
    <contour>
      <point x="175" y="27" type="line"/>
      <point x="58" y="20" type="line"/>
      <point x="58" y="0" type="line"/>
      <point x="306" y="0" type="line"/>
      <point x="306" y="20" type="line"/>
      <point x="189" y="27" type="line"/>
    </contour>
    <contour>
      <point x="175" y="650" type="line"/>
      <point x="189" y="650" type="line"/>
      <point x="306" y="657" type="line"/>
      <point x="306" y="677" type="line"/>
      <point x="58" y="677" type="line"/>
      <point x="58" y="657" type="line"/>
    </contour>
    <contour>
      <point x="167" y="310" type="line" smooth="yes"/>
      <point x="167" y="206"/>
      <point x="167" y="102"/>
      <point x="165" y="0" type="curve"/>
      <point x="199" y="0" type="line"/>
      <point x="197" y="102"/>
      <point x="197" y="206"/>
      <point x="197" y="310" type="curve" smooth="yes"/>
      <point x="197" y="367" type="line" smooth="yes"/>
      <point x="197" y="471"/>
      <point x="197" y="575"/>
      <point x="199" y="677" type="curve"/>
      <point x="165" y="677" type="line"/>
      <point x="167" y="575"/>
      <point x="167" y="471"/>
      <point x="167" y="367" type="curve" smooth="yes"/>
    </contour>
    <contour>
      <point x="182" y="759" type="curve" smooth="yes"/>
      <point x="198" y="759"/>
      <point x="214" y="772"/>
      <point x="214" y="791" type="curve" smooth="yes"/>
      <point x="214" y="810"/>
      <point x="198" y="823"/>
      <point x="182" y="823" type="curve" smooth="yes"/>
      <point x="166" y="823"/>
      <point x="150" y="810"/>
      <point x="150" y="791" type="curve" smooth="yes"/>
      <point x="150" y="772"/>
      <point x="166" y="759"/>
    </contour>
  </outline>
</glyph>
<glyph name="IJ" format="1">
  <advance width="720"/>
  <unicode hex="0132"/>
  <outline>
    <contour>
      <point x="175" y="27" type="line"/>
      <point x="58" y="20" type="line"/>
      <point x="58" y="0" type="line"/>
      <point x="306" y="0" type="line"/>
      <point x="306" y="20" type="line"/>
      <point x="189" y="27" type="line"/>
    </contour>
    <contour>
      <point x="175" y="650" type="line"/>
      <point x="189" y="650" type="line"/>
      <point x="306" y="657" type="line"/>
      <point x="306" y="677" type="line"/>
      <point x="58" y="677" type="line"/>
      <point x="58" y="657" type="line"/>
    </contour>
    <contour>
      <point x="167" y="310" type="line" smooth="yes"/>
      <point x="167" y="206"/>
      <point x="167" y="102"/>
      <point x="165" y="0" type="curve"/>
      <point x="199" y="0" type="line"/>
      <point x="197" y="102"/>
      <point x="197" y="206"/>
      <point x="197" y="310" type="curve" smooth="yes"/>
      <point x="197" y="367" type="line" smooth="yes"/>
      <point x="197" y="471"/>
      <point x="197" y="575"/>
      <point x="199" y="677" type="curve"/>
      <point x="165" y="677" type="line"/>
      <point x="167" y="575"/>
      <point x="167" y="471"/>
      <point x="167" y="367" type="curve" smooth="yes"/>
    </contour>
    <contour>
      <point x="541" y="677" type="line"/>
      <point x="546" y="154"/>
      <point x="543" y="124"/>
      <point x="543" y="95" type="curve" smooth="yes"/>
      <point x="543" y="-60"/>
      <point x="470" y="-114"/>
      <point x="423" y="-128" type="curve"/>
      <point x="420" y="-135" type="line"/>
      <point x="431" y="-136" type="line"/>
      <point x="446" y="-129" type="line"/>
      <point x="429" y="-119" type="line" smooth="yes"/>
      <point x="406" y="-106"/>
      <point x="390" y="-102"/>
      <point x="371" y="-102" type="curve" smooth="yes"/>
      <point x="352" y="-102"/>
      <point x="335" y="-110"/>
      <point x="331" y="-126" type="curve"/>
      <point x="339" y="-141"/>
      <point x="358" y="-147"/>
      <point x="389" y="-147" type="curve" smooth="yes"/>
      <point x="485" y="-147"/>
      <point x="565" y="-63"/>
      <point x="571" y="74" type="curve" smooth="yes"/>
      <point x="572" y="99"/>
      <point x="574" y="124"/>
      <point x="574" y="198" type="curve" smooth="yes"/>
      <point x="574" y="362" type="line" smooth="yes"/>
      <point x="574" y="469"/>
      <point x="574" y="574"/>
      <point x="576" y="677" type="curve"/>
    </contour>
    <contour>
      <point x="424" y="657" type="line"/>
      <point x="551" y="650" type="line"/>
      <point x="565" y="650" type="line"/>
      <point x="682" y="657" type="line"/>
      <point x="682" y="677" type="line"/>
      <point x="424" y="677" type="line"/>
    </contour>
  </outline>
</glyph>
<glyph name="Kcommaaccent" format="1">
  <advance width="664"/>
  <unicode hex="0136"/>
  <outline>
    <contour>
      <point x="167" y="310" type="line" smooth="yes"/>
      <point x="167" y="206"/>
      <point x="167" y="102"/>
      <point x="165" y="0" type="curve"/>
      <point x="199" y="0" type="line"/>
      <point x="197" y="102"/>
      <point x="197" y="186"/>
      <point x="197" y="230" type="curve" smooth="yes"/>
      <point x="197" y="367" type="line" smooth="yes"/>
      <point x="197" y="471"/>
      <point x="197" y="575"/>
      <point x="199" y="677" type="curve"/>
      <point x="165" y="677" type="line"/>
      <point x="167" y="575"/>
      <point x="167" y="471"/>
      <point x="167" y="367" type="curve" smooth="yes"/>
    </contour>
    <contour>
      <point x="175" y="27" type="line"/>
      <point x="58" y="20" type="line"/>
      <point x="58" y="0" type="line"/>
      <point x="306" y="0" type="line"/>
      <point x="306" y="20" type="line"/>
      <point x="189" y="27" type="line"/>
    </contour>
    <contour>
      <point x="175" y="650" type="line"/>
      <point x="189" y="650" type="line"/>
      <point x="306" y="657" type="line"/>
      <point x="306" y="677" type="line"/>
      <point x="58" y="677" type="line"/>
      <point x="58" y="657" type="line"/>
    </contour>
    <contour>
      <point x="540" y="650" type="line"/>
      <point x="554" y="650" type="line"/>
      <point x="640" y="657" type="line"/>
      <point x="640" y="677" type="line"/>
      <point x="414" y="677" type="line"/>
      <point x="414" y="657" type="line"/>
    </contour>
    <contour>
      <point x="328" y="387" type="line"/>
      <point x="558" y="0" type="line"/>
      <point x="591" y="0" type="line"/>
      <point x="350" y="413" type="line"/>
    </contour>
    <contour>
      <point x="182" y="193" type="line"/>
      <point x="585" y="677" type="line"/>
      <point x="554" y="677" type="line"/>
      <point x="182" y="228" type="line"/>
    </contour>
    <contour>
      <point x="441" y="0" type="line"/>
      <point x="669" y="0" type="line"/>
      <point x="669" y="20" type="line"/>
      <point x="567" y="27" type="line"/>
      <point x="553" y="27" type="line"/>
      <point x="441" y="20" type="line"/>
    </contour>
    <contour>
      <point x="401" y="-104" type="curve" smooth="yes"/>
      <point x="401" y="-95"/>
      <point x="399" y="-84"/>
      <point x="396" y="-78" type="curve"/>
      <point x="388" y="-70"/>
      <point x="376" y="-67"/>
      <point x="366" y="-67" type="curve" smooth="yes"/>
      <point x="349" y="-67"/>
      <point x="335" y="-76"/>
      <point x="335" y="-96" type="curve" smooth="yes"/>
      <point x="335" y="-113"/>
      <point x="353" y="-130"/>
      <point x="380" y="-137" type="curve"/>
      <point x="375" y="-127" type="line"/>
      <point x="365" y="-164"/>
      <point x="336" y="-197"/>
      <point x="288" y="-215" type="curve"/>
      <point x="294" y="-231" type="line"/>
      <point x="351" y="-215"/>
      <point x="401" y="-165"/>
    </contour>
  </outline>
</glyph>
<glyph name="Lacute" format="1">
  <advance width="564"/>
  <unicode hex="0139"/>
  <outline>
    <contour>
      <point x="175" y="27" type="line"/>
      <point x="58" y="20" type="line"/>
      <point x="58" y="0" type="line"/>
      <point x="182" y="0" type="line"/>
      <point x="182" y="27" type="line"/>
    </contour>
    <contour>
      <point x="175" y="650" type="line"/>
      <point x="189" y="650" type="line"/>
      <point x="306" y="657" type="line"/>
      <point x="306" y="677" type="line"/>
      <point x="58" y="677" type="line"/>
      <point x="58" y="657" type="line"/>
    </contour>
    <contour>
      <point x="167" y="367" type="curve" smooth="yes"/>
      <point x="167" y="310" type="line" smooth="yes"/>
      <point x="167" y="206"/>
      <point x="167" y="102"/>
      <point x="165" y="0" type="curve"/>
      <point x="199" y="0" type="line"/>
      <point x="197" y="102"/>
      <point x="197" y="206"/>
      <point x="197" y="289" type="curve" smooth="yes"/>
      <point x="197" y="329" type="line" smooth="yes"/>
      <point x="197" y="471"/>
      <point x="197" y="575"/>
      <point x="199" y="677" type="curve"/>
      <point x="165" y="677" type="line"/>
      <point x="167" y="575"/>
      <point x="167" y="471"/>
    </contour>
    <contour>
      <point x="510" y="163" type="line"/>
      <point x="494" y="22" type="line"/>
      <point x="182" y="22" type="line"/>
      <point x="182" y="0" type="line"/>
      <point x="524" y="0" type="line"/>
      <point x="534" y="163" type="line"/>
    </contour>
    <contour>
      <point x="168" y="741" type="curve"/>
      <point x="176" y="730" type="line"/>
      <point x="215" y="754"/>
      <point x="254" y="779"/>
      <point x="291" y="802" type="curve" smooth="yes"/>
      <point x="324" y="822"/>
      <point x="336" y="830"/>
      <point x="336" y="842" type="curve" smooth="yes"/>
      <point x="336" y="852"/>
      <point x="328" y="859"/>
      <point x="318" y="859" type="curve" smooth="yes"/>
      <point x="308" y="859"/>
      <point x="299" y="852"/>
      <point x="271" y="829" type="curve" smooth="yes"/>
      <point x="240" y="803"/>
      <point x="204" y="772"/>
    </contour>
  </outline>
</glyph>
<glyph name="Lcommaaccent" format="1">
  <advance width="564"/>
  <unicode hex="013B"/>
  <outline>
    <contour>
      <point x="175" y="27" type="line"/>
      <point x="58" y="20" type="line"/>
      <point x="58" y="0" type="line"/>
      <point x="182" y="0" type="line"/>
      <point x="182" y="27" type="line"/>
    </contour>
    <contour>
      <point x="175" y="650" type="line"/>
      <point x="189" y="650" type="line"/>
      <point x="306" y="657" type="line"/>
      <point x="306" y="677" type="line"/>
      <point x="58" y="677" type="line"/>
      <point x="58" y="657" type="line"/>
    </contour>
    <contour>
      <point x="167" y="367" type="curve" smooth="yes"/>
      <point x="167" y="310" type="line" smooth="yes"/>
      <point x="167" y="206"/>
      <point x="167" y="102"/>
      <point x="165" y="0" type="curve"/>
      <point x="199" y="0" type="line"/>
      <point x="197" y="102"/>
      <point x="197" y="206"/>
      <point x="197" y="289" type="curve" smooth="yes"/>
      <point x="197" y="329" type="line" smooth="yes"/>
      <point x="197" y="471"/>
      <point x="197" y="575"/>
      <point x="199" y="677" type="curve"/>
      <point x="165" y="677" type="line"/>
      <point x="167" y="575"/>
      <point x="167" y="471"/>
    </contour>
    <contour>
      <point x="510" y="163" type="line"/>
      <point x="494" y="22" type="line"/>
      <point x="182" y="22" type="line"/>
      <point x="182" y="0" type="line"/>
      <point x="524" y="0" type="line"/>
      <point x="534" y="163" type="line"/>
    </contour>
    <contour>
      <point x="338" y="-104" type="curve" smooth="yes"/>
      <point x="338" y="-95"/>
      <point x="336" y="-84"/>
      <point x="333" y="-78" type="curve"/>
      <point x="325" y="-70"/>
      <point x="313" y="-67"/>
      <point x="303" y="-67" type="curve" smooth="yes"/>
      <point x="286" y="-67"/>
      <point x="272" y="-76"/>
      <point x="272" y="-96" type="curve" smooth="yes"/>
      <point x="272" y="-113"/>
      <point x="290" y="-130"/>
      <point x="317" y="-137" type="curve"/>
      <point x="312" y="-127" type="line"/>
      <point x="302" y="-164"/>
      <point x="273" y="-197"/>
      <point x="225" y="-215" type="curve"/>
      <point x="231" y="-231" type="line"/>
      <point x="288" y="-215"/>
      <point x="338" y="-165"/>
    </contour>
  </outline>
</glyph>
<glyph name="lcommaaccent" format="1">
  <advance width="303"/>
  <unicode hex="013C"/>
  <outline>
    <contour>
      <point x="157" y="26" type="line"/>
      <point x="148" y="26" type="line"/>
      <point x="38" y="20" type="line"/>
      <point x="38" y="0" type="line"/>
      <point x="266" y="0" type="line"/>
      <point x="266" y="20" type="line"/>
    </contour>
    <contour>
      <point x="49" y="736" type="line"/>
      <point x="49" y="716" type="line"/>
      <point x="140" y="716" type="line"/>
      <point x="140" y="210" type="line" smooth="yes"/>
      <point x="140" y="148"/>
      <point x="139" y="45"/>
      <point x="137" y="0" type="curve"/>
      <point x="171" y="0" type="line"/>
      <point x="169" y="45"/>
      <point x="168" y="148"/>
      <point x="168" y="210" type="curve" smooth="yes"/>
      <point x="168" y="598" type="line"/>
      <point x="170" y="740" type="line"/>
      <point x="156" y="748" type="line"/>
    </contour>
    <contour>
      <point x="182" y="-104" type="curve" smooth="yes"/>
      <point x="182" y="-95"/>
      <point x="180" y="-84"/>
      <point x="177" y="-78" type="curve"/>
      <point x="169" y="-70"/>
      <point x="157" y="-67"/>
      <point x="147" y="-67" type="curve" smooth="yes"/>
      <point x="130" y="-67"/>
      <point x="116" y="-76"/>
      <point x="116" y="-96" type="curve" smooth="yes"/>
      <point x="116" y="-113"/>
      <point x="134" y="-130"/>
      <point x="161" y="-137" type="curve"/>
      <point x="156" y="-127" type="line"/>
      <point x="146" y="-164"/>
      <point x="117" y="-197"/>
      <point x="69" y="-215" type="curve"/>
      <point x="75" y="-231" type="line"/>
      <point x="132" y="-215"/>
      <point x="182" y="-165"/>
    </contour>
  </outline>
</glyph>
<glyph name="lcaron" format="1">
  <advance width="313"/>
  <unicode hex="013E"/>
  <outline>
    <contour>
      <point x="157" y="26" type="line"/>
      <point x="148" y="26" type="line"/>
      <point x="38" y="20" type="line"/>
      <point x="38" y="0" type="line"/>
      <point x="266" y="0" type="line"/>
      <point x="266" y="20" type="line"/>
    </contour>
    <contour>
      <point x="49" y="736" type="line"/>
      <point x="49" y="716" type="line"/>
      <point x="140" y="716" type="line"/>
      <point x="140" y="210" type="line" smooth="yes"/>
      <point x="140" y="148"/>
      <point x="139" y="45"/>
      <point x="137" y="0" type="curve"/>
      <point x="171" y="0" type="line"/>
      <point x="169" y="45"/>
      <point x="168" y="148"/>
      <point x="168" y="210" type="curve" smooth="yes"/>
      <point x="168" y="598" type="line"/>
      <point x="170" y="740" type="line"/>
      <point x="156" y="748" type="line"/>
    </contour>
    <contour>
      <point x="283" y="754" type="curve" smooth="yes"/>
      <point x="276" y="754"/>
      <point x="270" y="752"/>
      <point x="265" y="748" type="curve"/>
      <point x="263" y="530" type="line"/>
      <point x="278" y="530" type="line"/>
      <point x="286" y="602" type="line" smooth="yes"/>
      <point x="292" y="659"/>
      <point x="299" y="704"/>
      <point x="299" y="732" type="curve" smooth="yes"/>
      <point x="299" y="747"/>
      <point x="294" y="754"/>
    </contour>
  </outline>
</glyph>
<glyph name="Lslash" format="1">
  <advance width="564"/>
  <unicode hex="0141"/>
  <outline>
    <contour>
      <point x="396" y="453" type="line"/>
      <point x="182" y="330" type="line"/>
      <point x="182" y="306" type="line"/>
      <point x="396" y="429" type="line"/>
    </contour>
    <contour>
      <point x="182" y="331" type="line"/>
      <point x="58" y="259" type="line"/>
      <point x="58" y="235" type="line"/>
      <point x="182" y="305" type="line"/>
    </contour>
    <contour>
      <point x="175" y="28" type="line"/>
      <point x="58" y="21" type="line"/>
      <point x="58" y="1" type="line"/>
      <point x="182" y="1" type="line"/>
      <point x="182" y="28" type="line"/>
    </contour>
    <contour>
      <point x="175" y="651" type="line"/>
      <point x="189" y="651" type="line"/>
      <point x="306" y="658" type="line"/>
      <point x="306" y="678" type="line"/>
      <point x="58" y="678" type="line"/>
      <point x="58" y="658" type="line"/>
    </contour>
    <contour>
      <point x="167" y="368" type="curve" smooth="yes"/>
      <point x="167" y="311" type="line" smooth="yes"/>
      <point x="167" y="207"/>
      <point x="167" y="103"/>
      <point x="165" y="1" type="curve"/>
      <point x="199" y="1" type="line"/>
      <point x="197" y="103"/>
      <point x="197" y="207"/>
      <point x="197" y="290" type="curve" smooth="yes"/>
      <point x="197" y="330" type="line" smooth="yes"/>
      <point x="197" y="472"/>
      <point x="197" y="576"/>
      <point x="199" y="678" type="curve"/>
      <point x="165" y="678" type="line"/>
      <point x="167" y="576"/>
      <point x="167" y="472"/>
    </contour>
    <contour>
      <point x="510" y="164" type="line"/>
      <point x="494" y="23" type="line"/>
      <point x="182" y="23" type="line"/>
      <point x="182" y="1" type="line"/>
      <point x="524" y="1" type="line"/>
      <point x="534" y="164" type="line"/>
    </contour>
  </outline>
</glyph>
<glyph name="lslash" format="1">
  <advance width="303"/>
  <unicode hex="0142"/>
  <outline>
    <contour>
      <point x="151" y="397" type="line"/>
      <point x="35" y="329" type="line"/>
      <point x="35" y="305" type="line"/>
      <point x="151" y="371" type="line"/>
    </contour>
    <contour>
      <point x="263" y="462" type="line"/>
      <point x="151" y="396" type="line"/>
      <point x="151" y="372" type="line"/>
      <point x="263" y="436" type="line"/>
    </contour>
    <contour>
      <point x="157" y="26" type="line"/>
      <point x="148" y="26" type="line"/>
      <point x="38" y="20" type="line"/>
      <point x="38" y="0" type="line"/>
      <point x="266" y="0" type="line"/>
      <point x="266" y="20" type="line"/>
    </contour>
    <contour>
      <point x="49" y="736" type="line"/>
      <point x="49" y="716" type="line"/>
      <point x="140" y="716" type="line"/>
      <point x="140" y="210" type="line" smooth="yes"/>
      <point x="140" y="148"/>
      <point x="139" y="45"/>
      <point x="137" y="0" type="curve"/>
      <point x="171" y="0" type="line"/>
      <point x="169" y="45"/>
      <point x="168" y="148"/>
      <point x="168" y="210" type="curve" smooth="yes"/>
      <point x="168" y="598" type="line"/>
      <point x="170" y="740" type="line"/>
      <point x="156" y="748" type="line"/>
    </contour>
  </outline>
</glyph>
<glyph name="Ncommaaccent" format="1">
  <advance width="732"/>
  <unicode hex="0145"/>
  <outline>
    <contour>
      <point x="48" y="0" type="line"/>
      <point x="276" y="0" type="line"/>
      <point x="276" y="20" type="line"/>
      <point x="159" y="27" type="line"/>
      <point x="145" y="27" type="line"/>
      <point x="48" y="20" type="line"/>
    </contour>
    <contour>
      <point x="139" y="0" type="line"/>
      <point x="163" y="0" type="line"/>
      <point x="163" y="654" type="line"/>
      <point x="139" y="654" type="line"/>
    </contour>
    <contour>
      <point x="466" y="657" type="line"/>
      <point x="583" y="650" type="line"/>
      <point x="597" y="650" type="line"/>
      <point x="694" y="657" type="line"/>
      <point x="694" y="677" type="line"/>
      <point x="466" y="677" type="line"/>
    </contour>
    <contour>
      <point x="582" y="-7" type="line"/>
      <point x="602" y="-7" type="line"/>
      <point x="602" y="677" type="line"/>
      <point x="578" y="677" type="line"/>
      <point x="578" y="48" type="line"/>
      <point x="155" y="677" type="line"/>
      <point x="38" y="677" type="line"/>
      <point x="38" y="657" type="line"/>
      <point x="137" y="653" type="line"/>
    </contour>
    <contour>
      <point x="428" y="-104" type="curve" smooth="yes"/>
      <point x="428" y="-95"/>
      <point x="426" y="-84"/>
      <point x="423" y="-78" type="curve"/>
      <point x="415" y="-70"/>
      <point x="403" y="-67"/>
      <point x="393" y="-67" type="curve" smooth="yes"/>
      <point x="376" y="-67"/>
      <point x="362" y="-76"/>
      <point x="362" y="-96" type="curve" smooth="yes"/>
      <point x="362" y="-113"/>
      <point x="380" y="-130"/>
      <point x="407" y="-137" type="curve"/>
      <point x="402" y="-127" type="line"/>
      <point x="392" y="-164"/>
      <point x="363" y="-197"/>
      <point x="315" y="-215" type="curve"/>
      <point x="321" y="-231" type="line"/>
      <point x="378" y="-215"/>
      <point x="428" y="-165"/>
    </contour>
  </outline>
</glyph>
<glyph name="obreve" format="1">
  <advance width="538"/>
  <unicode hex="014F"/>
  <outline>
    <contour>
      <point x="269" y="-13" type="curve" smooth="yes"/>
      <point x="376" y="-13"/>
      <point x="486" y="62"/>
      <point x="486" y="233" type="curve" smooth="yes"/>
      <point x="486" y="404"/>
      <point x="376" y="483"/>
      <point x="269" y="483" type="curve" smooth="yes"/>
      <point x="162" y="483"/>
      <point x="52" y="404"/>
      <point x="52" y="233" type="curve" smooth="yes"/>
      <point x="52" y="62"/>
      <point x="162" y="-13"/>
    </contour>
    <contour>
      <point x="269" y="7" type="curve" smooth="yes"/>
      <point x="158" y="7"/>
      <point x="84" y="92"/>
      <point x="84" y="233" type="curve" smooth="yes"/>
      <point x="84" y="374"/>
      <point x="158" y="463"/>
      <point x="269" y="463" type="curve" smooth="yes"/>
      <point x="380" y="463"/>
      <point x="454" y="374"/>
      <point x="454" y="233" type="curve" smooth="yes"/>
      <point x="454" y="92"/>
      <point x="380" y="7"/>
    </contour>
    <contour>
      <point x="128" y="726" type="line"/>
      <point x="140" y="643"/>
      <point x="194" y="585"/>
      <point x="269" y="585" type="curve" smooth="yes"/>
      <point x="344" y="585"/>
      <point x="398" y="643"/>
      <point x="410" y="726" type="curve"/>
      <point x="395" y="730" type="line"/>
      <point x="375" y="661"/>
      <point x="338" y="612"/>
      <point x="269" y="612" type="curve" smooth="yes"/>
      <point x="200" y="612"/>
      <point x="163" y="661"/>
      <point x="143" y="730" type="curve"/>
    </contour>
  </outline>
</glyph>
<glyph name="ohungarumlaut" format="1">
  <advance width="538"/>
  <unicode hex="0151"/>
  <outline>
    <contour>
      <point x="269" y="-13" type="curve" smooth="yes"/>
      <point x="376" y="-13"/>
      <point x="486" y="62"/>
      <point x="486" y="233" type="curve" smooth="yes"/>
      <point x="486" y="404"/>
      <point x="376" y="483"/>
      <point x="269" y="483" type="curve" smooth="yes"/>
      <point x="162" y="483"/>
      <point x="52" y="404"/>
      <point x="52" y="233" type="curve" smooth="yes"/>
      <point x="52" y="62"/>
      <point x="162" y="-13"/>
    </contour>
    <contour>
      <point x="269" y="7" type="curve" smooth="yes"/>
      <point x="158" y="7"/>
      <point x="84" y="92"/>
      <point x="84" y="233" type="curve" smooth="yes"/>
      <point x="84" y="374"/>
      <point x="158" y="463"/>
      <point x="269" y="463" type="curve" smooth="yes"/>
      <point x="380" y="463"/>
      <point x="454" y="374"/>
      <point x="454" y="233" type="curve" smooth="yes"/>
      <point x="454" y="92"/>
      <point x="380" y="7"/>
    </contour>
    <contour>
      <point x="189" y="567" type="line"/>
      <point x="203" y="560" type="line"/>
      <point x="284" y="697" type="line" smooth="yes"/>
      <point x="290" y="708"/>
      <point x="294" y="717"/>
      <point x="294" y="725" type="curve" smooth="yes"/>
      <point x="294" y="734"/>
      <point x="287" y="741"/>
      <point x="278" y="741" type="curve" smooth="yes"/>
      <point x="266" y="741"/>
      <point x="260" y="730"/>
      <point x="252" y="712" type="curve" smooth="yes"/>
    </contour>
    <contour>
      <point x="322" y="567" type="line"/>
      <point x="336" y="560" type="line"/>
      <point x="417" y="697" type="line" smooth="yes"/>
      <point x="423" y="708"/>
      <point x="427" y="717"/>
      <point x="427" y="725" type="curve" smooth="yes"/>
      <point x="427" y="734"/>
      <point x="420" y="741"/>
      <point x="411" y="741" type="curve" smooth="yes"/>
      <point x="399" y="741"/>
      <point x="393" y="730"/>
      <point x="385" y="712" type="curve" smooth="yes"/>
    </contour>
  </outline>
</glyph>
<glyph name="Sacute" format="1">
  <advance width="515"/>
  <unicode hex="015A"/>
  <outline>
    <contour>
      <point x="243" y="9" type="curve" smooth="yes"/>
      <point x="175" y="9"/>
      <point x="130" y="20"/>
      <point x="73" y="63" type="curve"/>
      <point x="73" y="47" type="line"/>
      <point x="92" y="36" type="line"/>
      <point x="79" y="167" type="line"/>
      <point x="60" y="167" type="line"/>
      <point x="55" y="41" type="line"/>
      <point x="94" y="14"/>
      <point x="164" y="-13"/>
      <point x="243" y="-13" type="curve" smooth="yes"/>
      <point x="368" y="-13"/>
      <point x="460" y="53"/>
      <point x="460" y="164" type="curve" smooth="yes"/>
      <point x="460" y="253"/>
      <point x="425" y="302"/>
      <point x="276" y="362" type="curve" smooth="yes"/>
      <point x="236" y="378" type="line" smooth="yes"/>
      <point x="157" y="410"/>
      <point x="107" y="453"/>
      <point x="107" y="531" type="curve" smooth="yes"/>
      <point x="107" y="624"/>
      <point x="176" y="668"/>
      <point x="272" y="668" type="curve" smooth="yes"/>
      <point x="329" y="668"/>
      <point x="369" y="656"/>
      <point x="412" y="626" type="curve"/>
      <point x="412" y="638" type="line"/>
      <point x="397" y="647" type="line"/>
      <point x="407" y="522" type="line"/>
      <point x="429" y="522" type="line"/>
      <point x="432" y="642" type="line"/>
      <point x="385" y="673"/>
      <point x="344" y="690"/>
      <point x="271" y="690" type="curve" smooth="yes"/>
      <point x="173" y="690"/>
      <point x="80" y="643"/>
      <point x="80" y="528" type="curve" smooth="yes"/>
      <point x="80" y="446"/>
      <point x="128" y="389"/>
      <point x="235" y="346" type="curve" smooth="yes"/>
      <point x="272" y="331" type="line" smooth="yes"/>
      <point x="400" y="279"/>
      <point x="433" y="237"/>
      <point x="433" y="163" type="curve" smooth="yes"/>
      <point x="433" y="58"/>
      <point x="353" y="9"/>
    </contour>
    <contour>
      <point x="220" y="741" type="curve"/>
      <point x="228" y="730" type="line"/>
      <point x="267" y="754"/>
      <point x="306" y="779"/>
      <point x="343" y="802" type="curve" smooth="yes"/>
      <point x="376" y="822"/>
      <point x="388" y="830"/>
      <point x="388" y="842" type="curve" smooth="yes"/>
      <point x="388" y="852"/>
      <point x="380" y="859"/>
      <point x="370" y="859" type="curve" smooth="yes"/>
      <point x="360" y="859"/>
      <point x="351" y="852"/>
      <point x="323" y="829" type="curve" smooth="yes"/>
      <point x="292" y="803"/>
      <point x="256" y="772"/>
    </contour>
  </outline>
</glyph>
<glyph name="Tcedilla" format="1">
  <advance width="594"/>
  <unicode hex="0162"/>
  <outline>
    <contour>
      <point x="290" y="27" type="line"/>
      <point x="163" y="20" type="line"/>
      <point x="163" y="0" type="line"/>
      <point x="431" y="0" type="line"/>
      <point x="431" y="20" type="line"/>
      <point x="304" y="27" type="line"/>
    </contour>
    <contour>
      <point x="282" y="310" type="line" smooth="yes"/>
      <point x="282" y="206"/>
      <point x="282" y="102"/>
      <point x="280" y="0" type="curve"/>
      <point x="314" y="0" type="line"/>
      <point x="312" y="102"/>
      <point x="312" y="206"/>
      <point x="312" y="310" type="curve" smooth="yes"/>
      <point x="312" y="367" type="line" smooth="yes"/>
      <point x="312" y="471"/>
      <point x="312" y="575"/>
      <point x="314" y="677" type="curve"/>
      <point x="280" y="677" type="line"/>
      <point x="282" y="575"/>
      <point x="282" y="471"/>
      <point x="282" y="367" type="curve" smooth="yes"/>
    </contour>
    <contour>
      <point x="545" y="655" type="line"/>
      <point x="531" y="677" type="line"/>
      <point x="550" y="514" type="line"/>
      <point x="574" y="514" type="line"/>
      <point x="564" y="677" type="line"/>
      <point x="30" y="677" type="line"/>
      <point x="20" y="514" type="line"/>
      <point x="44" y="514" type="line"/>
      <point x="63" y="677" type="line"/>
      <point x="49" y="655" type="line"/>
    </contour>
    <contour>
      <point x="276" y="-77" type="line"/>
      <point x="342" y="-77"/>
      <point x="365" y="-102"/>
      <point x="365" y="-138" type="curve" smooth="yes"/>
      <point x="365" y="-172"/>
      <point x="344" y="-195"/>
      <point x="298" y="-195" type="curve" smooth="yes"/>
      <point x="282" y="-195"/>
      <point x="264" y="-192"/>
      <point x="244" y="-188" type="curve"/>
      <point x="240" y="-203" type="line"/>
      <point x="261" y="-210"/>
      <point x="280" y="-214"/>
      <point x="302" y="-214" type="curve" smooth="yes"/>
      <point x="362" y="-214"/>
      <point x="395" y="-182"/>
      <point x="395" y="-137" type="curve" smooth="yes"/>
      <point x="395" y="-93"/>
      <point x="356" y="-60"/>
      <point x="291" y="-59" type="curve"/>
      <point x="299" y="-74" type="line"/>
      <point x="309" y="0" type="line"/>
      <point x="289" y="0" type="line"/>
    </contour>
  </outline>
</glyph>
<glyph name="ubreve" format="1">
  <advance width="604"/>
  <unicode hex="016D"/>
  <outline>
    <contour>
      <point x="153" y="324" type="line"/>
      <point x="157" y="462" type="line"/>
      <point x="148" y="474" type="line"/>
      <point x="39" y="468" type="line"/>
      <point x="39" y="448" type="line"/>
      <point x="140" y="441" type="line"/>
      <point x="127" y="452" type="line"/>
      <point x="125" y="175" type="line" smooth="yes"/>
      <point x="124" y="33"/>
      <point x="168" y="-13"/>
      <point x="261" y="-13" type="curve" smooth="yes"/>
      <point x="344" y="-13"/>
      <point x="404" y="39"/>
      <point x="452" y="103" type="curve"/>
      <point x="446" y="122" type="line"/>
      <point x="395" y="54"/>
      <point x="333" y="15"/>
      <point x="266" y="15" type="curve" smooth="yes"/>
      <point x="194" y="15"/>
      <point x="153" y="57"/>
      <point x="153" y="178" type="curve" smooth="yes"/>
    </contour>
    <contour>
      <point x="553" y="0" type="line"/>
      <point x="553" y="20" type="line"/>
      <point x="474" y="25" type="line"/>
      <point x="474" y="324" type="line"/>
      <point x="478" y="462" type="line"/>
      <point x="469" y="474" type="line"/>
      <point x="360" y="468" type="line"/>
      <point x="360" y="447" type="line"/>
      <point x="446" y="442" type="line"/>
      <point x="446" y="110" type="line"/>
      <point x="443" y="-6" type="line"/>
    </contour>
    <contour>
      <point x="161" y="726" type="line"/>
      <point x="173" y="643"/>
      <point x="227" y="585"/>
      <point x="302" y="585" type="curve" smooth="yes"/>
      <point x="377" y="585"/>
      <point x="431" y="643"/>
      <point x="443" y="726" type="curve"/>
      <point x="428" y="730" type="line"/>
      <point x="408" y="661"/>
      <point x="371" y="612"/>
      <point x="302" y="612" type="curve" smooth="yes"/>
      <point x="233" y="612"/>
      <point x="196" y="661"/>
      <point x="176" y="730" type="curve"/>
    </contour>
  </outline>
</glyph>
<glyph name="uring" format="1">
  <advance width="604"/>
  <unicode hex="016F"/>
  <outline>
    <contour>
      <point x="153" y="324" type="line"/>
      <point x="157" y="462" type="line"/>
      <point x="148" y="474" type="line"/>
      <point x="39" y="468" type="line"/>
      <point x="39" y="448" type="line"/>
      <point x="140" y="441" type="line"/>
      <point x="127" y="452" type="line"/>
      <point x="125" y="175" type="line" smooth="yes"/>
      <point x="124" y="33"/>
      <point x="168" y="-13"/>
      <point x="261" y="-13" type="curve" smooth="yes"/>
      <point x="344" y="-13"/>
      <point x="404" y="39"/>
      <point x="452" y="103" type="curve"/>
      <point x="446" y="122" type="line"/>
      <point x="395" y="54"/>
      <point x="333" y="15"/>
      <point x="266" y="15" type="curve" smooth="yes"/>
      <point x="194" y="15"/>
      <point x="153" y="57"/>
      <point x="153" y="178" type="curve" smooth="yes"/>
    </contour>
    <contour>
      <point x="553" y="0" type="line"/>
      <point x="553" y="20" type="line"/>
      <point x="474" y="25" type="line"/>
      <point x="474" y="324" type="line"/>
      <point x="478" y="462" type="line"/>
      <point x="469" y="474" type="line"/>
      <point x="360" y="468" type="line"/>
      <point x="360" y="447" type="line"/>
      <point x="446" y="442" type="line"/>
      <point x="446" y="110" type="line"/>
      <point x="443" y="-6" type="line"/>
    </contour>
    <contour>
      <point x="292" y="589" type="curve" smooth="yes"/>
      <point x="255" y="589"/>
      <point x="229" y="620"/>
      <point x="229" y="656" type="curve" smooth="yes"/>
      <point x="229" y="692"/>
      <point x="255" y="723"/>
      <point x="292" y="723" type="curve" smooth="yes"/>
      <point x="329" y="723"/>
      <point x="355" y="692"/>
      <point x="355" y="656" type="curve" smooth="yes"/>
      <point x="355" y="620"/>
      <point x="329" y="589"/>
    </contour>
    <contour>
      <point x="292" y="569" type="curve" smooth="yes"/>
      <point x="336" y="569"/>
      <point x="378" y="603"/>
      <point x="378" y="656" type="curve" smooth="yes"/>
      <point x="378" y="709"/>
      <point x="336" y="743"/>
      <point x="292" y="743" type="curve" smooth="yes"/>
      <point x="248" y="743"/>
      <point x="206" y="709"/>
      <point x="206" y="656" type="curve" smooth="yes"/>
      <point x="206" y="603"/>
      <point x="248" y="569"/>
    </contour>
  </outline>
</glyph>
<glyph name="uhungarumlaut" format="1">
  <advance width="604"/>
  <unicode hex="0171"/>
  <outline>
    <contour>
      <point x="153" y="324" type="line"/>
      <point x="157" y="462" type="line"/>
      <point x="148" y="474" type="line"/>
      <point x="39" y="468" type="line"/>
      <point x="39" y="448" type="line"/>
      <point x="140" y="441" type="line"/>
      <point x="127" y="452" type="line"/>
      <point x="125" y="175" type="line" smooth="yes"/>
      <point x="124" y="33"/>
      <point x="168" y="-13"/>
      <point x="261" y="-13" type="curve" smooth="yes"/>
      <point x="344" y="-13"/>
      <point x="404" y="39"/>
      <point x="452" y="103" type="curve"/>
      <point x="446" y="122" type="line"/>
      <point x="395" y="54"/>
      <point x="333" y="15"/>
      <point x="266" y="15" type="curve" smooth="yes"/>
      <point x="194" y="15"/>
      <point x="153" y="57"/>
      <point x="153" y="178" type="curve" smooth="yes"/>
    </contour>
    <contour>
      <point x="553" y="0" type="line"/>
      <point x="553" y="20" type="line"/>
      <point x="474" y="25" type="line"/>
      <point x="474" y="324" type="line"/>
      <point x="478" y="462" type="line"/>
      <point x="469" y="474" type="line"/>
      <point x="360" y="468" type="line"/>
      <point x="360" y="447" type="line"/>
      <point x="446" y="442" type="line"/>
      <point x="446" y="110" type="line"/>
      <point x="443" y="-6" type="line"/>
    </contour>
    <contour>
      <point x="212" y="567" type="line"/>
      <point x="226" y="560" type="line"/>
      <point x="307" y="697" type="line" smooth="yes"/>
      <point x="313" y="708"/>
      <point x="317" y="717"/>
      <point x="317" y="725" type="curve" smooth="yes"/>
      <point x="317" y="734"/>
      <point x="310" y="741"/>
      <point x="301" y="741" type="curve" smooth="yes"/>
      <point x="289" y="741"/>
      <point x="283" y="730"/>
      <point x="275" y="712" type="curve" smooth="yes"/>
    </contour>
    <contour>
      <point x="345" y="567" type="line"/>
      <point x="359" y="560" type="line"/>
      <point x="440" y="697" type="line" smooth="yes"/>
      <point x="446" y="708"/>
      <point x="450" y="717"/>
      <point x="450" y="725" type="curve" smooth="yes"/>
      <point x="450" y="734"/>
      <point x="443" y="741"/>
      <point x="434" y="741" type="curve" smooth="yes"/>
      <point x="422" y="741"/>
      <point x="416" y="730"/>
      <point x="408" y="712" type="curve" smooth="yes"/>
    </contour>
  </outline>
</glyph>
<glyph name="Wcircumflex" format="1">
  <advance width="966"/>
  <unicode hex="0174"/>
  <outline>
    <contour>
      <point x="848" y="650" type="line"/>
      <point x="956" y="657" type="line"/>
      <point x="956" y="677" type="line"/>
      <point x="728" y="677" type="line"/>
      <point x="728" y="657" type="line"/>
      <point x="834" y="650" type="line"/>
    </contour>
    <contour>
      <point x="497" y="650" type="line"/>
      <point x="606" y="657" type="line"/>
      <point x="606" y="677" type="line"/>
      <point x="378" y="677" type="line"/>
      <point x="378" y="657" type="line"/>
      <point x="483" y="650" type="line"/>
    </contour>
    <contour>
      <point x="128" y="650" type="line"/>
      <point x="239" y="657" type="line"/>
      <point x="239" y="677" type="line"/>
      <point x="11" y="677" type="line"/>
      <point x="11" y="657" type="line"/>
      <point x="114" y="650" type="line"/>
    </contour>
    <contour>
      <point x="664" y="-7" type="line"/>
      <point x="684" y="-7" type="line"/>
      <point x="861" y="677" type="line"/>
      <point x="835" y="677" type="line"/>
      <point x="678" y="45" type="line"/>
      <point x="495" y="677" type="line"/>
      <point x="481" y="677" type="line"/>
      <point x="299" y="48" type="line"/>
      <point x="129" y="677" type="line"/>
      <point x="99" y="677" type="line"/>
      <point x="284" y="-7" type="line"/>
      <point x="304" y="-7" type="line"/>
      <point x="484" y="613" type="line"/>
    </contour>
    <contour>
      <point x="490" y="842" type="line"/>
      <point x="476" y="842" type="line"/>
      <point x="346" y="730" type="line"/>
      <point x="354" y="720" type="line"/>
      <point x="492" y="811" type="line"/>
      <point x="474" y="811" type="line"/>
      <point x="612" y="720" type="line"/>
      <point x="620" y="730" type="line"/>
    </contour>
  </outline>
</glyph>
<glyph name="wcircumflex" format="1">
  <advance width="764"/>
  <unicode hex="0175"/>
  <outline>
    <contour>
      <point x="382" y="444" type="line"/>
      <point x="391" y="444" type="line"/>
      <point x="480" y="450" type="line"/>
      <point x="480" y="470" type="line"/>
      <point x="297" y="470" type="line"/>
      <point x="297" y="450" type="line"/>
    </contour>
    <contour>
      <point x="85" y="444" type="line"/>
      <point x="189" y="450" type="line"/>
      <point x="189" y="470" type="line"/>
      <point x="-5" y="470" type="line"/>
      <point x="-5" y="450" type="line"/>
      <point x="76" y="444" type="line"/>
    </contour>
    <contour>
      <point x="689" y="444" type="line"/>
      <point x="759" y="450" type="line"/>
      <point x="759" y="470" type="line"/>
      <point x="576" y="470" type="line"/>
      <point x="576" y="450" type="line"/>
      <point x="680" y="444" type="line"/>
    </contour>
    <contour>
      <point x="381" y="470" type="line"/>
      <point x="230" y="43" type="line"/>
      <point x="91" y="470" type="line"/>
      <point x="58" y="470" type="line"/>
      <point x="218" y="-6" type="line"/>
      <point x="235" y="-6" type="line"/>
      <point x="386" y="431" type="line"/>
      <point x="532" y="-6" type="line"/>
      <point x="548" y="-6" type="line"/>
      <point x="701" y="470" type="line"/>
      <point x="677" y="470" type="line"/>
      <point x="544" y="43" type="line"/>
      <point x="396" y="470" type="line"/>
    </contour>
    <contour>
      <point x="492" y="553" type="line"/>
      <point x="503" y="562" type="line"/>
      <point x="390" y="719" type="line"/>
      <point x="376" y="719" type="line"/>
      <point x="263" y="562" type="line"/>
      <point x="274" y="553" type="line"/>
      <point x="390" y="688" type="line"/>
      <point x="376" y="688" type="line"/>
    </contour>
  </outline>
</glyph>
<glyph name="Zacute" format="1">
  <advance width="555"/>
  <unicode hex="0179"/>
  <outline>
    <contour>
      <point x="67" y="514" type="line"/>
      <point x="86" y="655" type="line"/>
      <point x="472" y="655" type="line"/>
      <point x="30" y="20" type="line"/>
      <point x="30" y="0" type="line"/>
      <point x="515" y="0" type="line"/>
      <point x="525" y="163" type="line"/>
      <point x="503" y="163" type="line"/>
      <point x="482" y="22" type="line"/>
      <point x="66" y="22" type="line"/>
      <point x="506" y="657" type="line"/>
      <point x="506" y="677" type="line"/>
      <point x="53" y="677" type="line"/>
      <point x="45" y="514" type="line"/>
    </contour>
    <contour>
      <point x="234" y="741" type="curve"/>
      <point x="242" y="730" type="line"/>
      <point x="281" y="754"/>
      <point x="320" y="779"/>
      <point x="357" y="802" type="curve" smooth="yes"/>
      <point x="390" y="822"/>
      <point x="402" y="830"/>
      <point x="402" y="842" type="curve" smooth="yes"/>
      <point x="402" y="852"/>
      <point x="394" y="859"/>
      <point x="384" y="859" type="curve" smooth="yes"/>
      <point x="374" y="859"/>
      <point x="365" y="852"/>
      <point x="337" y="829" type="curve" smooth="yes"/>
      <point x="306" y="803"/>
      <point x="270" y="772"/>
    </contour>
  </outline>
</glyph>
<glyph name="zacute" format="1">
  <advance width="457"/>
  <unicode hex="017A"/>
  <outline>
    <contour>
      <point x="59" y="470" type="line"/>
      <point x="53" y="345" type="line"/>
      <point x="74" y="341" type="line"/>
      <point x="92" y="450" type="line"/>
      <point x="367" y="450" type="line"/>
      <point x="54" y="20" type="line"/>
      <point x="54" y="0" type="line"/>
      <point x="411" y="0" type="line"/>
      <point x="418" y="139" type="line"/>
      <point x="397" y="139" type="line"/>
      <point x="376" y="20" type="line"/>
      <point x="87" y="20" type="line"/>
      <point x="401" y="450" type="line"/>
      <point x="401" y="470" type="line"/>
    </contour>
    <contour>
      <point x="199" y="572" type="curve"/>
      <point x="210" y="563" type="line"/>
      <point x="252" y="606"/>
      <point x="293" y="650"/>
      <point x="322" y="681" type="curve" smooth="yes"/>
      <point x="342" y="702"/>
      <point x="351" y="711"/>
      <point x="351" y="721" type="curve" smooth="yes"/>
      <point x="351" y="732"/>
      <point x="343" y="738"/>
      <point x="334" y="738" type="curve" smooth="yes"/>
      <point x="324" y="738"/>
      <point x="318" y="730"/>
      <point x="301" y="707" type="curve" smooth="yes"/>
      <point x="273" y="671"/>
      <point x="236" y="621"/>
    </contour>
  </outline>
</glyph>
<glyph name="Zdotaccent" format="1">
  <advance width="555"/>
  <unicode hex="017B"/>
  <outline>
    <contour>
      <point x="67" y="514" type="line"/>
      <point x="86" y="655" type="line"/>
      <point x="472" y="655" type="line"/>
      <point x="30" y="20" type="line"/>
      <point x="30" y="0" type="line"/>
      <point x="515" y="0" type="line"/>
      <point x="525" y="163" type="line"/>
      <point x="503" y="163" type="line"/>
      <point x="482" y="22" type="line"/>
      <point x="66" y="22" type="line"/>
      <point x="506" y="657" type="line"/>
      <point x="506" y="677" type="line"/>
      <point x="53" y="677" type="line"/>
      <point x="45" y="514" type="line"/>
    </contour>
    <contour>
      <point x="282" y="759" type="curve" smooth="yes"/>
      <point x="298" y="759"/>
      <point x="314" y="772"/>
      <point x="314" y="791" type="curve" smooth="yes"/>
      <point x="314" y="810"/>
      <point x="298" y="823"/>
      <point x="282" y="823" type="curve" smooth="yes"/>
      <point x="266" y="823"/>
      <point x="250" y="810"/>
      <point x="250" y="791" type="curve" smooth="yes"/>
      <point x="250" y="772"/>
      <point x="266" y="759"/>
    </contour>
  </outline>
</glyph>
<glyph name="ohorn" format="1">
  <advance width="538"/>
  <unicode hex="01A1"/>
  <outline>
    <contour>
      <point x="269" y="-13" type="curve" smooth="yes"/>
      <point x="376" y="-13"/>
      <point x="486" y="62"/>
      <point x="486" y="233" type="curve" smooth="yes"/>
      <point x="486" y="404"/>
      <point x="376" y="483"/>
      <point x="269" y="483" type="curve" smooth="yes"/>
      <point x="162" y="483"/>
      <point x="52" y="404"/>
      <point x="52" y="233" type="curve" smooth="yes"/>
      <point x="52" y="62"/>
      <point x="162" y="-13"/>
    </contour>
    <contour>
      <point x="269" y="7" type="curve" smooth="yes"/>
      <point x="158" y="7"/>
      <point x="84" y="92"/>
      <point x="84" y="233" type="curve" smooth="yes"/>
      <point x="84" y="374"/>
      <point x="158" y="463"/>
      <point x="269" y="463" type="curve" smooth="yes"/>
      <point x="380" y="463"/>
      <point x="454" y="374"/>
      <point x="454" y="233" type="curve" smooth="yes"/>
      <point x="454" y="92"/>
      <point x="380" y="7"/>
    </contour>
    <contour>
      <point x="405" y="401" type="line"/>
      <point x="509" y="411"/>
      <point x="538" y="476"/>
      <point x="538" y="529" type="curve" smooth="yes"/>
      <point x="538" y="560"/>
      <point x="529" y="581"/>
      <point x="522" y="592" type="curve"/>
      <point x="520" y="593"/>
      <point x="516" y="594"/>
      <point x="511" y="594" type="curve" smooth="yes"/>
      <point x="500" y="594"/>
      <point x="491" y="587"/>
      <point x="491" y="576" type="curve" smooth="yes"/>
      <point x="491" y="561"/>
      <point x="508" y="547"/>
      <point x="508" y="509" type="curve" smooth="yes"/>
      <point x="508" y="470"/>
      <point x="484" y="426"/>
      <point x="402" y="418" type="curve"/>
    </contour>
    <contour>
      <point x="269" y="500" type="move" name="aboveLC"/>
    </contour>
    <contour>
      <point x="266" y="-22" type="move" name="belowLC"/>
    </contour>
  </outline>
</glyph>
<glyph name="Icaron" format="1">
  <advance width="364"/>
  <unicode hex="01CF"/>
  <outline>
    <contour>
      <point x="175" y="27" type="line"/>
      <point x="58" y="20" type="line"/>
      <point x="58" y="0" type="line"/>
      <point x="306" y="0" type="line"/>
      <point x="306" y="20" type="line"/>
      <point x="189" y="27" type="line"/>
    </contour>
    <contour>
      <point x="175" y="650" type="line"/>
      <point x="189" y="650" type="line"/>
      <point x="306" y="657" type="line"/>
      <point x="306" y="677" type="line"/>
      <point x="58" y="677" type="line"/>
      <point x="58" y="657" type="line"/>
    </contour>
    <contour>
      <point x="167" y="310" type="line" smooth="yes"/>
      <point x="167" y="206"/>
      <point x="167" y="102"/>
      <point x="165" y="0" type="curve"/>
      <point x="199" y="0" type="line"/>
      <point x="197" y="102"/>
      <point x="197" y="206"/>
      <point x="197" y="310" type="curve" smooth="yes"/>
      <point x="197" y="367" type="line" smooth="yes"/>
      <point x="197" y="471"/>
      <point x="197" y="575"/>
      <point x="199" y="677" type="curve"/>
      <point x="165" y="677" type="line"/>
      <point x="167" y="575"/>
      <point x="167" y="471"/>
      <point x="167" y="367" type="curve" smooth="yes"/>
    </contour>
    <contour>
      <point x="72" y="865" type="line"/>
      <point x="61" y="854" type="line"/>
      <point x="172" y="740" type="line"/>
      <point x="192" y="740" type="line"/>
      <point x="303" y="854" type="line"/>
      <point x="292" y="865" type="line"/>
      <point x="173" y="764" type="line"/>
      <point x="191" y="764" type="line"/>
    </contour>
  </outline>
</glyph>
<glyph name="icaron" format="1">
  <advance width="303"/>
  <unicode hex="01D0"/>
  <outline>
    <contour>
      <point x="137" y="0" type="curve"/>
      <point x="171" y="0" type="line"/>
      <point x="169" y="45"/>
      <point x="168" y="148"/>
      <point x="168" y="210" type="curve" smooth="yes"/>
      <point x="168" y="356" type="line"/>
      <point x="170" y="472" type="line"/>
      <point x="160" y="478" type="line"/>
      <point x="44" y="466" type="line"/>
      <point x="44" y="446" type="line"/>
      <point x="137" y="446" type="line"/>
      <point x="139" y="395"/>
      <point x="140" y="329"/>
      <point x="140" y="259" type="curve" smooth="yes"/>
      <point x="140" y="210" type="line" smooth="yes"/>
      <point x="140" y="148"/>
      <point x="139" y="45"/>
    </contour>
    <contour>
      <point x="48" y="0" type="line"/>
      <point x="251" y="0" type="line"/>
      <point x="251" y="20" type="line"/>
      <point x="157" y="26" type="line"/>
      <point x="148" y="26" type="line"/>
      <point x="48" y="20" type="line"/>
    </contour>
    <contour>
      <point x="31" y="716" type="line"/>
      <point x="21" y="706" type="line"/>
      <point x="139" y="570" type="line"/>
      <point x="159" y="570" type="line"/>
      <point x="277" y="706" type="line"/>
      <point x="267" y="716" type="line"/>
      <point x="140" y="599" type="line"/>
      <point x="158" y="599" type="line"/>
    </contour>
  </outline>
</glyph>
<glyph name="ocaron" format="1">
  <advance width="538"/>
  <unicode hex="01D2"/>
  <outline>
    <contour>
      <point x="269" y="-13" type="curve" smooth="yes"/>
      <point x="376" y="-13"/>
      <point x="486" y="62"/>
      <point x="486" y="233" type="curve" smooth="yes"/>
      <point x="486" y="404"/>
      <point x="376" y="483"/>
      <point x="269" y="483" type="curve" smooth="yes"/>
      <point x="162" y="483"/>
      <point x="52" y="404"/>
      <point x="52" y="233" type="curve" smooth="yes"/>
      <point x="52" y="62"/>
      <point x="162" y="-13"/>
    </contour>
    <contour>
      <point x="269" y="7" type="curve" smooth="yes"/>
      <point x="158" y="7"/>
      <point x="84" y="92"/>
      <point x="84" y="233" type="curve" smooth="yes"/>
      <point x="84" y="374"/>
      <point x="158" y="463"/>
      <point x="269" y="463" type="curve" smooth="yes"/>
      <point x="380" y="463"/>
      <point x="454" y="374"/>
      <point x="454" y="233" type="curve" smooth="yes"/>
      <point x="454" y="92"/>
      <point x="380" y="7"/>
    </contour>
    <contour>
      <point x="151" y="716" type="line"/>
      <point x="141" y="706" type="line"/>
      <point x="259" y="570" type="line"/>
      <point x="279" y="570" type="line"/>
      <point x="397" y="706" type="line"/>
      <point x="387" y="716" type="line"/>
      <point x="260" y="599" type="line"/>
      <point x="278" y="599" type="line"/>
    </contour>
  </outline>
</glyph>
<glyph name="Udieresismacron" format="1">
  <advance width="737"/>
  <unicode hex="01D5"/>
  <outline>
    <contour>
      <point x="594" y="650" type="line"/>
      <point x="689" y="657" type="line"/>
      <point x="689" y="677" type="line"/>
      <point x="453" y="677" type="line"/>
      <point x="453" y="657" type="line"/>
      <point x="580" y="650" type="line"/>
    </contour>
    <contour>
      <point x="157" y="650" type="line"/>
      <point x="171" y="650" type="line"/>
      <point x="288" y="657" type="line"/>
      <point x="288" y="677" type="line"/>
      <point x="50" y="677" type="line"/>
      <point x="50" y="657" type="line"/>
    </contour>
    <contour>
      <point x="178" y="256" type="curve" smooth="yes"/>
      <point x="178" y="361" type="line" smooth="yes"/>
      <point x="178" y="469"/>
      <point x="178" y="573"/>
      <point x="180" y="677" type="curve"/>
      <point x="146" y="677" type="line"/>
      <point x="148" y="573"/>
      <point x="148" y="467"/>
      <point x="148" y="361" type="curve" smooth="yes"/>
      <point x="148" y="249" type="line" smooth="yes"/>
      <point x="148" y="61"/>
      <point x="234" y="-13"/>
      <point x="370" y="-13" type="curve" smooth="yes"/>
      <point x="528" y="-13"/>
      <point x="599" y="82"/>
      <point x="599" y="248" type="curve" smooth="yes"/>
      <point x="599" y="677" type="line"/>
      <point x="575" y="677" type="line"/>
      <point x="575" y="274" type="line" smooth="yes"/>
      <point x="575" y="87"/>
      <point x="515" y="13"/>
      <point x="370" y="13" type="curve" smooth="yes"/>
      <point x="254" y="13"/>
      <point x="178" y="80"/>
    </contour>
    <contour>
      <point x="272" y="756" type="curve" smooth="yes"/>
      <point x="289" y="756"/>
      <point x="304" y="768"/>
      <point x="304" y="788" type="curve" smooth="yes"/>
      <point x="304" y="808"/>
      <point x="289" y="820"/>
      <point x="272" y="820" type="curve" smooth="yes"/>
      <point x="256" y="820"/>
      <point x="240" y="808"/>
      <point x="240" y="788" type="curve" smooth="yes"/>
      <point x="240" y="768"/>
      <point x="256" y="756"/>
    </contour>
    <contour>
      <point x="478" y="756" type="curve" smooth="yes"/>
      <point x="494" y="756"/>
      <point x="510" y="768"/>
      <point x="510" y="788" type="curve" smooth="yes"/>
      <point x="510" y="808"/>
      <point x="494" y="820"/>
      <point x="478" y="820" type="curve" smooth="yes"/>
      <point x="461" y="820"/>
      <point x="446" y="808"/>
      <point x="446" y="788" type="curve" smooth="yes"/>
      <point x="446" y="768"/>
      <point x="461" y="756"/>
    </contour>
    <contour>
      <point x="229" y="901" type="line"/>
      <point x="521" y="901" type="line"/>
      <point x="521" y="927" type="line"/>
      <point x="229" y="927" type="line"/>
    </contour>
  </outline>
</glyph>
<glyph name="udieresisgrave" format="1">
  <advance width="604"/>
  <unicode hex="01DC"/>
  <outline>
    <contour>
      <point x="153" y="324" type="line"/>
      <point x="157" y="462" type="line"/>
      <point x="148" y="474" type="line"/>
      <point x="39" y="468" type="line"/>
      <point x="39" y="448" type="line"/>
      <point x="140" y="441" type="line"/>
      <point x="127" y="452" type="line"/>
      <point x="125" y="175" type="line" smooth="yes"/>
      <point x="124" y="33"/>
      <point x="168" y="-13"/>
      <point x="261" y="-13" type="curve" smooth="yes"/>
      <point x="344" y="-13"/>
      <point x="404" y="39"/>
      <point x="452" y="103" type="curve"/>
      <point x="446" y="122" type="line"/>
      <point x="395" y="54"/>
      <point x="333" y="15"/>
      <point x="266" y="15" type="curve" smooth="yes"/>
      <point x="194" y="15"/>
      <point x="153" y="57"/>
      <point x="153" y="178" type="curve" smooth="yes"/>
    </contour>
    <contour>
      <point x="553" y="0" type="line"/>
      <point x="553" y="20" type="line"/>
      <point x="474" y="25" type="line"/>
      <point x="474" y="324" type="line"/>
      <point x="478" y="462" type="line"/>
      <point x="469" y="474" type="line"/>
      <point x="360" y="468" type="line"/>
      <point x="360" y="447" type="line"/>
      <point x="446" y="442" type="line"/>
      <point x="446" y="110" type="line"/>
      <point x="443" y="-6" type="line"/>
    </contour>
    <contour>
      <point x="180" y="615" type="curve" smooth="yes"/>
      <point x="180" y="597"/>
      <point x="194" y="586"/>
      <point x="209" y="586" type="curve" smooth="yes"/>
      <point x="224" y="586"/>
      <point x="238" y="597"/>
      <point x="238" y="615" type="curve" smooth="yes"/>
      <point x="238" y="633"/>
      <point x="224" y="644"/>
      <point x="209" y="644" type="curve" smooth="yes"/>
      <point x="194" y="644"/>
      <point x="180" y="633"/>
    </contour>
    <contour>
      <point x="320" y="665" type="line"/>
      <point x="331" y="674" type="line"/>
      <point x="246" y="790" type="line" smooth="yes"/>
      <point x="239" y="800"/>
      <point x="232" y="808"/>
      <point x="222" y="808" type="curve" smooth="yes"/>
      <point x="213" y="808"/>
      <point x="205" y="802"/>
      <point x="205" y="791" type="curve" smooth="yes"/>
      <point x="205" y="781"/>
      <point x="214" y="772"/>
      <point x="221" y="765" type="curve" smooth="yes"/>
    </contour>
    <contour>
      <point x="366" y="615" type="curve" smooth="yes"/>
      <point x="366" y="597"/>
      <point x="380" y="586"/>
      <point x="395" y="586" type="curve" smooth="yes"/>
      <point x="410" y="586"/>
      <point x="424" y="597"/>
      <point x="424" y="615" type="curve" smooth="yes"/>
      <point x="424" y="633"/>
      <point x="410" y="644"/>
      <point x="395" y="644" type="curve" smooth="yes"/>
      <point x="380" y="644"/>
      <point x="366" y="633"/>
    </contour>
  </outline>
</glyph>
<glyph name="Ngrave" format="1">
  <advance width="732"/>
  <unicode hex="01F8"/>
  <outline>
    <contour>
      <point x="48" y="0" type="line"/>
      <point x="276" y="0" type="line"/>
      <point x="276" y="20" type="line"/>
      <point x="159" y="27" type="line"/>
      <point x="145" y="27" type="line"/>
      <point x="48" y="20" type="line"/>
    </contour>
    <contour>
      <point x="139" y="0" type="line"/>
      <point x="163" y="0" type="line"/>
      <point x="163" y="654" type="line"/>
      <point x="139" y="654" type="line"/>
    </contour>
    <contour>
      <point x="466" y="657" type="line"/>
      <point x="583" y="650" type="line"/>
      <point x="597" y="650" type="line"/>
      <point x="694" y="657" type="line"/>
      <point x="694" y="677" type="line"/>
      <point x="466" y="677" type="line"/>
    </contour>
    <contour>
      <point x="582" y="-7" type="line"/>
      <point x="602" y="-7" type="line"/>
      <point x="602" y="677" type="line"/>
      <point x="578" y="677" type="line"/>
      <point x="578" y="48" type="line"/>
      <point x="155" y="677" type="line"/>
      <point x="38" y="677" type="line"/>
      <point x="38" y="657" type="line"/>
      <point x="137" y="653" type="line"/>
    </contour>
    <contour>
      <point x="400" y="741" type="line"/>
      <point x="364" y="771"/>
      <point x="328" y="802"/>
      <point x="297" y="828" type="curve" smooth="yes"/>
      <point x="269" y="852"/>
      <point x="260" y="859"/>
      <point x="250" y="859" type="curve" smooth="yes"/>
      <point x="240" y="859"/>
      <point x="232" y="852"/>
      <point x="232" y="842" type="curve" smooth="yes"/>
      <point x="232" y="830"/>
      <point x="245" y="823"/>
      <point x="278" y="801" type="curve" smooth="yes"/>
      <point x="314" y="778"/>
      <point x="353" y="753"/>
      <point x="392" y="730" type="curve"/>
    </contour>
  </outline>
</glyph>
<glyph name="circumflex" format="1">
  <advance width="400"/>
  <unicode hex="02C6"/>
  <outline>
    <contour>
      <point x="309" y="553" type="line"/>
      <point x="320" y="562" type="line"/>
      <point x="207" y="719" type="line"/>
      <point x="193" y="719" type="line"/>
      <point x="80" y="562" type="line"/>
      <point x="91" y="553" type="line"/>
      <point x="207" y="688" type="line"/>
      <point x="193" y="688" type="line"/>
    </contour>
    <contour>
      <point x="200" y="500" type="move" name="_aboveLC"/>
    </contour>
    <contour>
      <point x="200" y="699" type="move" name="aboveLC"/>
    </contour>
  </outline>
</glyph>
<glyph name="macronmod" format="1">
  <advance width="400"/>
  <unicode hex="02C9"/>
  <outline>
    <contour>
      <point x="80" y="631" type="line"/>
      <point x="320" y="631" type="line"/>
      <point x="320" y="657" type="line"/>
      <point x="80" y="657" type="line"/>
    </contour>
  </outline>
</glyph>
<glyph name="dotaccent" format="1">
  <advance width="400"/>
  <unicode hex="02D9"/>
  <outline>
    <contour>
      <point x="200" y="625" type="curve" smooth="yes"/>
      <point x="216" y="625"/>
      <point x="232" y="638"/>
      <point x="232" y="657" type="curve" smooth="yes"/>
      <point x="232" y="676"/>
      <point x="216" y="689"/>
      <point x="200" y="689" type="curve" smooth="yes"/>
      <point x="184" y="689"/>
      <point x="168" y="676"/>
      <point x="168" y="657" type="curve" smooth="yes"/>
      <point x="168" y="638"/>
      <point x="184" y="625"/>
    </contour>
    <contour>
      <point x="200" y="500" type="move" name="_aboveLC"/>
    </contour>
  </outline>
</glyph>
<glyph name="dotbelowcmb" format="1">
  <unicode hex="0323"/>
  <outline>
    <contour>
      <point x="0" y="-165" type="curve" smooth="yes"/>
      <point x="16" y="-165"/>
      <point x="32" y="-152"/>
      <point x="32" y="-133" type="curve" smooth="yes"/>
      <point x="32" y="-114"/>
      <point x="16" y="-101"/>
      <point x="0" y="-101" type="curve" smooth="yes"/>
      <point x="-16" y="-101"/>
      <point x="-32" y="-114"/>
      <point x="-32" y="-133" type="curve" smooth="yes"/>
      <point x="-32" y="-152"/>
      <point x="-16" y="-165"/>
    </contour>
    <contour>
      <point x="0" y="-22" type="move" name="_belowLC"/>
    </contour>
  </outline>
</glyph>
<glyph name="lownumeralsign" format="1">
  <advance width="228"/>
  <unicode hex="0375"/>
  <outline>
    <contour>
      <point x="147" y="156" type="line"/>
      <point x="132" y="158" type="line"/>
      <point x="124" y="113"/>
      <point x="117" y="69"/>
      <point x="113" y="45" type="curve" smooth="yes"/>
      <point x="100" y="-38"/>
      <point x="95" y="-74"/>
      <point x="95" y="-96" type="curve" smooth="yes"/>
      <point x="95" y="-111"/>
      <point x="103" y="-120"/>
      <point x="115" y="-120" type="curve" smooth="yes"/>
      <point x="124" y="-120"/>
      <point x="131" y="-116"/>
      <point x="136" y="-111" type="curve"/>
    </contour>
  </outline>
</glyph>
<glyph name="questiongreek" format="1">
  <advance width="300"/>
  <unicode hex="037E"/>
  <outline>
    <contour>
      <point x="150" y="413" type="curve" smooth="yes"/>
      <point x="171" y="413"/>
      <point x="184" y="430"/>
      <point x="184" y="446" type="curve" smooth="yes"/>
      <point x="184" y="465"/>
      <point x="171" y="479"/>
      <point x="150" y="479" type="curve" smooth="yes"/>
      <point x="129" y="479"/>
      <point x="116" y="465"/>
      <point x="116" y="446" type="curve" smooth="yes"/>
      <point x="116" y="430"/>
      <point x="129" y="413"/>
    </contour>
    <contour>
      <point x="183" y="-6" type="curve" smooth="yes"/>
      <point x="183" y="18"/>
      <point x="183" y="27"/>
      <point x="178" y="42" type="curve"/>
      <point x="170" y="50"/>
      <point x="160" y="53"/>
      <point x="148" y="53" type="curve" smooth="yes"/>
      <point x="130" y="53"/>
      <point x="120" y="40"/>
      <point x="120" y="25" type="curve" smooth="yes"/>
      <point x="120" y="11"/>
      <point x="129" y="2"/>
      <point x="142" y="-9" type="curve" smooth="yes"/>
      <point x="171" y="-32" type="line"/>
      <point x="164" y="-15" type="line"/>
      <point x="158" y="-86"/>
      <point x="130" y="-145"/>
      <point x="66" y="-193" type="curve"/>
      <point x="75" y="-204" type="line"/>
      <point x="141" y="-161"/>
      <point x="183" y="-81"/>
    </contour>
  </outline>
</glyph>
<glyph name="tonos" format="1">
  <advance width="400"/>
  <unicode hex="0384"/>
  <outline>
    <contour>
      <point x="184" y="568" type="curve"/>
      <point x="199" y="563" type="line"/>
      <point x="221" y="612"/>
      <point x="240" y="660"/>
      <point x="245" y="673" type="curve" smooth="yes"/>
      <point x="262" y="720"/>
      <point x="265" y="728"/>
      <point x="265" y="738" type="curve" smooth="yes"/>
      <point x="265" y="748"/>
      <point x="259" y="755"/>
      <point x="248" y="755" type="curve" smooth="yes"/>
      <point x="239" y="755"/>
      <point x="230" y="748"/>
      <point x="213" y="686" type="curve" smooth="yes"/>
      <point x="210" y="675"/>
      <point x="197" y="621"/>
    </contour>
    <contour>
      <point x="180" y="500" type="move" name="_aboveLC"/>
    </contour>
  </outline>
</glyph>
<glyph name="dieresistonos" format="1">
  <advance width="400"/>
  <unicode hex="0385"/>
  <outline>
    <contour>
      <point x="191" y="566" type="line"/>
      <point x="211" y="614"/>
      <point x="229" y="662"/>
      <point x="234" y="675" type="curve" smooth="yes"/>
      <point x="251" y="723"/>
      <point x="254" y="731"/>
      <point x="254" y="741" type="curve" smooth="yes"/>
      <point x="254" y="751"/>
      <point x="248" y="758"/>
      <point x="237" y="758" type="curve" smooth="yes"/>
      <point x="228" y="758"/>
      <point x="220" y="751"/>
      <point x="205" y="698" type="curve" smooth="yes"/>
      <point x="200" y="679"/>
      <point x="186" y="625"/>
      <point x="173" y="571" type="curve"/>
    </contour>
    <contour>
      <point x="303" y="644" type="curve" smooth="yes"/>
      <point x="318" y="644"/>
      <point x="332" y="655"/>
      <point x="332" y="673" type="curve" smooth="yes"/>
      <point x="332" y="691"/>
      <point x="318" y="702"/>
      <point x="303" y="702" type="curve" smooth="yes"/>
      <point x="288" y="702"/>
      <point x="274" y="691"/>
      <point x="274" y="673" type="curve" smooth="yes"/>
      <point x="274" y="655"/>
      <point x="288" y="644"/>
    </contour>
    <contour>
      <point x="117" y="644" type="curve" smooth="yes"/>
      <point x="132" y="644"/>
      <point x="146" y="655"/>
      <point x="146" y="673" type="curve" smooth="yes"/>
      <point x="146" y="691"/>
      <point x="132" y="702"/>
      <point x="117" y="702" type="curve" smooth="yes"/>
      <point x="102" y="702"/>
      <point x="88" y="691"/>
      <point x="88" y="673" type="curve" smooth="yes"/>
      <point x="88" y="655"/>
      <point x="102" y="644"/>
    </contour>
    <contour>
      <point x="170" y="500" type="move" name="_aboveLC"/>
    </contour>
  </outline>
</glyph>
<glyph name="Epsilontonos" format="1">
  <advance width="665"/>
  <unicode hex="0388"/>
  <outline>
    <contour>
      <point x="239" y="650" type="line"/>
      <point x="246" y="650" type="line"/>
      <point x="246" y="677" type="line"/>
      <point x="122" y="677" type="line"/>
      <point x="122" y="657" type="line"/>
    </contour>
    <contour>
      <point x="239" y="27" type="line"/>
      <point x="122" y="20" type="line"/>
      <point x="122" y="0" type="line"/>
      <point x="246" y="0" type="line"/>
      <point x="246" y="27" type="line"/>
    </contour>
    <contour>
      <point x="231" y="310" type="line" smooth="yes"/>
      <point x="231" y="206"/>
      <point x="231" y="102"/>
      <point x="229" y="0" type="curve"/>
      <point x="263" y="0" type="line"/>
      <point x="261" y="102"/>
      <point x="261" y="206"/>
      <point x="261" y="340" type="curve" smooth="yes"/>
      <point x="261" y="347" type="line" smooth="yes"/>
      <point x="261" y="471"/>
      <point x="261" y="575"/>
      <point x="263" y="677" type="curve"/>
      <point x="229" y="677" type="line"/>
      <point x="231" y="575"/>
      <point x="231" y="471"/>
      <point x="231" y="367" type="curve" smooth="yes"/>
    </contour>
    <contour>
      <point x="458" y="332" type="line"/>
      <point x="468" y="234" type="line"/>
      <point x="487" y="234" type="line"/>
      <point x="487" y="450" type="line"/>
      <point x="468" y="450" type="line"/>
      <point x="458" y="352" type="line"/>
    </contour>
    <contour>
      <point x="467" y="353" type="line"/>
      <point x="246" y="353" type="line"/>
      <point x="246" y="331" type="line"/>
      <point x="467" y="331" type="line"/>
    </contour>
    <contour>
      <point x="582" y="524" type="line"/>
      <point x="606" y="524" type="line"/>
      <point x="596" y="677" type="line"/>
      <point x="246" y="677" type="line"/>
      <point x="246" y="655" type="line"/>
      <point x="566" y="655" type="line"/>
    </contour>
    <contour>
      <point x="596" y="153" type="line"/>
      <point x="580" y="22" type="line"/>
      <point x="246" y="22" type="line"/>
      <point x="246" y="0" type="line"/>
      <point x="610" y="0" type="line"/>
      <point x="620" y="153" type="line"/>
    </contour>
    <contour>
      <point x="-10" y="480" type="curve"/>
      <point x="4" y="476" type="line"/>
      <point x="25" y="525"/>
      <point x="46" y="572"/>
      <point x="64" y="621" type="curve" smooth="yes"/>
      <point x="68" y="632"/>
      <point x="71" y="640"/>
      <point x="71" y="650" type="curve" smooth="yes"/>
      <point x="71" y="660"/>
      <point x="65" y="667"/>
      <point x="54" y="667" type="curve" smooth="yes"/>
      <point x="45" y="667"/>
      <point x="36" y="660"/>
      <point x="21" y="605" type="curve" smooth="yes"/>
      <point x="16" y="587"/>
      <point x="3" y="533"/>
    </contour>
  </outline>
</glyph>
<glyph name="Omicrontonos" format="1">
  <advance width="753"/>
  <unicode hex="038C"/>
  <outline>
    <contour>
      <point x="142" y="338" type="curve" smooth="yes"/>
      <point x="142" y="518"/>
      <point x="240" y="668"/>
      <point x="400" y="668" type="curve" smooth="yes"/>
      <point x="560" y="668"/>
      <point x="658" y="518"/>
      <point x="658" y="338" type="curve" smooth="yes"/>
      <point x="658" y="158"/>
      <point x="560" y="9"/>
      <point x="400" y="9" type="curve" smooth="yes"/>
      <point x="240" y="9"/>
      <point x="142" y="158"/>
    </contour>
    <contour>
      <point x="400" y="690" type="curve" smooth="yes"/>
      <point x="235" y="690"/>
      <point x="110" y="550"/>
      <point x="110" y="338" type="curve" smooth="yes"/>
      <point x="110" y="126"/>
      <point x="235" y="-13"/>
      <point x="400" y="-13" type="curve" smooth="yes"/>
      <point x="565" y="-13"/>
      <point x="690" y="126"/>
      <point x="690" y="338" type="curve" smooth="yes"/>
      <point x="690" y="550"/>
      <point x="565" y="690"/>
    </contour>
    <contour>
      <point x="-10" y="480" type="curve"/>
      <point x="4" y="476" type="line"/>
      <point x="25" y="525"/>
      <point x="46" y="572"/>
      <point x="64" y="621" type="curve" smooth="yes"/>
      <point x="68" y="632"/>
      <point x="71" y="640"/>
      <point x="71" y="650" type="curve" smooth="yes"/>
      <point x="71" y="660"/>
      <point x="65" y="667"/>
      <point x="54" y="667" type="curve" smooth="yes"/>
      <point x="45" y="667"/>
      <point x="36" y="660"/>
      <point x="21" y="605" type="curve" smooth="yes"/>
      <point x="16" y="587"/>
      <point x="3" y="533"/>
    </contour>
  </outline>
</glyph>
<glyph name="Omegatonos" format="1">
  <advance width="801"/>
  <unicode hex="038F"/>
  <outline>
    <contour>
      <point x="125" y="153" type="line"/>
      <point x="101" y="153" type="line"/>
      <point x="111" y="0" type="line"/>
      <point x="380" y="0" type="line"/>
      <point x="380" y="9" type="line"/>
      <point x="344" y="28" type="line"/>
      <point x="130" y="28" type="line"/>
      <point x="144" y="0" type="line"/>
    </contour>
    <contour>
      <point x="725" y="153" type="line"/>
      <point x="706" y="0" type="line"/>
      <point x="720" y="28" type="line"/>
      <point x="506" y="28" type="line"/>
      <point x="470" y="9" type="line"/>
      <point x="470" y="0" type="line"/>
      <point x="739" y="0" type="line"/>
      <point x="749" y="153" type="line"/>
    </contour>
    <contour>
      <point x="425" y="668" type="curve" smooth="yes"/>
      <point x="561" y="668"/>
      <point x="671" y="571"/>
      <point x="671" y="394" type="curve" smooth="yes"/>
      <point x="671" y="236"/>
      <point x="605" y="127"/>
      <point x="470" y="18" type="curve"/>
      <point x="470" y="0" type="line"/>
      <point x="513" y="0" type="line"/>
      <point x="513" y="30" type="line"/>
      <point x="633" y="132"/>
      <point x="703" y="251"/>
      <point x="703" y="393" type="curve" smooth="yes"/>
      <point x="703" y="607"/>
      <point x="546" y="690"/>
      <point x="425" y="690" type="curve" smooth="yes"/>
      <point x="304" y="690"/>
      <point x="147" y="607"/>
      <point x="147" y="393" type="curve" smooth="yes"/>
      <point x="147" y="251"/>
      <point x="216" y="132"/>
      <point x="337" y="30" type="curve"/>
      <point x="337" y="0" type="line"/>
      <point x="380" y="0" type="line"/>
      <point x="380" y="18" type="line"/>
      <point x="245" y="127"/>
      <point x="179" y="236"/>
      <point x="179" y="394" type="curve" smooth="yes"/>
      <point x="179" y="571"/>
      <point x="289" y="668"/>
    </contour>
    <contour>
      <point x="-10" y="480" type="curve"/>
      <point x="4" y="476" type="line"/>
      <point x="25" y="525"/>
      <point x="46" y="572"/>
      <point x="64" y="621" type="curve" smooth="yes"/>
      <point x="68" y="632"/>
      <point x="71" y="640"/>
      <point x="71" y="650" type="curve" smooth="yes"/>
      <point x="71" y="660"/>
      <point x="65" y="667"/>
      <point x="54" y="667" type="curve" smooth="yes"/>
      <point x="45" y="667"/>
      <point x="36" y="660"/>
      <point x="21" y="605" type="curve" smooth="yes"/>
      <point x="16" y="587"/>
      <point x="3" y="533"/>
    </contour>
  </outline>
</glyph>
<glyph name="iotadieresistonos" format="1">
  <advance width="257"/>
  <unicode hex="0390"/>
  <outline>
    <contour>
      <point x="173" y="-13" type="curve" smooth="yes"/>
      <point x="199" y="-13"/>
      <point x="219" y="4"/>
      <point x="229" y="18" type="curve"/>
      <point x="223" y="31" type="line"/>
      <point x="209" y="22"/>
      <point x="199" y="15"/>
      <point x="177" y="15" type="curve" smooth="yes"/>
      <point x="146" y="15"/>
      <point x="130" y="28"/>
      <point x="130" y="90" type="curve" smooth="yes"/>
      <point x="130" y="172"/>
      <point x="135" y="253"/>
      <point x="142" y="470" type="curve"/>
      <point x="133" y="475" type="line"/>
      <point x="110" y="466" type="line"/>
      <point x="110" y="87" type="line" smooth="yes"/>
      <point x="110" y="7"/>
      <point x="137" y="-13"/>
    </contour>
    <contour>
      <point x="141" y="567" type="line"/>
      <point x="161" y="615"/>
      <point x="179" y="663"/>
      <point x="184" y="676" type="curve" smooth="yes"/>
      <point x="201" y="724"/>
      <point x="204" y="732"/>
      <point x="204" y="742" type="curve" smooth="yes"/>
      <point x="204" y="752"/>
      <point x="198" y="759"/>
      <point x="187" y="759" type="curve" smooth="yes"/>
      <point x="178" y="759"/>
      <point x="170" y="752"/>
      <point x="155" y="699" type="curve" smooth="yes"/>
      <point x="150" y="680"/>
      <point x="136" y="626"/>
      <point x="123" y="572" type="curve"/>
    </contour>
    <contour>
      <point x="253" y="645" type="curve" smooth="yes"/>
      <point x="268" y="645"/>
      <point x="282" y="656"/>
      <point x="282" y="674" type="curve" smooth="yes"/>
      <point x="282" y="692"/>
      <point x="268" y="703"/>
      <point x="253" y="703" type="curve" smooth="yes"/>
      <point x="238" y="703"/>
      <point x="224" y="692"/>
      <point x="224" y="674" type="curve" smooth="yes"/>
      <point x="224" y="656"/>
      <point x="238" y="645"/>
    </contour>
    <contour>
      <point x="67" y="645" type="curve" smooth="yes"/>
      <point x="82" y="645"/>
      <point x="96" y="656"/>
      <point x="96" y="674" type="curve" smooth="yes"/>
      <point x="96" y="692"/>
      <point x="82" y="703"/>
      <point x="67" y="703" type="curve" smooth="yes"/>
      <point x="52" y="703"/>
      <point x="38" y="692"/>
      <point x="38" y="674" type="curve" smooth="yes"/>
      <point x="38" y="656"/>
      <point x="52" y="645"/>
    </contour>
  </outline>
</glyph>
<glyph name="iotatonos" format="1">
  <advance width="257"/>
  <unicode hex="03AF"/>
  <outline>
    <contour>
      <point x="173" y="-13" type="curve" smooth="yes"/>
      <point x="199" y="-13"/>
      <point x="219" y="4"/>
      <point x="229" y="18" type="curve"/>
      <point x="223" y="31" type="line"/>
      <point x="209" y="22"/>
      <point x="199" y="15"/>
      <point x="177" y="15" type="curve" smooth="yes"/>
      <point x="146" y="15"/>
      <point x="130" y="28"/>
      <point x="130" y="90" type="curve" smooth="yes"/>
      <point x="130" y="172"/>
      <point x="135" y="253"/>
      <point x="142" y="470" type="curve"/>
      <point x="133" y="475" type="line"/>
      <point x="110" y="466" type="line"/>
      <point x="110" y="87" type="line" smooth="yes"/>
      <point x="110" y="7"/>
      <point x="137" y="-13"/>
    </contour>
    <contour>
      <point x="116" y="568" type="curve"/>
      <point x="131" y="563" type="line"/>
      <point x="153" y="612"/>
      <point x="172" y="660"/>
      <point x="177" y="673" type="curve" smooth="yes"/>
      <point x="194" y="720"/>
      <point x="197" y="728"/>
      <point x="197" y="738" type="curve" smooth="yes"/>
      <point x="197" y="748"/>
      <point x="191" y="755"/>
      <point x="180" y="755" type="curve" smooth="yes"/>
      <point x="171" y="755"/>
      <point x="162" y="748"/>
      <point x="145" y="686" type="curve" smooth="yes"/>
      <point x="142" y="675"/>
      <point x="129" y="621"/>
    </contour>
  </outline>
</glyph>
<glyph name="iotadieresis" format="1">
  <advance width="257"/>
  <unicode hex="03CA"/>
  <outline>
    <contour>
      <point x="173" y="-13" type="curve" smooth="yes"/>
      <point x="199" y="-13"/>
      <point x="219" y="4"/>
      <point x="229" y="18" type="curve"/>
      <point x="223" y="31" type="line"/>
      <point x="209" y="22"/>
      <point x="199" y="15"/>
      <point x="177" y="15" type="curve" smooth="yes"/>
      <point x="146" y="15"/>
      <point x="130" y="28"/>
      <point x="130" y="90" type="curve" smooth="yes"/>
      <point x="130" y="172"/>
      <point x="135" y="253"/>
      <point x="142" y="470" type="curve"/>
      <point x="133" y="475" type="line"/>
      <point x="110" y="466" type="line"/>
      <point x="110" y="87" type="line" smooth="yes"/>
      <point x="110" y="7"/>
      <point x="137" y="-13"/>
    </contour>
    <contour>
      <point x="220" y="644" type="curve" smooth="yes"/>
      <point x="235" y="644"/>
      <point x="249" y="655"/>
      <point x="249" y="674" type="curve" smooth="yes"/>
      <point x="249" y="692"/>
      <point x="235" y="703"/>
      <point x="220" y="703" type="curve" smooth="yes"/>
      <point x="205" y="703"/>
      <point x="191" y="692"/>
      <point x="191" y="674" type="curve" smooth="yes"/>
      <point x="191" y="655"/>
      <point x="205" y="644"/>
    </contour>
    <contour>
      <point x="32" y="644" type="curve" smooth="yes"/>
      <point x="47" y="644"/>
      <point x="61" y="655"/>
      <point x="61" y="674" type="curve" smooth="yes"/>
      <point x="61" y="692"/>
      <point x="47" y="703"/>
      <point x="32" y="703" type="curve" smooth="yes"/>
      <point x="17" y="703"/>
      <point x="3" y="692"/>
      <point x="3" y="674" type="curve" smooth="yes"/>
      <point x="3" y="655"/>
      <point x="17" y="644"/>
    </contour>
  </outline>
</glyph>
<glyph name="Gje" format="1">
  <advance width="559"/>
  <unicode hex="0403"/>
  <outline>
    <contour>
      <point x="58" y="0" type="line"/>
      <point x="316" y="0" type="line"/>
      <point x="316" y="20" type="line"/>
      <point x="189" y="27" type="line"/>
      <point x="175" y="27" type="line"/>
      <point x="58" y="20" type="line"/>
    </contour>
    <contour>
      <point x="58" y="657" type="line"/>
      <point x="175" y="650" type="line"/>
      <point x="182" y="650" type="line"/>
      <point x="182" y="677" type="line"/>
      <point x="58" y="677" type="line"/>
    </contour>
    <contour>
      <point x="165" y="0" type="curve"/>
      <point x="199" y="0" type="line"/>
      <point x="197" y="102"/>
      <point x="197" y="206"/>
      <point x="197" y="310" type="curve" smooth="yes"/>
      <point x="197" y="367" type="line" smooth="yes"/>
      <point x="197" y="471"/>
      <point x="197" y="575"/>
      <point x="199" y="677" type="curve"/>
      <point x="165" y="677" type="line"/>
      <point x="167" y="575"/>
      <point x="167" y="471"/>
      <point x="167" y="367" type="curve" smooth="yes"/>
      <point x="167" y="310" type="line" smooth="yes"/>
      <point x="167" y="206"/>
      <point x="167" y="102"/>
    </contour>
    <contour>
      <point x="182" y="655" type="line"/>
      <point x="495" y="655" type="line"/>
      <point x="481" y="677" type="line"/>
      <point x="500" y="524" type="line"/>
      <point x="524" y="524" type="line"/>
      <point x="514" y="677" type="line"/>
      <point x="182" y="677" type="line"/>
    </contour>
    <contour>
      <point x="255" y="741" type="curve"/>
      <point x="263" y="730" type="line"/>
      <point x="302" y="754"/>
      <point x="341" y="779"/>
      <point x="378" y="802" type="curve" smooth="yes"/>
      <point x="411" y="822"/>
      <point x="423" y="830"/>
      <point x="423" y="842" type="curve" smooth="yes"/>
      <point x="423" y="852"/>
      <point x="415" y="859"/>
      <point x="405" y="859" type="curve" smooth="yes"/>
      <point x="395" y="859"/>
      <point x="386" y="852"/>
      <point x="358" y="829" type="curve" smooth="yes"/>
      <point x="327" y="803"/>
      <point x="291" y="772"/>
    </contour>
  </outline>
</glyph>
<glyph name="Igravecyr" format="1">
  <advance width="800"/>
  <unicode hex="040D"/>
  <outline>
    <contour>
      <point x="58" y="0" type="line"/>
      <point x="306" y="0" type="line"/>
      <point x="306" y="20" type="line"/>
      <point x="189" y="27" type="line"/>
      <point x="175" y="27" type="line"/>
      <point x="58" y="20" type="line"/>
    </contour>
    <contour>
      <point x="58" y="657" type="line"/>
      <point x="175" y="650" type="line"/>
      <point x="189" y="650" type="line"/>
      <point x="306" y="657" type="line"/>
      <point x="306" y="677" type="line"/>
      <point x="58" y="677" type="line"/>
    </contour>
    <contour>
      <point x="165" y="0" type="curve"/>
      <point x="197" y="0" type="line"/>
      <point x="197" y="367" type="line" smooth="yes"/>
      <point x="197" y="471"/>
      <point x="197" y="575"/>
      <point x="199" y="677" type="curve"/>
      <point x="165" y="677" type="line"/>
      <point x="167" y="575"/>
      <point x="167" y="471"/>
      <point x="167" y="367" type="curve" smooth="yes"/>
      <point x="167" y="310" type="line" smooth="yes"/>
      <point x="167" y="206"/>
      <point x="167" y="102"/>
    </contour>
    <contour>
      <point x="182" y="36" type="line"/>
      <point x="619" y="603" type="line"/>
      <point x="619" y="641" type="line"/>
      <point x="182" y="73" type="line"/>
    </contour>
    <contour>
      <point x="494" y="0" type="line"/>
      <point x="742" y="0" type="line"/>
      <point x="742" y="20" type="line"/>
      <point x="626" y="27" type="line"/>
      <point x="612" y="27" type="line"/>
      <point x="494" y="20" type="line"/>
    </contour>
    <contour>
      <point x="494" y="657" type="line"/>
      <point x="612" y="650" type="line"/>
      <point x="626" y="650" type="line"/>
      <point x="742" y="657" type="line"/>
      <point x="742" y="677" type="line"/>
      <point x="494" y="677" type="line"/>
    </contour>
    <contour>
      <point x="601" y="0" type="curve"/>
      <point x="635" y="0" type="line"/>
      <point x="633" y="102"/>
      <point x="633" y="206"/>
      <point x="633" y="310" type="curve" smooth="yes"/>
      <point x="633" y="367" type="line" smooth="yes"/>
      <point x="633" y="471"/>
      <point x="633" y="575"/>
      <point x="635" y="677" type="curve"/>
      <point x="603" y="677" type="line"/>
      <point x="603" y="310" type="line" smooth="yes"/>
      <point x="603" y="206"/>
      <point x="603" y="102"/>
    </contour>
    <contour>
      <point x="414" y="741" type="line"/>
      <point x="378" y="771"/>
      <point x="342" y="802"/>
      <point x="311" y="828" type="curve" smooth="yes"/>
      <point x="283" y="852"/>
      <point x="274" y="859"/>
      <point x="264" y="859" type="curve" smooth="yes"/>
      <point x="254" y="859"/>
      <point x="246" y="852"/>
      <point x="246" y="842" type="curve" smooth="yes"/>
      <point x="246" y="830"/>
      <point x="259" y="823"/>
      <point x="292" y="801" type="curve" smooth="yes"/>
      <point x="328" y="778"/>
      <point x="367" y="753"/>
      <point x="406" y="730" type="curve"/>
    </contour>
  </outline>
</glyph>
<glyph name="Ushort" format="1">
  <advance width="547"/>
  <unicode hex="040E"/>
  <outline>
    <contour>
      <point x="4" y="657" type="line"/>
      <point x="96" y="650" type="line"/>
      <point x="110" y="650" type="line"/>
      <point x="222" y="657" type="line"/>
      <point x="222" y="677" type="line"/>
      <point x="4" y="677" type="line"/>
    </contour>
    <contour>
      <point x="290" y="163" type="line"/>
      <point x="304" y="194" type="line"/>
      <point x="106" y="677" type="line"/>
      <point x="72" y="677" type="line"/>
    </contour>
    <contour>
      <point x="88" y="22" type="curve"/>
      <point x="92" y="-3"/>
      <point x="114" y="-13"/>
      <point x="139" y="-13" type="curve" smooth="yes"/>
      <point x="206" y="-13"/>
      <point x="256" y="43"/>
      <point x="320" y="205" type="curve" smooth="yes"/>
      <point x="507" y="677" type="line"/>
      <point x="478" y="677" type="line"/>
      <point x="289" y="185" type="line"/>
      <point x="252" y="97"/>
      <point x="209" y="23"/>
      <point x="153" y="12" type="curve"/>
      <point x="168" y="-1" type="line"/>
      <point x="195" y="10" type="line"/>
      <point x="162" y="40"/>
      <point x="147" y="46"/>
      <point x="127" y="46" type="curve" smooth="yes"/>
      <point x="109" y="46"/>
      <point x="93" y="38"/>
    </contour>
    <contour>
      <point x="366" y="657" type="line"/>
      <point x="472" y="650" type="line"/>
      <point x="486" y="650" type="line"/>
      <point x="579" y="657" type="line"/>
      <point x="579" y="677" type="line"/>
      <point x="366" y="677" type="line"/>
    </contour>
    <contour>
      <point x="295" y="738" type="curve" smooth="yes"/>
      <point x="366" y="738"/>
      <point x="436" y="778"/>
      <point x="436" y="864" type="curve"/>
      <point x="431" y="877"/>
      <point x="424" y="881"/>
      <point x="416" y="881" type="curve" smooth="yes"/>
      <point x="400" y="881"/>
      <point x="393" y="867"/>
      <point x="393" y="853" type="curve" smooth="yes"/>
      <point x="393" y="829"/>
      <point x="398" y="807"/>
      <point x="401" y="787" type="curve"/>
      <point x="415" y="821" type="line"/>
      <point x="378" y="773"/>
      <point x="346" y="758"/>
      <point x="295" y="758" type="curve" smooth="yes"/>
      <point x="244" y="758"/>
      <point x="212" y="773"/>
      <point x="175" y="821" type="curve"/>
      <point x="189" y="787" type="line"/>
      <point x="192" y="807"/>
      <point x="197" y="829"/>
      <point x="197" y="853" type="curve" smooth="yes"/>
      <point x="197" y="867"/>
      <point x="190" y="881"/>
      <point x="174" y="881" type="curve" smooth="yes"/>
      <point x="166" y="881"/>
      <point x="159" y="877"/>
      <point x="154" y="864" type="curve"/>
      <point x="154" y="778"/>
      <point x="224" y="738"/>
    </contour>
  </outline>
</glyph>
<glyph name="Ghe" format="1">
  <advance width="559"/>
  <unicode hex="0413"/>
  <outline>
    <contour>
      <point x="58" y="0" type="line"/>
      <point x="316" y="0" type="line"/>
      <point x="316" y="20" type="line"/>
      <point x="189" y="27" type="line"/>
      <point x="175" y="27" type="line"/>
      <point x="58" y="20" type="line"/>
    </contour>
    <contour>
      <point x="58" y="657" type="line"/>
      <point x="175" y="650" type="line"/>
      <point x="182" y="650" type="line"/>
      <point x="182" y="677" type="line"/>
      <point x="58" y="677" type="line"/>
    </contour>
    <contour>
      <point x="165" y="0" type="curve"/>
      <point x="199" y="0" type="line"/>
      <point x="197" y="102"/>
      <point x="197" y="206"/>
      <point x="197" y="310" type="curve" smooth="yes"/>
      <point x="197" y="367" type="line" smooth="yes"/>
      <point x="197" y="471"/>
      <point x="197" y="575"/>
      <point x="199" y="677" type="curve"/>
      <point x="165" y="677" type="line"/>
      <point x="167" y="575"/>
      <point x="167" y="471"/>
      <point x="167" y="367" type="curve" smooth="yes"/>
      <point x="167" y="310" type="line" smooth="yes"/>
      <point x="167" y="206"/>
      <point x="167" y="102"/>
    </contour>
    <contour>
      <point x="182" y="655" type="line"/>
      <point x="495" y="655" type="line"/>
      <point x="481" y="677" type="line"/>
      <point x="500" y="524" type="line"/>
      <point x="524" y="524" type="line"/>
      <point x="514" y="677" type="line"/>
      <point x="182" y="677" type="line"/>
    </contour>
    <contour>
      <point x="332" y="682" type="move" name="aboveUC"/>
    </contour>
  </outline>
</glyph>
<glyph name="Em" format="1">
  <advance width="897"/>
  <unicode hex="041C"/>
  <outline>
    <contour>
      <point x="46" y="0" type="line"/>
      <point x="264" y="0" type="line"/>
      <point x="264" y="20" type="line"/>
      <point x="157" y="27" type="line"/>
      <point x="143" y="27" type="line"/>
      <point x="46" y="20" type="line"/>
    </contour>
    <contour>
      <point x="36" y="657" type="line"/>
      <point x="153" y="650" type="line"/>
      <point x="157" y="650" type="line"/>
      <point x="157" y="677" type="line"/>
      <point x="36" y="677" type="line"/>
    </contour>
    <contour>
      <point x="138" y="0" type="line"/>
      <point x="162" y="0" type="line"/>
      <point x="162" y="380" type="line"/>
      <point x="157" y="677" type="line"/>
      <point x="138" y="677" type="line"/>
    </contour>
    <contour>
      <point x="427" y="0" type="line"/>
      <point x="439" y="0" type="line"/>
      <point x="722" y="677" type="line"/>
      <point x="696" y="677" type="line"/>
      <point x="430" y="40" type="line"/>
      <point x="439" y="40" type="line"/>
      <point x="171" y="677" type="line"/>
      <point x="138" y="677" type="line"/>
    </contour>
    <contour>
      <point x="591" y="0" type="line"/>
      <point x="839" y="0" type="line"/>
      <point x="839" y="20" type="line"/>
      <point x="722" y="27" type="line"/>
      <point x="708" y="27" type="line"/>
      <point x="591" y="20" type="line"/>
    </contour>
    <contour>
      <point x="698" y="0" type="curve"/>
      <point x="732" y="0" type="line"/>
      <point x="730" y="102"/>
      <point x="730" y="206"/>
      <point x="730" y="310" type="curve" smooth="yes"/>
      <point x="730" y="367" type="line" smooth="yes"/>
      <point x="730" y="471"/>
      <point x="730" y="575"/>
      <point x="732" y="677" type="curve"/>
      <point x="703" y="677" type="line"/>
      <point x="700" y="300" type="line" smooth="yes"/>
      <point x="699" y="206"/>
      <point x="700" y="102"/>
    </contour>
    <contour>
      <point x="715" y="650" type="line"/>
      <point x="722" y="650" type="line"/>
      <point x="839" y="657" type="line"/>
      <point x="839" y="677" type="line"/>
      <point x="715" y="677" type="line"/>
    </contour>
  </outline>
</glyph>
<glyph name="Ocyr" format="1">
  <advance width="706"/>
  <unicode hex="041E"/>
  <outline>
    <contour>
      <point x="95" y="338" type="curve" smooth="yes"/>
      <point x="95" y="518"/>
      <point x="193" y="668"/>
      <point x="353" y="668" type="curve" smooth="yes"/>
      <point x="513" y="668"/>
      <point x="611" y="518"/>
      <point x="611" y="338" type="curve" smooth="yes"/>
      <point x="611" y="158"/>
      <point x="513" y="9"/>
      <point x="353" y="9" type="curve" smooth="yes"/>
      <point x="193" y="9"/>
      <point x="95" y="158"/>
    </contour>
    <contour>
      <point x="353" y="690" type="curve" smooth="yes"/>
      <point x="188" y="690"/>
      <point x="63" y="550"/>
      <point x="63" y="338" type="curve" smooth="yes"/>
      <point x="63" y="126"/>
      <point x="188" y="-13"/>
      <point x="353" y="-13" type="curve" smooth="yes"/>
      <point x="518" y="-13"/>
      <point x="643" y="126"/>
      <point x="643" y="338" type="curve" smooth="yes"/>
      <point x="643" y="550"/>
      <point x="518" y="690"/>
    </contour>
    <contour>
      <point x="353" y="682" type="move" name="aboveUC"/>
    </contour>
  </outline>
</glyph>
<glyph name="ishort" format="1">
  <advance width="638"/>
  <unicode hex="0439"/>
  <outline>
    <contour>
      <point x="45" y="0" type="line"/>
      <point x="251" y="0" type="line"/>
      <point x="251" y="20" type="line"/>
      <point x="153" y="26" type="line"/>
      <point x="143" y="26" type="line"/>
      <point x="45" y="20" type="line"/>
    </contour>
    <contour>
      <point x="45" y="450" type="line"/>
      <point x="143" y="444" type="line"/>
      <point x="153" y="444" type="line"/>
      <point x="251" y="450" type="line"/>
      <point x="251" y="470" type="line"/>
      <point x="45" y="470" type="line"/>
    </contour>
    <contour>
      <point x="131" y="0" type="curve"/>
      <point x="161" y="0" type="line"/>
      <point x="161" y="470" type="line"/>
      <point x="131" y="470" type="line"/>
      <point x="133" y="425"/>
      <point x="134" y="322"/>
      <point x="134" y="260" type="curve" smooth="yes"/>
      <point x="134" y="210" type="line" smooth="yes"/>
      <point x="134" y="148"/>
      <point x="133" y="45"/>
    </contour>
    <contour>
      <point x="136" y="56" type="line"/>
      <point x="151" y="44" type="line"/>
      <point x="494" y="414" type="line"/>
      <point x="480" y="427" type="line"/>
    </contour>
    <contour>
      <point x="385" y="0" type="line"/>
      <point x="593" y="0" type="line"/>
      <point x="593" y="20" type="line"/>
      <point x="494" y="26" type="line"/>
      <point x="484" y="26" type="line"/>
      <point x="385" y="20" type="line"/>
    </contour>
    <contour>
      <point x="385" y="450" type="line"/>
      <point x="484" y="444" type="line"/>
      <point x="494" y="444" type="line"/>
      <point x="593" y="450" type="line"/>
      <point x="593" y="470" type="line"/>
      <point x="385" y="470" type="line"/>
    </contour>
    <contour>
      <point x="477" y="0" type="line"/>
      <point x="506" y="0" type="line"/>
      <point x="504" y="45"/>
      <point x="503" y="148"/>
      <point x="503" y="210" type="curve" smooth="yes"/>
      <point x="503" y="260" type="line" smooth="yes"/>
      <point x="503" y="322"/>
      <point x="504" y="425"/>
      <point x="506" y="470" type="curve"/>
      <point x="477" y="470" type="line"/>
    </contour>
    <contour>
      <point x="329" y="585" type="curve" smooth="yes"/>
      <point x="403" y="585"/>
      <point x="471" y="625"/>
      <point x="471" y="711" type="curve"/>
      <point x="466" y="724"/>
      <point x="459" y="728"/>
      <point x="450" y="728" type="curve" smooth="yes"/>
      <point x="436" y="728"/>
      <point x="428" y="714"/>
      <point x="428" y="700" type="curve" smooth="yes"/>
      <point x="428" y="676"/>
      <point x="433" y="654"/>
      <point x="436" y="634" type="curve"/>
      <point x="449" y="668" type="line"/>
      <point x="413" y="621"/>
      <point x="380" y="605"/>
      <point x="329" y="605" type="curve" smooth="yes"/>
      <point x="278" y="605"/>
      <point x="245" y="621"/>
      <point x="209" y="668" type="curve"/>
      <point x="222" y="634" type="line"/>
      <point x="225" y="654"/>
      <point x="230" y="676"/>
      <point x="230" y="700" type="curve" smooth="yes"/>
      <point x="230" y="714"/>
      <point x="222" y="728"/>
      <point x="208" y="728" type="curve" smooth="yes"/>
      <point x="199" y="728"/>
      <point x="192" y="724"/>
      <point x="187" y="711" type="curve"/>
      <point x="187" y="625"/>
      <point x="255" y="585"/>
    </contour>
  </outline>
</glyph>
<glyph name="ha" format="1">
  <advance width="500"/>
  <unicode hex="0445"/>
  <outline>
    <contour>
      <point x="68" y="470" type="line"/>
      <point x="244" y="228" type="line"/>
      <point x="405" y="0" type="line"/>
      <point x="441" y="0" type="line"/>
      <point x="260" y="247" type="line"/>
      <point x="101" y="470" type="line"/>
    </contour>
    <contour>
      <point x="90" y="26" type="line"/>
      <point x="10" y="20" type="line"/>
      <point x="10" y="0" type="line"/>
      <point x="181" y="0" type="line"/>
      <point x="181" y="20" type="line"/>
      <point x="99" y="26" type="line"/>
    </contour>
    <contour>
      <point x="108" y="444" type="line"/>
      <point x="199" y="450" type="line"/>
      <point x="199" y="470" type="line"/>
      <point x="17" y="470" type="line"/>
      <point x="17" y="450" type="line"/>
      <point x="99" y="444" type="line"/>
    </contour>
    <contour>
      <point x="402" y="26" type="line"/>
      <point x="305" y="20" type="line"/>
      <point x="305" y="0" type="line"/>
      <point x="490" y="0" type="line"/>
      <point x="490" y="20" type="line"/>
      <point x="410" y="26" type="line"/>
    </contour>
    <contour>
      <point x="407" y="444" type="line"/>
      <point x="483" y="450" type="line"/>
      <point x="483" y="470" type="line"/>
      <point x="309" y="470" type="line"/>
      <point x="309" y="450" type="line"/>
      <point x="399" y="444" type="line"/>
    </contour>
    <contour>
      <point x="90" y="0" type="line"/>
      <point x="256" y="230" type="line"/>
      <point x="245" y="245" type="line"/>
      <point x="61" y="0" type="line"/>
    </contour>
    <contour>
      <point x="407" y="470" type="line"/>
      <point x="246" y="244" type="line"/>
      <point x="257" y="230" type="line"/>
      <point x="434" y="470" type="line"/>
    </contour>
  </outline>
</glyph>
<glyph name="io" format="1">
  <advance width="491"/>
  <unicode hex="0451"/>
  <outline>
    <contour>
      <point x="265" y="483" type="curve" smooth="yes"/>
      <point x="154" y="483"/>
      <point x="52" y="389"/>
      <point x="52" y="237" type="curve" smooth="yes"/>
      <point x="52" y="62"/>
      <point x="163" y="-13"/>
      <point x="273" y="-13" type="curve" smooth="yes"/>
      <point x="338" y="-13"/>
      <point x="401" y="16"/>
      <point x="441" y="66" type="curve"/>
      <point x="430" y="77" type="line"/>
      <point x="390" y="35"/>
      <point x="337" y="13"/>
      <point x="273" y="13" type="curve" smooth="yes"/>
      <point x="178" y="13"/>
      <point x="84" y="80"/>
      <point x="84" y="248" type="curve" smooth="yes"/>
      <point x="84" y="360"/>
      <point x="158" y="463"/>
      <point x="265" y="463" type="curve" smooth="yes"/>
      <point x="363" y="463"/>
      <point x="415" y="385"/>
      <point x="415" y="302" type="curve" smooth="yes"/>
      <point x="415" y="273"/>
      <point x="409" y="263"/>
      <point x="395" y="263" type="curve" smooth="yes"/>
      <point x="70" y="264" type="line"/>
      <point x="70" y="243" type="line"/>
      <point x="439" y="242" type="line"/>
      <point x="443" y="257"/>
      <point x="445" y="275"/>
      <point x="445" y="299" type="curve" smooth="yes"/>
      <point x="445" y="397"/>
      <point x="381" y="483"/>
    </contour>
    <contour>
      <point x="359" y="644" type="curve" smooth="yes"/>
      <point x="374" y="644"/>
      <point x="388" y="655"/>
      <point x="388" y="674" type="curve" smooth="yes"/>
      <point x="388" y="692"/>
      <point x="374" y="703"/>
      <point x="359" y="703" type="curve" smooth="yes"/>
      <point x="344" y="703"/>
      <point x="330" y="692"/>
      <point x="330" y="674" type="curve" smooth="yes"/>
      <point x="330" y="655"/>
      <point x="344" y="644"/>
    </contour>
    <contour>
      <point x="171" y="644" type="curve" smooth="yes"/>
      <point x="186" y="644"/>
      <point x="200" y="655"/>
      <point x="200" y="674" type="curve" smooth="yes"/>
      <point x="200" y="692"/>
      <point x="186" y="703"/>
      <point x="171" y="703" type="curve" smooth="yes"/>
      <point x="156" y="703"/>
      <point x="142" y="692"/>
      <point x="142" y="674" type="curve" smooth="yes"/>
      <point x="142" y="655"/>
      <point x="156" y="644"/>
    </contour>
  </outline>
</glyph>
<glyph name="iebreve" format="1">
  <advance width="491"/>
  <unicode hex="04D7"/>
  <outline>
    <contour>
      <point x="265" y="483" type="curve" smooth="yes"/>
      <point x="154" y="483"/>
      <point x="52" y="389"/>
      <point x="52" y="237" type="curve" smooth="yes"/>
      <point x="52" y="62"/>
      <point x="163" y="-13"/>
      <point x="273" y="-13" type="curve" smooth="yes"/>
      <point x="338" y="-13"/>
      <point x="401" y="16"/>
      <point x="441" y="66" type="curve"/>
      <point x="430" y="77" type="line"/>
      <point x="390" y="35"/>
      <point x="337" y="13"/>
      <point x="273" y="13" type="curve" smooth="yes"/>
      <point x="178" y="13"/>
      <point x="84" y="80"/>
      <point x="84" y="248" type="curve" smooth="yes"/>
      <point x="84" y="360"/>
      <point x="158" y="463"/>
      <point x="265" y="463" type="curve" smooth="yes"/>
      <point x="363" y="463"/>
      <point x="415" y="385"/>
      <point x="415" y="302" type="curve" smooth="yes"/>
      <point x="415" y="273"/>
      <point x="409" y="263"/>
      <point x="395" y="263" type="curve" smooth="yes"/>
      <point x="70" y="264" type="line"/>
      <point x="70" y="243" type="line"/>
      <point x="439" y="242" type="line"/>
      <point x="443" y="257"/>
      <point x="445" y="275"/>
      <point x="445" y="299" type="curve" smooth="yes"/>
      <point x="445" y="397"/>
      <point x="381" y="483"/>
    </contour>
    <contour>
      <point x="279" y="585" type="curve" smooth="yes"/>
      <point x="353" y="585"/>
      <point x="421" y="625"/>
      <point x="421" y="711" type="curve"/>
      <point x="416" y="724"/>
      <point x="409" y="728"/>
      <point x="400" y="728" type="curve" smooth="yes"/>
      <point x="386" y="728"/>
      <point x="378" y="714"/>
      <point x="378" y="700" type="curve" smooth="yes"/>
      <point x="378" y="676"/>
      <point x="383" y="654"/>
      <point x="386" y="634" type="curve"/>
      <point x="399" y="668" type="line"/>
      <point x="363" y="621"/>
      <point x="330" y="605"/>
      <point x="279" y="605" type="curve" smooth="yes"/>
      <point x="228" y="605"/>
      <point x="195" y="621"/>
      <point x="159" y="668" type="curve"/>
      <point x="172" y="634" type="line"/>
      <point x="175" y="654"/>
      <point x="180" y="676"/>
      <point x="180" y="700" type="curve" smooth="yes"/>
      <point x="180" y="714"/>
      <point x="172" y="728"/>
      <point x="158" y="728" type="curve" smooth="yes"/>
      <point x="149" y="728"/>
      <point x="142" y="724"/>
      <point x="137" y="711" type="curve"/>
      <point x="137" y="625"/>
      <point x="205" y="585"/>
    </contour>
  </outline>
</glyph>
<glyph name="Obarcyr" format="1">
  <advance width="706"/>
  <unicode hex="04E8"/>
  <outline>
    <contour>
      <point x="619" y="344" type="line"/>
      <point x="619" y="366" type="line"/>
      <point x="88" y="366" type="line"/>
      <point x="88" y="344" type="line"/>
    </contour>
    <contour>
      <point x="95" y="346" type="curve" smooth="yes"/>
      <point x="95" y="526"/>
      <point x="184" y="668"/>
      <point x="353" y="668" type="curve" smooth="yes"/>
      <point x="522" y="668"/>
      <point x="611" y="526"/>
      <point x="611" y="346" type="curve" smooth="yes"/>
      <point x="611" y="143"/>
      <point x="522" y="9"/>
      <point x="353" y="9" type="curve" smooth="yes"/>
      <point x="184" y="9"/>
      <point x="95" y="143"/>
    </contour>
    <contour>
      <point x="353" y="690" type="curve" smooth="yes"/>
      <point x="177" y="690"/>
      <point x="63" y="562"/>
      <point x="63" y="338" type="curve" smooth="yes"/>
      <point x="63" y="114"/>
      <point x="177" y="-13"/>
      <point x="353" y="-13" type="curve" smooth="yes"/>
      <point x="529" y="-13"/>
      <point x="643" y="114"/>
      <point x="643" y="338" type="curve" smooth="yes"/>
      <point x="643" y="562"/>
      <point x="529" y="690"/>
    </contour>
    <contour>
      <point x="353" y="682" type="move" name="aboveUC"/>
    </contour>
  </outline>
</glyph>
<glyph name="ddotbelow" format="1">
  <advance width="575"/>
  <unicode hex="1E0D"/>
  <outline>
    <contour>
      <point x="84" y="227" type="curve" smooth="yes"/>
      <point x="84" y="385"/>
      <point x="164" y="458"/>
      <point x="264" y="458" type="curve" smooth="yes"/>
      <point x="325" y="458"/>
      <point x="371" y="429"/>
      <point x="417" y="373" type="curve"/>
      <point x="425" y="386" type="line"/>
      <point x="378" y="454"/>
      <point x="317" y="483"/>
      <point x="264" y="483" type="curve" smooth="yes"/>
      <point x="144" y="483"/>
      <point x="52" y="387"/>
      <point x="52" y="227" type="curve" smooth="yes"/>
      <point x="52" y="88"/>
      <point x="133" y="-13"/>
      <point x="249" y="-13" type="curve" smooth="yes"/>
      <point x="313" y="-13"/>
      <point x="376" y="14"/>
      <point x="426" y="89" type="curve"/>
      <point x="417" y="104" type="line"/>
      <point x="366" y="38"/>
      <point x="316" y="12"/>
      <point x="252" y="12" type="curve" smooth="yes"/>
      <point x="158" y="12"/>
      <point x="84" y="87"/>
    </contour>
    <contour>
      <point x="546" y="0" type="line"/>
      <point x="546" y="20" type="line"/>
      <point x="440" y="25" type="line"/>
      <point x="440" y="602" type="line"/>
      <point x="442" y="740" type="line"/>
      <point x="428" y="748" type="line"/>
      <point x="321" y="736" type="line"/>
      <point x="321" y="716" type="line"/>
      <point x="412" y="716" type="line"/>
      <point x="412" y="394" type="line"/>
      <point x="412" y="389" type="line"/>
      <point x="412" y="87" type="line"/>
      <point x="409" y="-6" type="line"/>
    </contour>
    <contour>
      <point x="301" y="-165" type="curve" smooth="yes"/>
      <point x="317" y="-165"/>
      <point x="333" y="-152"/>
      <point x="333" y="-133" type="curve" smooth="yes"/>
      <point x="333" y="-114"/>
      <point x="317" y="-101"/>
      <point x="301" y="-101" type="curve" smooth="yes"/>
      <point x="285" y="-101"/>
      <point x="269" y="-114"/>
      <point x="269" y="-133" type="curve" smooth="yes"/>
      <point x="269" y="-152"/>
      <point x="285" y="-165"/>
    </contour>
  </outline>
</glyph>
<glyph name="Hdotbelow" format="1">
  <advance width="794"/>
  <unicode hex="1E24"/>
  <outline>
    <contour>
      <point x="606" y="650" type="line"/>
      <point x="620" y="650" type="line"/>
      <point x="736" y="657" type="line"/>
      <point x="736" y="677" type="line"/>
      <point x="488" y="677" type="line"/>
      <point x="488" y="657" type="line"/>
    </contour>
    <contour>
      <point x="606" y="27" type="line"/>
      <point x="488" y="20" type="line"/>
      <point x="488" y="0" type="line"/>
      <point x="736" y="0" type="line"/>
      <point x="736" y="20" type="line"/>
      <point x="620" y="27" type="line"/>
    </contour>
    <contour>
      <point x="597" y="352" type="line" smooth="yes"/>
      <point x="597" y="206"/>
      <point x="597" y="102"/>
      <point x="595" y="0" type="curve"/>
      <point x="629" y="0" type="line"/>
      <point x="627" y="102"/>
      <point x="627" y="206"/>
      <point x="627" y="310" type="curve" smooth="yes"/>
      <point x="627" y="367" type="line" smooth="yes"/>
      <point x="627" y="471"/>
      <point x="627" y="575"/>
      <point x="629" y="677" type="curve"/>
      <point x="595" y="677" type="line"/>
      <point x="597" y="575"/>
      <point x="597" y="471"/>
      <point x="597" y="367" type="curve" smooth="yes"/>
    </contour>
    <contour>
      <point x="167" y="310" type="line" smooth="yes"/>
      <point x="167" y="206"/>
      <point x="167" y="102"/>
      <point x="165" y="0" type="curve"/>
      <point x="199" y="0" type="line"/>
      <point x="197" y="102"/>
      <point x="197" y="206"/>
      <point x="197" y="352" type="curve" smooth="yes"/>
      <point x="197" y="367" type="line" smooth="yes"/>
      <point x="197" y="471"/>
      <point x="197" y="575"/>
      <point x="199" y="677" type="curve"/>
      <point x="165" y="677" type="line"/>
      <point x="167" y="575"/>
      <point x="167" y="471"/>
      <point x="167" y="367" type="curve" smooth="yes"/>
    </contour>
    <contour>
      <point x="175" y="650" type="line"/>
      <point x="189" y="650" type="line"/>
      <point x="306" y="657" type="line"/>
      <point x="306" y="677" type="line"/>
      <point x="58" y="677" type="line"/>
      <point x="58" y="657" type="line"/>
    </contour>
    <contour>
      <point x="175" y="27" type="line"/>
      <point x="58" y="20" type="line"/>
      <point x="58" y="0" type="line"/>
      <point x="306" y="0" type="line"/>
      <point x="306" y="20" type="line"/>
      <point x="189" y="27" type="line"/>
    </contour>
    <contour>
      <point x="613" y="348" type="line"/>
      <point x="613" y="370" type="line"/>
      <point x="182" y="370" type="line"/>
      <point x="182" y="348" type="line"/>
    </contour>
    <contour>
      <point x="397" y="-165" type="curve" smooth="yes"/>
      <point x="413" y="-165"/>
      <point x="429" y="-152"/>
      <point x="429" y="-133" type="curve" smooth="yes"/>
      <point x="429" y="-114"/>
      <point x="413" y="-101"/>
      <point x="397" y="-101" type="curve" smooth="yes"/>
      <point x="381" y="-101"/>
      <point x="365" y="-114"/>
      <point x="365" y="-133" type="curve" smooth="yes"/>
      <point x="365" y="-152"/>
      <point x="381" y="-165"/>
    </contour>
  </outline>
</glyph>
<glyph name="Hbrevebelow" format="1">
  <advance width="794"/>
  <unicode hex="1E2A"/>
  <outline>
    <contour>
      <point x="606" y="650" type="line"/>
      <point x="620" y="650" type="line"/>
      <point x="736" y="657" type="line"/>
      <point x="736" y="677" type="line"/>
      <point x="488" y="677" type="line"/>
      <point x="488" y="657" type="line"/>
    </contour>
    <contour>
      <point x="606" y="27" type="line"/>
      <point x="488" y="20" type="line"/>
      <point x="488" y="0" type="line"/>
      <point x="736" y="0" type="line"/>
      <point x="736" y="20" type="line"/>
      <point x="620" y="27" type="line"/>
    </contour>
    <contour>
      <point x="597" y="352" type="line" smooth="yes"/>
      <point x="597" y="206"/>
      <point x="597" y="102"/>
      <point x="595" y="0" type="curve"/>
      <point x="629" y="0" type="line"/>
      <point x="627" y="102"/>
      <point x="627" y="206"/>
      <point x="627" y="310" type="curve" smooth="yes"/>
      <point x="627" y="367" type="line" smooth="yes"/>
      <point x="627" y="471"/>
      <point x="627" y="575"/>
      <point x="629" y="677" type="curve"/>
      <point x="595" y="677" type="line"/>
      <point x="597" y="575"/>
      <point x="597" y="471"/>
      <point x="597" y="367" type="curve" smooth="yes"/>
    </contour>
    <contour>
      <point x="167" y="310" type="line" smooth="yes"/>
      <point x="167" y="206"/>
      <point x="167" y="102"/>
      <point x="165" y="0" type="curve"/>
      <point x="199" y="0" type="line"/>
      <point x="197" y="102"/>
      <point x="197" y="206"/>
      <point x="197" y="352" type="curve" smooth="yes"/>
      <point x="197" y="367" type="line" smooth="yes"/>
      <point x="197" y="471"/>
      <point x="197" y="575"/>
      <point x="199" y="677" type="curve"/>
      <point x="165" y="677" type="line"/>
      <point x="167" y="575"/>
      <point x="167" y="471"/>
      <point x="167" y="367" type="curve" smooth="yes"/>
    </contour>
    <contour>
      <point x="175" y="650" type="line"/>
      <point x="189" y="650" type="line"/>
      <point x="306" y="657" type="line"/>
      <point x="306" y="677" type="line"/>
      <point x="58" y="677" type="line"/>
      <point x="58" y="657" type="line"/>
    </contour>
    <contour>
      <point x="175" y="27" type="line"/>
      <point x="58" y="20" type="line"/>
      <point x="58" y="0" type="line"/>
      <point x="306" y="0" type="line"/>
      <point x="306" y="20" type="line"/>
      <point x="189" y="27" type="line"/>
    </contour>
    <contour>
      <point x="613" y="348" type="line"/>
      <point x="613" y="370" type="line"/>
      <point x="182" y="370" type="line"/>
      <point x="182" y="348" type="line"/>
    </contour>
    <contour>
      <point x="256" y="-74" type="line"/>
      <point x="268" y="-157"/>
      <point x="322" y="-215"/>
      <point x="397" y="-215" type="curve" smooth="yes"/>
      <point x="472" y="-215"/>
      <point x="526" y="-157"/>
      <point x="538" y="-74" type="curve"/>
      <point x="523" y="-70" type="line"/>
      <point x="503" y="-139"/>
      <point x="466" y="-188"/>
      <point x="397" y="-188" type="curve" smooth="yes"/>
      <point x="328" y="-188"/>
      <point x="291" y="-139"/>
      <point x="271" y="-70" type="curve"/>
    </contour>
  </outline>
</glyph>
<glyph name="Ldotbelow" format="1">
  <advance width="564"/>
  <unicode hex="1E36"/>
  <outline>
    <contour>
      <point x="175" y="27" type="line"/>
      <point x="58" y="20" type="line"/>
      <point x="58" y="0" type="line"/>
      <point x="182" y="0" type="line"/>
      <point x="182" y="27" type="line"/>
    </contour>
    <contour>
      <point x="175" y="650" type="line"/>
      <point x="189" y="650" type="line"/>
      <point x="306" y="657" type="line"/>
      <point x="306" y="677" type="line"/>
      <point x="58" y="677" type="line"/>
      <point x="58" y="657" type="line"/>
    </contour>
    <contour>
      <point x="167" y="367" type="curve" smooth="yes"/>
      <point x="167" y="310" type="line" smooth="yes"/>
      <point x="167" y="206"/>
      <point x="167" y="102"/>
      <point x="165" y="0" type="curve"/>
      <point x="199" y="0" type="line"/>
      <point x="197" y="102"/>
      <point x="197" y="206"/>
      <point x="197" y="289" type="curve" smooth="yes"/>
      <point x="197" y="329" type="line" smooth="yes"/>
      <point x="197" y="471"/>
      <point x="197" y="575"/>
      <point x="199" y="677" type="curve"/>
      <point x="165" y="677" type="line"/>
      <point x="167" y="575"/>
      <point x="167" y="471"/>
    </contour>
    <contour>
      <point x="510" y="163" type="line"/>
      <point x="494" y="22" type="line"/>
      <point x="182" y="22" type="line"/>
      <point x="182" y="0" type="line"/>
      <point x="524" y="0" type="line"/>
      <point x="534" y="163" type="line"/>
    </contour>
    <contour>
      <point x="338" y="-165" type="curve" smooth="yes"/>
      <point x="354" y="-165"/>
      <point x="370" y="-152"/>
      <point x="370" y="-133" type="curve" smooth="yes"/>
      <point x="370" y="-114"/>
      <point x="354" y="-101"/>
      <point x="338" y="-101" type="curve" smooth="yes"/>
      <point x="322" y="-101"/>
      <point x="306" y="-114"/>
      <point x="306" y="-133" type="curve" smooth="yes"/>
      <point x="306" y="-152"/>
      <point x="322" y="-165"/>
    </contour>
  </outline>
</glyph>
<glyph name="nlinebelow" format="1">
  <advance width="604"/>
  <unicode hex="1E49"/>
  <outline>
    <contour>
      <point x="166" y="0" type="line"/>
      <point x="164" y="45"/>
      <point x="163" y="148"/>
      <point x="163" y="210" type="curve" smooth="yes"/>
      <point x="163" y="364" type="line"/>
      <point x="161" y="472" type="line"/>
      <point x="151" y="478" type="line"/>
      <point x="39" y="466" type="line"/>
      <point x="39" y="446" type="line"/>
      <point x="132" y="446" type="line"/>
      <point x="134" y="395"/>
      <point x="135" y="329"/>
      <point x="135" y="259" type="curve" smooth="yes"/>
      <point x="135" y="210" type="line" smooth="yes"/>
      <point x="135" y="148"/>
      <point x="134" y="45"/>
      <point x="132" y="0" type="curve"/>
    </contour>
    <contour>
      <point x="152" y="26" type="line"/>
      <point x="143" y="26" type="line"/>
      <point x="43" y="20" type="line"/>
      <point x="43" y="0" type="line"/>
      <point x="246" y="0" type="line"/>
      <point x="246" y="20" type="line"/>
    </contour>
    <contour>
      <point x="464" y="26" type="line"/>
      <point x="364" y="20" type="line"/>
      <point x="364" y="0" type="line"/>
      <point x="567" y="0" type="line"/>
      <point x="567" y="20" type="line"/>
      <point x="473" y="26" type="line"/>
    </contour>
    <contour>
      <point x="363" y="483" type="curve" smooth="yes"/>
      <point x="300" y="483"/>
      <point x="228" y="451"/>
      <point x="149" y="354" type="curve"/>
      <point x="156" y="337" type="line"/>
      <point x="240" y="435"/>
      <point x="313" y="455"/>
      <point x="356" y="455" type="curve" smooth="yes"/>
      <point x="415" y="455"/>
      <point x="456" y="417"/>
      <point x="456" y="315" type="curve" smooth="yes"/>
      <point x="456" y="210" type="line" smooth="yes"/>
      <point x="456" y="146"/>
      <point x="455" y="45"/>
      <point x="453" y="0" type="curve"/>
      <point x="487" y="0" type="line"/>
      <point x="485" y="45"/>
      <point x="484" y="146"/>
      <point x="484" y="210" type="curve" smooth="yes"/>
      <point x="484" y="314" type="line" smooth="yes"/>
      <point x="484" y="439"/>
      <point x="437" y="483"/>
    </contour>
    <contour>
      <point x="188" y="-133" type="line"/>
      <point x="428" y="-133" type="line"/>
      <point x="428" y="-107" type="line"/>
      <point x="188" y="-107" type="line"/>
    </contour>
  </outline>
</glyph>
<glyph name="tdotbelow" format="1">
  <advance width="332"/>
  <unicode hex="1E6D"/>
  <outline>
    <contour>
      <point x="139" y="470" type="line"/>
      <point x="139" y="446" type="line"/>
      <point x="298" y="446" type="line"/>
      <point x="298" y="470" type="line"/>
    </contour>
    <contour>
      <point x="153" y="106" type="curve" smooth="yes"/>
      <point x="153" y="451" type="line"/>
      <point x="157" y="619" type="line"/>
      <point x="135" y="619" type="line"/>
      <point x="124" y="458" type="line"/>
      <point x="145" y="471" type="line"/>
      <point x="15" y="466" type="line"/>
      <point x="15" y="446" type="line"/>
      <point x="125" y="446" type="line"/>
      <point x="125" y="174" type="line" smooth="yes"/>
      <point x="125" y="147"/>
      <point x="124" y="129"/>
      <point x="124" y="110" type="curve" smooth="yes"/>
      <point x="122" y="30"/>
      <point x="148" y="-13"/>
      <point x="221" y="-13" type="curve" smooth="yes"/>
      <point x="256" y="-13"/>
      <point x="284" y="-4"/>
      <point x="307" y="15" type="curve"/>
      <point x="300" y="29" type="line"/>
      <point x="275" y="17"/>
      <point x="257" y="11"/>
      <point x="224" y="11" type="curve" smooth="yes"/>
      <point x="177" y="11"/>
      <point x="153" y="39"/>
    </contour>
    <contour>
      <point x="211" y="-165" type="curve" smooth="yes"/>
      <point x="227" y="-165"/>
      <point x="243" y="-152"/>
      <point x="243" y="-133" type="curve" smooth="yes"/>
      <point x="243" y="-114"/>
      <point x="227" y="-101"/>
      <point x="211" y="-101" type="curve" smooth="yes"/>
      <point x="195" y="-101"/>
      <point x="179" y="-114"/>
      <point x="179" y="-133" type="curve" smooth="yes"/>
      <point x="179" y="-152"/>
      <point x="195" y="-165"/>
    </contour>
  </outline>
</glyph>
<glyph name="Wgrave" format="1">
  <advance width="966"/>
  <unicode hex="1E80"/>
  <outline>
    <contour>
      <point x="848" y="650" type="line"/>
      <point x="956" y="657" type="line"/>
      <point x="956" y="677" type="line"/>
      <point x="728" y="677" type="line"/>
      <point x="728" y="657" type="line"/>
      <point x="834" y="650" type="line"/>
    </contour>
    <contour>
      <point x="497" y="650" type="line"/>
      <point x="606" y="657" type="line"/>
      <point x="606" y="677" type="line"/>
      <point x="378" y="677" type="line"/>
      <point x="378" y="657" type="line"/>
      <point x="483" y="650" type="line"/>
    </contour>
    <contour>
      <point x="128" y="650" type="line"/>
      <point x="239" y="657" type="line"/>
      <point x="239" y="677" type="line"/>
      <point x="11" y="677" type="line"/>
      <point x="11" y="657" type="line"/>
      <point x="114" y="650" type="line"/>
    </contour>
    <contour>
      <point x="664" y="-7" type="line"/>
      <point x="684" y="-7" type="line"/>
      <point x="861" y="677" type="line"/>
      <point x="835" y="677" type="line"/>
      <point x="678" y="45" type="line"/>
      <point x="495" y="677" type="line"/>
      <point x="481" y="677" type="line"/>
      <point x="299" y="48" type="line"/>
      <point x="129" y="677" type="line"/>
      <point x="99" y="677" type="line"/>
      <point x="284" y="-7" type="line"/>
      <point x="304" y="-7" type="line"/>
      <point x="484" y="613" type="line"/>
    </contour>
    <contour>
      <point x="527" y="741" type="line"/>
      <point x="491" y="771"/>
      <point x="455" y="802"/>
      <point x="424" y="828" type="curve" smooth="yes"/>
      <point x="396" y="852"/>
      <point x="387" y="859"/>
      <point x="377" y="859" type="curve" smooth="yes"/>
      <point x="367" y="859"/>
      <point x="359" y="852"/>
      <point x="359" y="842" type="curve" smooth="yes"/>
      <point x="359" y="830"/>
      <point x="372" y="823"/>
      <point x="405" y="801" type="curve" smooth="yes"/>
      <point x="441" y="778"/>
      <point x="480" y="753"/>
      <point x="519" y="730" type="curve"/>
    </contour>
  </outline>
</glyph>
<glyph name="Zdotbelow" format="1">
  <advance width="555"/>
  <unicode hex="1E92"/>
  <outline>
    <contour>
      <point x="67" y="514" type="line"/>
      <point x="86" y="655" type="line"/>
      <point x="472" y="655" type="line"/>
      <point x="30" y="20" type="line"/>
      <point x="30" y="0" type="line"/>
      <point x="515" y="0" type="line"/>
      <point x="525" y="163" type="line"/>
      <point x="503" y="163" type="line"/>
      <point x="482" y="22" type="line"/>
      <point x="66" y="22" type="line"/>
      <point x="506" y="657" type="line"/>
      <point x="506" y="677" type="line"/>
      <point x="53" y="677" type="line"/>
      <point x="45" y="514" type="line"/>
    </contour>
    <contour>
      <point x="289" y="-165" type="curve" smooth="yes"/>
      <point x="305" y="-165"/>
      <point x="321" y="-152"/>
      <point x="321" y="-133" type="curve" smooth="yes"/>
      <point x="321" y="-114"/>
      <point x="305" y="-101"/>
      <point x="289" y="-101" type="curve" smooth="yes"/>
      <point x="273" y="-101"/>
      <point x="257" y="-114"/>
      <point x="257" y="-133" type="curve" smooth="yes"/>
      <point x="257" y="-152"/>
      <point x="273" y="-165"/>
    </contour>
  </outline>
</glyph>
<glyph name="zdotbelow" format="1">
  <advance width="457"/>
  <unicode hex="1E93"/>
  <outline>
    <contour>
      <point x="59" y="470" type="line"/>
      <point x="53" y="345" type="line"/>
      <point x="74" y="341" type="line"/>
      <point x="92" y="450" type="line"/>
      <point x="367" y="450" type="line"/>
      <point x="54" y="20" type="line"/>
      <point x="54" y="0" type="line"/>
      <point x="411" y="0" type="line"/>
      <point x="418" y="139" type="line"/>
      <point x="397" y="139" type="line"/>
      <point x="376" y="20" type="line"/>
      <point x="87" y="20" type="line"/>
      <point x="401" y="450" type="line"/>
      <point x="401" y="470" type="line"/>
    </contour>
    <contour>
      <point x="244" y="-165" type="curve" smooth="yes"/>
      <point x="260" y="-165"/>
      <point x="276" y="-152"/>
      <point x="276" y="-133" type="curve" smooth="yes"/>
      <point x="276" y="-114"/>
      <point x="260" y="-101"/>
      <point x="244" y="-101" type="curve" smooth="yes"/>
      <point x="228" y="-101"/>
      <point x="212" y="-114"/>
      <point x="212" y="-133" type="curve" smooth="yes"/>
      <point x="212" y="-152"/>
      <point x="228" y="-165"/>
    </contour>
  </outline>
</glyph>
<glyph name="tdieresis" format="1">
  <advance width="332"/>
  <unicode hex="1E97"/>
  <outline>
    <contour>
      <point x="139" y="470" type="line"/>
      <point x="139" y="446" type="line"/>
      <point x="298" y="446" type="line"/>
      <point x="298" y="470" type="line"/>
    </contour>
    <contour>
      <point x="153" y="106" type="curve" smooth="yes"/>
      <point x="153" y="451" type="line"/>
      <point x="157" y="619" type="line"/>
      <point x="135" y="619" type="line"/>
      <point x="124" y="458" type="line"/>
      <point x="145" y="471" type="line"/>
      <point x="15" y="466" type="line"/>
      <point x="15" y="446" type="line"/>
      <point x="125" y="446" type="line"/>
      <point x="125" y="174" type="line" smooth="yes"/>
      <point x="125" y="147"/>
      <point x="124" y="129"/>
      <point x="124" y="110" type="curve" smooth="yes"/>
      <point x="122" y="30"/>
      <point x="148" y="-13"/>
      <point x="221" y="-13" type="curve" smooth="yes"/>
      <point x="256" y="-13"/>
      <point x="284" y="-4"/>
      <point x="307" y="15" type="curve"/>
      <point x="300" y="29" type="line"/>
      <point x="275" y="17"/>
      <point x="257" y="11"/>
      <point x="224" y="11" type="curve" smooth="yes"/>
      <point x="177" y="11"/>
      <point x="153" y="39"/>
    </contour>
    <contour>
      <point x="243" y="736" type="curve" smooth="yes"/>
      <point x="258" y="736"/>
      <point x="272" y="747"/>
      <point x="272" y="766" type="curve" smooth="yes"/>
      <point x="272" y="784"/>
      <point x="258" y="795"/>
      <point x="243" y="795" type="curve" smooth="yes"/>
      <point x="228" y="795"/>
      <point x="214" y="784"/>
      <point x="214" y="766" type="curve" smooth="yes"/>
      <point x="214" y="747"/>
      <point x="228" y="736"/>
    </contour>
    <contour>
      <point x="55" y="736" type="curve" smooth="yes"/>
      <point x="70" y="736"/>
      <point x="84" y="747"/>
      <point x="84" y="766" type="curve" smooth="yes"/>
      <point x="84" y="784"/>
      <point x="70" y="795"/>
      <point x="55" y="795" type="curve" smooth="yes"/>
      <point x="40" y="795"/>
      <point x="26" y="784"/>
      <point x="26" y="766" type="curve" smooth="yes"/>
      <point x="26" y="747"/>
      <point x="40" y="736"/>
    </contour>
  </outline>
</glyph>
